<?xml version='1.0'?>
<!--
Bitly Generated QR Code
v4
33x33
-->
<svg width='656' height='656'
xmlns='http://www.w3.org/2000/svg'
xmlns:xlink='http://www.w3.org/1999/xlink'>
	<g id='background' style='fill:#ffffff' >
<rect x="0" y="0" width="656" height="656" />
</g>
<g id='pips' style='fill:#000000' >
<path d="M66.4,288L77.6,288A2.4,2.4,0,0,1,80,290.4L80,301.6A2.4,2.4,0,0,1,77.6,304L66.4,304A2.4,2.4,0,0,1,64,301.6L64,290.4A2.4,2.4,0,0,1,66.4,288M66.4,320L80,320L93.6,320A2.4,2.4,0,0,1,96,322.4L96,336L96,352L96,365.6A2.4,2.4,0,0,0,98.4,368L109.6,368A2.4,2.4,0,0,1,112,370.4L112,381.6A2.4,2.4,0,0,0,114.4,384L125.6,384A2.4,2.4,0,0,1,128,386.4L128,397.6A2.4,2.4,0,0,1,125.6,400L114.4,400A2.4,2.4,0,0,0,112,402.4L112,413.6A2.4,2.4,0,0,1,109.6,416L98.4,416A2.4,2.4,0,0,1,96,413.6L96,400L96,386.4A2.4,2.4,0,0,0,93.6,384L82.4,384A2.4,2.4,0,0,1,80,381.6L80,368L80,354.4A2.4,2.4,0,0,0,77.6,352L66.4,352A2.4,2.4,0,0,1,64,349.6L64,336L64,322.4A2.4,2.4,0,0,1,66.4,320M66.4,400L77.6,400A2.4,2.4,0,0,1,80,402.4L80,416L80,432L80,445.6A2.4,2.4,0,0,0,82.4,448L96,448L112,448L125.6,448A2.4,2.4,0,0,0,128,445.6L128,434.4A2.4,2.4,0,0,1,130.4,432L141.6,432A2.4,2.4,0,0,1,144,434.4L144,445.6A2.4,2.4,0,0,0,146.4,448L160,448L173.6,448A2.4,2.4,0,0,1,176,450.4L176,461.6A2.4,2.4,0,0,1,173.6,464L160,464L144,464L128,464L112,464L96,464L80,464L66.4,464A2.4,2.4,0,0,1,64,461.6L64,448L64,432L64,416L64,402.4A2.4,2.4,0,0,1,66.4,400M82.4,208L96,208L109.6,208A2.4,2.4,0,0,1,112,210.4L112,221.6A2.4,2.4,0,0,0,114.4,224L128,224L144,224L160,224L173.6,224A2.4,2.4,0,0,1,176,226.4L176,237.6A2.4,2.4,0,0,1,173.6,240L160,240L146.4,240A2.4,2.4,0,0,0,144,242.4L144,253.6A2.4,2.4,0,0,1,141.6,256L128,256L114.4,256A2.4,2.4,0,0,1,112,253.6L112,242.4A2.4,2.4,0,0,0,109.6,240L98.4,240A2.4,2.4,0,0,0,96,242.4L96,253.6A2.4,2.4,0,0,1,93.6,256L82.4,256A2.4,2.4,0,0,1,80,253.6L80,240L80,224L80,210.4A2.4,2.4,0,0,1,82.4,208M82.4,272L96,272L112,272L128,272L144,272L157.6,272A2.4,2.4,0,0,1,160,274.4L160,285.6A2.4,2.4,0,0,1,157.6,288L144,288L128,288L114.4,288A2.4,2.4,0,0,0,112,290.4L112,301.6A2.4,2.4,0,0,1,109.6,304L98.4,304A2.4,2.4,0,0,1,96,301.6L96,290.4A2.4,2.4,0,0,0,93.6,288L82.4,288A2.4,2.4,0,0,1,80,285.6L80,274.4A2.4,2.4,0,0,1,82.4,272M114.4,304L128,304L144,304L157.6,304A2.4,2.4,0,0,1,160,306.4L160,317.6A2.4,2.4,0,0,0,162.4,320L176,320L189.6,320A2.4,2.4,0,0,1,192,322.4L192,333.6A2.4,2.4,0,0,1,189.6,336L176,336L160,336L146.4,336A2.4,2.4,0,0,1,144,333.6L144,322.4A2.4,2.4,0,0,0,141.6,320L128,320L114.4,320A2.4,2.4,0,0,1,112,317.6L112,306.4A2.4,2.4,0,0,1,114.4,304M114.4,352L125.6,352A2.4,2.4,0,0,1,128,354.4L128,365.6A2.4,2.4,0,0,1,125.6,368L114.4,368A2.4,2.4,0,0,1,112,365.6L112,354.4A2.4,2.4,0,0,1,114.4,352M114.4,416L125.6,416A2.4,2.4,0,0,1,128,418.4L128,429.6A2.4,2.4,0,0,1,125.6,432L114.4,432A2.4,2.4,0,0,1,112,429.6L112,418.4A2.4,2.4,0,0,1,114.4,416M130.4,336L141.6,336A2.4,2.4,0,0,1,144,338.4L144,349.6A2.4,2.4,0,0,1,141.6,352L130.4,352A2.4,2.4,0,0,1,128,349.6L128,338.4A2.4,2.4,0,0,1,130.4,336M130.4,368L144,368L157.6,368A2.4,2.4,0,0,1,160,370.4L160,381.6A2.4,2.4,0,0,1,157.6,384L144,384L130.4,384A2.4,2.4,0,0,1,128,381.6L128,370.4A2.4,2.4,0,0,1,130.4,368M130.4,400L141.6,400A2.4,2.4,0,0,1,144,402.4L144,413.6A2.4,2.4,0,0,1,141.6,416L130.4,416A2.4,2.4,0,0,1,128,413.6L128,402.4A2.4,2.4,0,0,1,130.4,400M146.4,192L160,192L173.6,192A2.4,2.4,0,0,1,176,194.4L176,205.6A2.4,2.4,0,0,1,173.6,208L160,208L146.4,208A2.4,2.4,0,0,1,144,205.6L144,194.4A2.4,2.4,0,0,1,146.4,192M146.4,416L160,416L173.6,416A2.4,2.4,0,0,1,176,418.4L176,429.6A2.4,2.4,0,0,1,173.6,432L160,432L146.4,432A2.4,2.4,0,0,1,144,429.6L144,418.4A2.4,2.4,0,0,1,146.4,416M162.4,256L173.6,256A2.4,2.4,0,0,0,176,253.6L176,242.4A2.4,2.4,0,0,1,178.4,240L189.6,240A2.4,2.4,0,0,1,192,242.4L192,253.6A2.4,2.4,0,0,0,194.4,256L205.6,256A2.4,2.4,0,0,0,208,253.6L208,242.4A2.4,2.4,0,0,1,210.4,240L221.6,240A2.4,2.4,0,0,1,224,242.4L224,253.6A2.4,2.4,0,0,0,226.4,256L237.6,256A2.4,2.4,0,0,1,240,258.4L240,272L240,285.6A2.4,2.4,0,0,1,237.6,288L226.4,288A2.4,2.4,0,0,1,224,285.6L224,274.4A2.4,2.4,0,0,0,221.6,272L208,272L194.4,272A2.4,2.4,0,0,0,192,274.4L192,285.6A2.4,2.4,0,0,1,189.6,288L178.4,288A2.4,2.4,0,0,1,176,285.6L176,274.4A2.4,2.4,0,0,0,173.6,272L162.4,272A2.4,2.4,0,0,1,160,269.6L160,258.4A2.4,2.4,0,0,1,162.4,256M162.4,288L173.6,288A2.4,2.4,0,0,1,176,290.4L176,301.6A2.4,2.4,0,0,1,173.6,304L162.4,304A2.4,2.4,0,0,1,160,301.6L160,290.4A2.4,2.4,0,0,1,162.4,288M162.4,352L173.6,352A2.4,2.4,0,0,1,176,354.4L176,365.6A2.4,2.4,0,0,1,173.6,368L162.4,368A2.4,2.4,0,0,1,160,365.6L160,354.4A2.4,2.4,0,0,1,162.4,352M162.4,384L173.6,384A2.4,2.4,0,0,1,176,386.4L176,397.6A2.4,2.4,0,0,1,173.6,400L162.4,400A2.4,2.4,0,0,1,160,397.6L160,386.4A2.4,2.4,0,0,1,162.4,384M178.4,208L189.6,208A2.4,2.4,0,0,1,192,210.4L192,221.6A2.4,2.4,0,0,1,189.6,224L178.4,224A2.4,2.4,0,0,1,176,221.6L176,210.4A2.4,2.4,0,0,1,178.4,208M178.4,368L189.6,368A2.4,2.4,0,0,1,192,370.4L192,381.6A2.4,2.4,0,0,1,189.6,384L178.4,384A2.4,2.4,0,0,1,176,381.6L176,370.4A2.4,2.4,0,0,1,178.4,368M178.4,400L189.6,400A2.4,2.4,0,0,1,192,402.4L192,413.6A2.4,2.4,0,0,1,189.6,416L178.4,416A2.4,2.4,0,0,1,176,413.6L176,402.4A2.4,2.4,0,0,1,178.4,400M178.4,432L189.6,432A2.4,2.4,0,0,0,192,429.6L192,418.4A2.4,2.4,0,0,1,194.4,416L205.6,416A2.4,2.4,0,0,0,208,413.6L208,402.4A2.4,2.4,0,0,0,205.6,400L194.4,400A2.4,2.4,0,0,1,192,397.6L192,386.4A2.4,2.4,0,0,1,194.4,384L205.6,384A2.4,2.4,0,0,0,208,381.6L208,370.4A2.4,2.4,0,0,1,210.4,368L221.6,368A2.4,2.4,0,0,0,224,365.6L224,354.4A2.4,2.4,0,0,1,226.4,352L240,352L256,352L269.6,352A2.4,2.4,0,0,0,272,349.6L272,336L272,322.4A2.4,2.4,0,0,1,274.4,320L288,320L304,320L320,320L333.6,320A2.4,2.4,0,0,1,336,322.4L336,336L336,349.6A2.4,2.4,0,0,0,338.4,352L349.6,352A2.4,2.4,0,0,1,352,354.4L352,368L352,384L352,400L352,413.6A2.4,2.4,0,0,1,349.6,416L338.4,416A2.4,2.4,0,0,0,336,418.4L336,429.6A2.4,2.4,0,0,1,333.6,432L322.4,432A2.4,2.4,0,0,1,320,429.6L320,418.4A2.4,2.4,0,0,0,317.6,416L306.4,416A2.4,2.4,0,0,1,304,413.6L304,402.4A2.4,2.4,0,0,0,301.6,400L290.4,400A2.4,2.4,0,0,1,288,397.6L288,386.4A2.4,2.4,0,0,1,290.4,384L301.6,384A2.4,2.4,0,0,0,304,381.6L304,368L304,354.4A2.4,2.4,0,0,0,301.6,352L290.4,352A2.4,2.4,0,0,0,288,354.4L288,365.6A2.4,2.4,0,0,1,285.6,368L274.4,368A2.4,2.4,0,0,0,272,370.4L272,381.6A2.4,2.4,0,0,1,269.6,384L258.4,384A2.4,2.4,0,0,1,256,381.6L256,370.4A2.4,2.4,0,0,0,253.6,368L242.4,368A2.4,2.4,0,0,0,240,370.4L240,381.6A2.4,2.4,0,0,1,237.6,384L226.4,384A2.4,2.4,0,0,0,224,386.4L224,400L224,416L224,429.6A2.4,2.4,0,0,0,226.4,432L240,432L256,432L269.6,432A2.4,2.4,0,0,1,272,434.4L272,445.6A2.4,2.4,0,0,0,274.4,448L288,448L301.6,448A2.4,2.4,0,0,0,304,445.6L304,434.4A2.4,2.4,0,0,1,306.4,432L317.6,432A2.4,2.4,0,0,1,320,434.4L320,445.6A2.4,2.4,0,0,0,322.4,448L333.6,448A2.4,2.4,0,0,1,336,450.4L336,464L336,477.6A2.4,2.4,0,0,1,333.6,480L322.4,480A2.4,2.4,0,0,1,320,477.6L320,466.4A2.4,2.4,0,0,0,317.6,464L304,464L290.4,464A2.4,2.4,0,0,0,288,466.4L288,477.6A2.4,2.4,0,0,1,285.6,480L272,480L258.4,480A2.4,2.4,0,0,1,256,477.6L256,466.4A2.4,2.4,0,0,0,253.6,464L242.4,464A2.4,2.4,0,0,1,240,461.6L240,450.4A2.4,2.4,0,0,0,237.6,448L224,448L208,448L192,448L178.4,448A2.4,2.4,0,0,1,176,445.6L176,434.4A2.4,2.4,0,0,1,178.4,432M194.4,64L205.6,64A2.4,2.4,0,0,1,208,66.4L208,77.6A2.4,2.4,0,0,1,205.6,80L194.4,80A2.4,2.4,0,0,1,192,77.6L192,66.4A2.4,2.4,0,0,1,194.4,64M194.4,96L205.6,96A2.4,2.4,0,0,1,208,98.4L208,109.6A2.4,2.4,0,0,1,205.6,112L194.4,112A2.4,2.4,0,0,1,192,109.6L192,98.4A2.4,2.4,0,0,1,194.4,96M194.4,128L205.6,128A2.4,2.4,0,0,0,208,125.6L208,114.4A2.4,2.4,0,0,1,210.4,112L224,112L237.6,112A2.4,2.4,0,0,1,240,114.4L240,125.6A2.4,2.4,0,0,0,242.4,128L253.6,128A2.4,2.4,0,0,1,256,130.4L256,141.6A2.4,2.4,0,0,0,258.4,144L272,144L285.6,144A2.4,2.4,0,0,0,288,141.6L288,130.4A2.4,2.4,0,0,1,290.4,128L301.6,128A2.4,2.4,0,0,0,304,125.6L304,114.4A2.4,2.4,0,0,1,306.4,112L317.6,112A2.4,2.4,0,0,1,320,114.4L320,125.6A2.4,2.4,0,0,0,322.4,128L336,128L349.6,128A2.4,2.4,0,0,1,352,130.4L352,141.6A2.4,2.4,0,0,1,349.6,144L336,144L322.4,144A2.4,2.4,0,0,0,320,146.4L320,157.6A2.4,2.4,0,0,1,317.6,160L306.4,160A2.4,2.4,0,0,0,304,162.4L304,176L304,192L304,205.6A2.4,2.4,0,0,1,301.6,208L290.4,208A2.4,2.4,0,0,1,288,205.6L288,192L288,176L288,162.4A2.4,2.4,0,0,0,285.6,160L274.4,160A2.4,2.4,0,0,0,272,162.4L272,176L272,192L272,205.6A2.4,2.4,0,0,1,269.6,208L258.4,208A2.4,2.4,0,0,0,256,210.4L256,221.6A2.4,2.4,0,0,1,253.6,224L240,224L226.4,224A2.4,2.4,0,0,1,224,221.6L224,210.4A2.4,2.4,0,0,0,221.6,208L210.4,208A2.4,2.4,0,0,1,208,205.6L208,194.4A2.4,2.4,0,0,0,205.6,192L194.4,192A2.4,2.4,0,0,1,192,189.6L192,176L192,162.4A2.4,2.4,0,0,1,194.4,160L205.6,160A2.4,2.4,0,0,1,208,162.4L208,173.6A2.4,2.4,0,0,0,210.4,176L221.6,176A2.4,2.4,0,0,1,224,178.4L224,189.6A2.4,2.4,0,0,0,226.4,192L240,192L253.6,192A2.4,2.4,0,0,0,256,189.6L256,176L256,162.4A2.4,2.4,0,0,0,253.6,160L242.4,160A2.4,2.4,0,0,0,240,162.4L240,173.6A2.4,2.4,0,0,1,237.6,176L226.4,176A2.4,2.4,0,0,1,224,173.6L224,160L224,146.4A2.4,2.4,0,0,0,221.6,144L208,144L194.4,144A2.4,2.4,0,0,1,192,141.6L192,130.4A2.4,2.4,0,0,1,194.4,128M194.4,304L205.6,304A2.4,2.4,0,0,1,208,306.4L208,317.6A2.4,2.4,0,0,1,205.6,320L194.4,320A2.4,2.4,0,0,1,192,317.6L192,306.4A2.4,2.4,0,0,1,194.4,304M194.4,352L205.6,352A2.4,2.4,0,0,1,208,354.4L208,365.6A2.4,2.4,0,0,1,205.6,368L194.4,368A2.4,2.4,0,0,1,192,365.6L192,354.4A2.4,2.4,0,0,1,194.4,352M194.4,464L208,464L224,464L237.6,464A2.4,2.4,0,0,1,240,466.4L240,477.6A2.4,2.4,0,0,1,237.6,480L226.4,480A2.4,2.4,0,0,0,224,482.4L224,493.6A2.4,2.4,0,0,1,221.6,496L210.4,496A2.4,2.4,0,0,1,208,493.6L208,482.4A2.4,2.4,0,0,0,205.6,480L194.4,480A2.4,2.4,0,0,1,192,477.6L192,466.4A2.4,2.4,0,0,1,194.4,464M194.4,496L205.6,496A2.4,2.4,0,0,1,208,498.4L208,509.6A2.4,2.4,0,0,1,205.6,512L194.4,512A2.4,2.4,0,0,1,192,509.6L192,498.4A2.4,2.4,0,0,1,194.4,496M210.4,80L221.6,80A2.4,2.4,0,0,1,224,82.4L224,93.6A2.4,2.4,0,0,1,221.6,96L210.4,96A2.4,2.4,0,0,1,208,93.6L208,82.4A2.4,2.4,0,0,1,210.4,80M210.4,288L221.6,288A2.4,2.4,0,0,1,224,290.4L224,301.6A2.4,2.4,0,0,1,221.6,304L210.4,304A2.4,2.4,0,0,1,208,301.6L208,290.4A2.4,2.4,0,0,1,210.4,288M210.4,512L224,512L237.6,512A2.4,2.4,0,0,0,240,509.6L240,498.4A2.4,2.4,0,0,1,242.4,496L253.6,496A2.4,2.4,0,0,1,256,498.4L256,509.6A2.4,2.4,0,0,0,258.4,512L269.6,512A2.4,2.4,0,0,1,272,514.4L272,528L272,541.6A2.4,2.4,0,0,0,274.4,544L285.6,544A2.4,2.4,0,0,1,288,546.4L288,557.6A2.4,2.4,0,0,0,290.4,560L304,560L317.6,560A2.4,2.4,0,0,0,320,557.6L320,544L320,530.4A2.4,2.4,0,0,1,322.4,528L333.6,528A2.4,2.4,0,0,1,336,530.4L336,541.6A2.4,2.4,0,0,0,338.4,544L349.6,544A2.4,2.4,0,0,0,352,541.6L352,528L352,514.4A2.4,2.4,0,0,0,349.6,512L336,512L320,512L306.4,512A2.4,2.4,0,0,1,304,509.6L304,498.4A2.4,2.4,0,0,1,306.4,496L320,496L333.6,496A2.4,2.4,0,0,0,336,493.6L336,482.4A2.4,2.4,0,0,1,338.4,480L349.6,480A2.4,2.4,0,0,1,352,482.4L352,493.6A2.4,2.4,0,0,0,354.4,496L368,496L381.6,496A2.4,2.4,0,0,0,384,493.6L384,482.4A2.4,2.4,0,0,1,386.4,480L397.6,480A2.4,2.4,0,0,1,400,482.4L400,493.6A2.4,2.4,0,0,0,402.4,496L413.6,496A2.4,2.4,0,0,0,416,493.6L416,482.4A2.4,2.4,0,0,1,418.4,480L429.6,480A2.4,2.4,0,0,0,432,477.6L432,466.4A2.4,2.4,0,0,1,434.4,464L445.6,464A2.4,2.4,0,0,0,448,461.6L448,450.4A2.4,2.4,0,0,1,450.4,448L464,448L480,448L493.6,448A2.4,2.4,0,0,0,496,445.6L496,432L496,418.4A2.4,2.4,0,0,1,498.4,416L509.6,416A2.4,2.4,0,0,1,512,418.4L512,432L512,445.6A2.4,2.4,0,0,0,514.4,448L525.6,448A2.4,2.4,0,0,1,528,450.4L528,464L528,480L528,493.6A2.4,2.4,0,0,0,530.4,496L544,496L557.6,496A2.4,2.4,0,0,0,560,493.6L560,482.4A2.4,2.4,0,0,1,562.4,480L573.6,480A2.4,2.4,0,0,1,576,482.4L576,496L576,509.6A2.4,2.4,0,0,0,578.4,512L589.6,512A2.4,2.4,0,0,1,592,514.4L592,528L592,541.6A2.4,2.4,0,0,1,589.6,544L578.4,544A2.4,2.4,0,0,1,576,541.6L576,530.4A2.4,2.4,0,0,0,573.6,528L562.4,528A2.4,2.4,0,0,1,560,525.6L560,514.4A2.4,2.4,0,0,0,557.6,512L544,512L530.4,512A2.4,2.4,0,0,0,528,514.4L528,528L528,541.6A2.4,2.4,0,0,1,525.6,544L512,544L498.4,544A2.4,2.4,0,0,1,496,541.6L496,530.4A2.4,2.4,0,0,0,493.6,528L482.4,528A2.4,2.4,0,0,0,480,530.4L480,541.6A2.4,2.4,0,0,1,477.6,544L466.4,544A2.4,2.4,0,0,0,464,546.4L464,557.6A2.4,2.4,0,0,1,461.6,560L450.4,560A2.4,2.4,0,0,1,448,557.6L448,546.4A2.4,2.4,0,0,0,445.6,544L434.4,544A2.4,2.4,0,0,1,432,541.6L432,530.4A2.4,2.4,0,0,1,434.4,528L445.6,528A2.4,2.4,0,0,0,448,525.6L448,514.4A2.4,2.4,0,0,0,445.6,512L434.4,512A2.4,2.4,0,0,0,432,514.4L432,525.6A2.4,2.4,0,0,1,429.6,528L416,528L400,528L386.4,528A2.4,2.4,0,0,0,384,530.4L384,541.6A2.4,2.4,0,0,1,381.6,544L370.4,544A2.4,2.4,0,0,0,368,546.4L368,560L368,573.6A2.4,2.4,0,0,1,365.6,576L354.4,576A2.4,2.4,0,0,0,352,578.4L352,589.6A2.4,2.4,0,0,1,349.6,592L338.4,592A2.4,2.4,0,0,1,336,589.6L336,578.4A2.4,2.4,0,0,0,333.6,576L322.4,576A2.4,2.4,0,0,0,320,578.4L320,589.6A2.4,2.4,0,0,1,317.6,592L304,592L290.4,592A2.4,2.4,0,0,1,288,589.6L288,578.4A2.4,2.4,0,0,0,285.6,576L272,576L258.4,576A2.4,2.4,0,0,0,256,578.4L256,589.6A2.4,2.4,0,0,1,253.6,592L242.4,592A2.4,2.4,0,0,1,240,589.6L240,578.4A2.4,2.4,0,0,0,237.6,576L226.4,576A2.4,2.4,0,0,1,224,573.6L224,562.4A2.4,2.4,0,0,1,226.4,560L240,560L253.6,560A2.4,2.4,0,0,0,256,557.6L256,544L256,530.4A2.4,2.4,0,0,0,253.6,528L240,528L224,528L210.4,528A2.4,2.4,0,0,1,208,525.6L208,514.4A2.4,2.4,0,0,1,210.4,512M210.4,544L221.6,544A2.4,2.4,0,0,1,224,546.4L224,557.6A2.4,2.4,0,0,1,221.6,560L210.4,560A2.4,2.4,0,0,1,208,557.6L208,546.4A2.4,2.4,0,0,1,210.4,544M210.4,576L221.6,576A2.4,2.4,0,0,1,224,578.4L224,589.6A2.4,2.4,0,0,1,221.6,592L210.4,592A2.4,2.4,0,0,1,208,589.6L208,578.4A2.4,2.4,0,0,1,210.4,576M226.4,320L240,320L253.6,320A2.4,2.4,0,0,1,256,322.4L256,333.6A2.4,2.4,0,0,1,253.6,336L240,336L226.4,336A2.4,2.4,0,0,1,224,333.6L224,322.4A2.4,2.4,0,0,1,226.4,320M242.4,64L256,64L269.6,64A2.4,2.4,0,0,1,272,66.4L272,77.6A2.4,2.4,0,0,1,269.6,80L258.4,80A2.4,2.4,0,0,0,256,82.4L256,93.6A2.4,2.4,0,0,1,253.6,96L242.4,96A2.4,2.4,0,0,1,240,93.6L240,80L240,66.4A2.4,2.4,0,0,1,242.4,64M242.4,384L253.6,384A2.4,2.4,0,0,1,256,386.4L256,400L256,413.6A2.4,2.4,0,0,1,253.6,416L242.4,416A2.4,2.4,0,0,1,240,413.6L240,400L240,386.4A2.4,2.4,0,0,1,242.4,384M258.4,96L269.6,96A2.4,2.4,0,0,1,272,98.4L272,109.6A2.4,2.4,0,0,0,274.4,112L285.6,112A2.4,2.4,0,0,1,288,114.4L288,125.6A2.4,2.4,0,0,1,285.6,128L272,128L258.4,128A2.4,2.4,0,0,1,256,125.6L256,112L256,98.4A2.4,2.4,0,0,1,258.4,96M258.4,224L269.6,224A2.4,2.4,0,0,0,272,221.6L272,210.4A2.4,2.4,0,0,1,274.4,208L285.6,208A2.4,2.4,0,0,1,288,210.4L288,224L288,237.6A2.4,2.4,0,0,1,285.6,240L274.4,240A2.4,2.4,0,0,0,272,242.4L272,253.6A2.4,2.4,0,0,1,269.6,256L258.4,256A2.4,2.4,0,0,1,256,253.6L256,240L256,226.4A2.4,2.4,0,0,1,258.4,224M258.4,288L272,288L288,288L304,288L317.6,288A2.4,2.4,0,0,1,320,290.4L320,301.6A2.4,2.4,0,0,1,317.6,304L304,304L288,304L274.4,304A2.4,2.4,0,0,0,272,306.4L272,317.6A2.4,2.4,0,0,1,269.6,320L258.4,320A2.4,2.4,0,0,1,256,317.6L256,304L256,290.4A2.4,2.4,0,0,1,258.4,288M274.4,80L288,80L301.6,80A2.4,2.4,0,0,1,304,82.4L304,93.6A2.4,2.4,0,0,1,301.6,96L288,96L274.4,96A2.4,2.4,0,0,1,272,93.6L272,82.4A2.4,2.4,0,0,1,274.4,80M274.4,400L285.6,400A2.4,2.4,0,0,1,288,402.4L288,413.6A2.4,2.4,0,0,1,285.6,416L274.4,416A2.4,2.4,0,0,1,272,413.6L272,402.4A2.4,2.4,0,0,1,274.4,400M274.4,496L285.6,496A2.4,2.4,0,0,1,288,498.4L288,509.6A2.4,2.4,0,0,1,285.6,512L274.4,512A2.4,2.4,0,0,1,272,509.6L272,498.4A2.4,2.4,0,0,1,274.4,496M290.4,240L301.6,240A2.4,2.4,0,0,0,304,237.6L304,226.4A2.4,2.4,0,0,1,306.4,224L317.6,224A2.4,2.4,0,0,1,320,226.4L320,240L320,253.6A2.4,2.4,0,0,1,317.6,256L306.4,256A2.4,2.4,0,0,0,304,258.4L304,269.6A2.4,2.4,0,0,1,301.6,272L290.4,272A2.4,2.4,0,0,1,288,269.6L288,256L288,242.4A2.4,2.4,0,0,1,290.4,240M320,370.4L320,381.6A2.4,2.4,0,0,0,322.4,384L333.6,384A2.4,2.4,0,0,0,336,381.6L336,370.4A2.4,2.4,0,0,0,333.6,368L322.4,368A2.4,2.4,0,0,0,320,370.4M322.4,64L333.6,64A2.4,2.4,0,0,1,336,66.4L336,77.6A2.4,2.4,0,0,0,338.4,80L349.6,80A2.4,2.4,0,0,1,352,82.4L352,93.6A2.4,2.4,0,0,0,354.4,96L365.6,96A2.4,2.4,0,0,1,368,98.4L368,109.6A2.4,2.4,0,0,1,365.6,112L352,112L338.4,112A2.4,2.4,0,0,1,336,109.6L336,98.4A2.4,2.4,0,0,0,333.6,96L322.4,96A2.4,2.4,0,0,1,320,93.6L320,80L320,66.4A2.4,2.4,0,0,1,322.4,64M322.4,160L333.6,160A2.4,2.4,0,0,1,336,162.4L336,176L336,189.6A2.4,2.4,0,0,1,333.6,192L322.4,192A2.4,2.4,0,0,1,320,189.6L320,176L320,162.4A2.4,2.4,0,0,1,322.4,160M322.4,208L333.6,208A2.4,2.4,0,0,1,336,210.4L336,221.6A2.4,2.4,0,0,1,333.6,224L322.4,224A2.4,2.4,0,0,1,320,221.6L320,210.4A2.4,2.4,0,0,1,322.4,208M338.4,224L349.6,224A2.4,2.4,0,0,1,352,226.4L352,237.6A2.4,2.4,0,0,0,354.4,240L365.6,240A2.4,2.4,0,0,1,368,242.4L368,253.6A2.4,2.4,0,0,0,370.4,256L381.6,256A2.4,2.4,0,0,0,384,253.6L384,240L384,226.4A2.4,2.4,0,0,0,381.6,224L370.4,224A2.4,2.4,0,0,1,368,221.6L368,208L368,194.4A2.4,2.4,0,0,1,370.4,192L384,192L397.6,192A2.4,2.4,0,0,1,400,194.4L400,208L400,224L400,240L400,253.6A2.4,2.4,0,0,0,402.4,256L416,256L432,256L445.6,256A2.4,2.4,0,0,0,448,253.6L448,240L448,226.4A2.4,2.4,0,0,1,450.4,224L461.6,224A2.4,2.4,0,0,0,464,221.6L464,210.4A2.4,2.4,0,0,1,466.4,208L477.6,208A2.4,2.4,0,0,1,480,210.4L480,221.6A2.4,2.4,0,0,0,482.4,224L493.6,224A2.4,2.4,0,0,0,496,221.6L496,210.4A2.4,2.4,0,0,1,498.4,208L509.6,208A2.4,2.4,0,0,0,512,205.6L512,194.4A2.4,2.4,0,0,1,514.4,192L525.6,192A2.4,2.4,0,0,1,528,194.4L528,205.6A2.4,2.4,0,0,0,530.4,208L541.6,208A2.4,2.4,0,0,1,544,210.4L544,224L544,237.6A2.4,2.4,0,0,0,546.4,240L557.6,240A2.4,2.4,0,0,1,560,242.4L560,253.6A2.4,2.4,0,0,0,562.4,256L573.6,256A2.4,2.4,0,0,0,576,253.6L576,242.4A2.4,2.4,0,0,1,578.4,240L589.6,240A2.4,2.4,0,0,1,592,242.4L592,256L592,272L592,285.6A2.4,2.4,0,0,1,589.6,288L578.4,288A2.4,2.4,0,0,1,576,285.6L576,274.4A2.4,2.4,0,0,0,573.6,272L560,272L546.4,272A2.4,2.4,0,0,0,544,274.4L544,288L544,301.6A2.4,2.4,0,0,0,546.4,304L557.6,304A2.4,2.4,0,0,0,560,301.6L560,290.4A2.4,2.4,0,0,1,562.4,288L573.6,288A2.4,2.4,0,0,1,576,290.4L576,301.6A2.4,2.4,0,0,0,578.4,304L589.6,304A2.4,2.4,0,0,1,592,306.4L592,317.6A2.4,2.4,0,0,1,589.6,320L576,320L560,320L546.4,320A2.4,2.4,0,0,0,544,322.4L544,333.6A2.4,2.4,0,0,1,541.6,336L528,336L514.4,336A2.4,2.4,0,0,0,512,338.4L512,349.6A2.4,2.4,0,0,0,514.4,352L528,352L544,352L557.6,352A2.4,2.4,0,0,1,560,354.4L560,365.6A2.4,2.4,0,0,0,562.4,368L573.6,368A2.4,2.4,0,0,0,576,365.6L576,352L576,338.4A2.4,2.4,0,0,1,578.4,336L589.6,336A2.4,2.4,0,0,1,592,338.4L592,352L592,368L592,384L592,400L592,413.6A2.4,2.4,0,0,1,589.6,416L578.4,416A2.4,2.4,0,0,0,576,418.4L576,432L576,445.6A2.4,2.4,0,0,1,573.6,448L560,448L544,448L530.4,448A2.4,2.4,0,0,1,528,445.6L528,432L528,418.4A2.4,2.4,0,0,1,530.4,416L544,416L557.6,416A2.4,2.4,0,0,0,560,413.6L560,400L560,386.4A2.4,2.4,0,0,0,557.6,384L546.4,384A2.4,2.4,0,0,0,544,386.4L544,397.6A2.4,2.4,0,0,1,541.6,400L530.4,400A2.4,2.4,0,0,0,528,402.4L528,413.6A2.4,2.4,0,0,1,525.6,416L514.4,416A2.4,2.4,0,0,1,512,413.6L512,402.4A2.4,2.4,0,0,0,509.6,400L498.4,400A2.4,2.4,0,0,1,496,397.6L496,386.4A2.4,2.4,0,0,0,493.6,384L482.4,384A2.4,2.4,0,0,1,480,381.6L480,370.4A2.4,2.4,0,0,0,477.6,368L466.4,368A2.4,2.4,0,0,1,464,365.6L464,354.4A2.4,2.4,0,0,1,466.4,352L477.6,352A2.4,2.4,0,0,0,480,349.6L480,338.4A2.4,2.4,0,0,1,482.4,336L493.6,336A2.4,2.4,0,0,0,496,333.6L496,322.4A2.4,2.4,0,0,0,493.6,320L482.4,320A2.4,2.4,0,0,0,480,322.4L480,333.6A2.4,2.4,0,0,1,477.6,336L466.4,336A2.4,2.4,0,0,1,464,333.6L464,322.4A2.4,2.4,0,0,0,461.6,320L450.4,320A2.4,2.4,0,0,1,448,317.6L448,306.4A2.4,2.4,0,0,1,450.4,304L461.6,304A2.4,2.4,0,0,0,464,301.6L464,290.4A2.4,2.4,0,0,1,466.4,288L477.6,288A2.4,2.4,0,0,1,480,290.4L480,301.6A2.4,2.4,0,0,0,482.4,304L496,304L509.6,304A2.4,2.4,0,0,1,512,306.4L512,317.6A2.4,2.4,0,0,0,514.4,320L525.6,320A2.4,2.4,0,0,0,528,317.6L528,306.4A2.4,2.4,0,0,0,525.6,304L514.4,304A2.4,2.4,0,0,1,512,301.6L512,290.4A2.4,2.4,0,0,1,514.4,288L525.6,288A2.4,2.4,0,0,0,528,285.6L528,272L528,256L528,240L528,226.4A2.4,2.4,0,0,0,525.6,224L514.4,224A2.4,2.4,0,0,0,512,226.4L512,240L512,253.6A2.4,2.4,0,0,1,509.6,256L498.4,256A2.4,2.4,0,0,0,496,258.4L496,269.6A2.4,2.4,0,0,0,498.4,272L509.6,272A2.4,2.4,0,0,1,512,274.4L512,285.6A2.4,2.4,0,0,1,509.6,288L496,288L482.4,288A2.4,2.4,0,0,1,480,285.6L480,272L480,256L480,242.4A2.4,2.4,0,0,0,477.6,240L466.4,240A2.4,2.4,0,0,0,464,242.4L464,256L464,272L464,285.6A2.4,2.4,0,0,1,461.6,288L448,288L434.4,288A2.4,2.4,0,0,1,432,285.6L432,274.4A2.4,2.4,0,0,0,429.6,272L418.4,272A2.4,2.4,0,0,0,416,274.4L416,285.6A2.4,2.4,0,0,1,413.6,288L402.4,288A2.4,2.4,0,0,1,400,285.6L400,274.4A2.4,2.4,0,0,0,397.6,272L384,272L368,272L352,272L338.4,272A2.4,2.4,0,0,1,336,269.6L336,256L336,240L336,226.4A2.4,2.4,0,0,1,338.4,224M338.4,304L349.6,304A2.4,2.4,0,0,0,352,301.6L352,290.4A2.4,2.4,0,0,1,354.4,288L368,288L384,288L397.6,288A2.4,2.4,0,0,1,400,290.4L400,304L400,317.6A2.4,2.4,0,0,1,397.6,320L386.4,320A2.4,2.4,0,0,1,384,317.6L384,306.4A2.4,2.4,0,0,0,381.6,304L370.4,304A2.4,2.4,0,0,0,368,306.4L368,317.6A2.4,2.4,0,0,0,370.4,320L381.6,320A2.4,2.4,0,0,1,384,322.4L384,336L384,352L384,365.6A2.4,2.4,0,0,0,386.4,368L397.6,368A2.4,2.4,0,0,1,400,370.4L400,381.6A2.4,2.4,0,0,0,402.4,384L416,384L429.6,384A2.4,2.4,0,0,1,432,386.4L432,397.6A2.4,2.4,0,0,0,434.4,400L445.6,400A2.4,2.4,0,0,1,448,402.4L448,413.6A2.4,2.4,0,0,1,445.6,416L434.4,416A2.4,2.4,0,0,0,432,418.4L432,429.6A2.4,2.4,0,0,1,429.6,432L416,432L400,432L386.4,432A2.4,2.4,0,0,1,384,429.6L384,416L384,402.4A2.4,2.4,0,0,0,381.6,400L370.4,400A2.4,2.4,0,0,1,368,397.6L368,384L368,368L368,354.4A2.4,2.4,0,0,0,365.6,352L354.4,352A2.4,2.4,0,0,1,352,349.6L352,336L352,322.4A2.4,2.4,0,0,0,349.6,320L338.4,320A2.4,2.4,0,0,1,336,317.6L336,306.4A2.4,2.4,0,0,1,338.4,304M354.4,64L365.6,64A2.4,2.4,0,0,1,368,66.4L368,77.6A2.4,2.4,0,0,1,365.6,80L354.4,80A2.4,2.4,0,0,1,352,77.6L352,66.4A2.4,2.4,0,0,1,354.4,64M354.4,160L365.6,160A2.4,2.4,0,0,1,368,162.4L368,173.6A2.4,2.4,0,0,1,365.6,176L354.4,176A2.4,2.4,0,0,1,352,173.6L352,162.4A2.4,2.4,0,0,1,354.4,160M354.4,464L365.6,464A2.4,2.4,0,0,1,368,466.4L368,477.6A2.4,2.4,0,0,1,365.6,480L354.4,480A2.4,2.4,0,0,1,352,477.6L352,466.4A2.4,2.4,0,0,1,354.4,464M370.4,80L381.6,80A2.4,2.4,0,0,1,384,82.4L384,93.6A2.4,2.4,0,0,1,381.6,96L370.4,96A2.4,2.4,0,0,1,368,93.6L368,82.4A2.4,2.4,0,0,1,370.4,80M370.4,112L381.6,112A2.4,2.4,0,0,1,384,114.4L384,125.6A2.4,2.4,0,0,1,381.6,128L370.4,128A2.4,2.4,0,0,1,368,125.6L368,114.4A2.4,2.4,0,0,1,370.4,112M370.4,144L381.6,144A2.4,2.4,0,0,1,384,146.4L384,157.6A2.4,2.4,0,0,1,381.6,160L370.4,160A2.4,2.4,0,0,1,368,157.6L368,146.4A2.4,2.4,0,0,1,370.4,144M370.4,432L381.6,432A2.4,2.4,0,0,1,384,434.4L384,445.6A2.4,2.4,0,0,1,381.6,448L370.4,448A2.4,2.4,0,0,1,368,445.6L368,434.4A2.4,2.4,0,0,1,370.4,432M386.4,64L397.6,64A2.4,2.4,0,0,1,400,66.4L400,77.6A2.4,2.4,0,0,1,397.6,80L386.4,80A2.4,2.4,0,0,1,384,77.6L384,66.4A2.4,2.4,0,0,1,386.4,64M386.4,96L397.6,96A2.4,2.4,0,0,0,400,93.6L400,82.4A2.4,2.4,0,0,1,402.4,80L413.6,80A2.4,2.4,0,0,0,416,77.6L416,66.4A2.4,2.4,0,0,1,418.4,64L429.6,64A2.4,2.4,0,0,1,432,66.4L432,80L432,93.6A2.4,2.4,0,0,0,434.4,96L445.6,96A2.4,2.4,0,0,0,448,93.6L448,80L448,66.4A2.4,2.4,0,0,1,450.4,64L461.6,64A2.4,2.4,0,0,1,464,66.4L464,80L464,96L464,109.6A2.4,2.4,0,0,1,461.6,112L450.4,112A2.4,2.4,0,0,0,448,114.4L448,128L448,141.6A2.4,2.4,0,0,1,445.6,144L434.4,144A2.4,2.4,0,0,1,432,141.6L432,128L432,114.4A2.4,2.4,0,0,0,429.6,112L416,112L400,112L386.4,112A2.4,2.4,0,0,1,384,109.6L384,98.4A2.4,2.4,0,0,1,386.4,96M386.4,128L400,128L413.6,128A2.4,2.4,0,0,1,416,130.4L416,144L416,157.6A2.4,2.4,0,0,1,413.6,160L402.4,160A2.4,2.4,0,0,1,400,157.6L400,146.4A2.4,2.4,0,0,0,397.6,144L386.4,144A2.4,2.4,0,0,1,384,141.6L384,130.4A2.4,2.4,0,0,1,386.4,128M386.4,160L397.6,160A2.4,2.4,0,0,1,400,162.4L400,173.6A2.4,2.4,0,0,1,397.6,176L386.4,176A2.4,2.4,0,0,1,384,173.6L384,162.4A2.4,2.4,0,0,1,386.4,160M386.4,448L397.6,448A2.4,2.4,0,0,1,400,450.4L400,461.6A2.4,2.4,0,0,1,397.6,464L386.4,464A2.4,2.4,0,0,1,384,461.6L384,450.4A2.4,2.4,0,0,1,386.4,448M386.4,560L397.6,560A2.4,2.4,0,0,0,400,557.6L400,546.4A2.4,2.4,0,0,1,402.4,544L413.6,544A2.4,2.4,0,0,1,416,546.4L416,560L416,573.6A2.4,2.4,0,0,1,413.6,576L402.4,576A2.4,2.4,0,0,0,400,578.4L400,589.6A2.4,2.4,0,0,1,397.6,592L386.4,592A2.4,2.4,0,0,1,384,589.6L384,576L384,562.4A2.4,2.4,0,0,1,386.4,560M402.4,464L413.6,464A2.4,2.4,0,0,1,416,466.4L416,477.6A2.4,2.4,0,0,1,413.6,480L402.4,480A2.4,2.4,0,0,1,400,477.6L400,466.4A2.4,2.4,0,0,1,402.4,464M418.4,160L429.6,160A2.4,2.4,0,0,1,432,162.4L432,173.6A2.4,2.4,0,0,1,429.6,176L418.4,176A2.4,2.4,0,0,1,416,173.6L416,162.4A2.4,2.4,0,0,1,418.4,160M418.4,192L429.6,192A2.4,2.4,0,0,1,432,194.4L432,208L432,221.6A2.4,2.4,0,0,1,429.6,224L418.4,224A2.4,2.4,0,0,1,416,221.6L416,208L416,194.4A2.4,2.4,0,0,1,418.4,192M418.4,288L429.6,288A2.4,2.4,0,0,1,432,290.4L432,301.6A2.4,2.4,0,0,1,429.6,304L418.4,304A2.4,2.4,0,0,1,416,301.6L416,290.4A2.4,2.4,0,0,1,418.4,288M434.4,320L445.6,320A2.4,2.4,0,0,1,448,322.4L448,333.6A2.4,2.4,0,0,0,450.4,336L461.6,336A2.4,2.4,0,0,1,464,338.4L464,349.6A2.4,2.4,0,0,1,461.6,352L450.4,352A2.4,2.4,0,0,0,448,354.4L448,365.6A2.4,2.4,0,0,0,450.4,368L461.6,368A2.4,2.4,0,0,1,464,370.4L464,381.6A2.4,2.4,0,0,1,461.6,384L448,384L434.4,384A2.4,2.4,0,0,1,432,381.6L432,368L432,352L432,336L432,322.4A2.4,2.4,0,0,1,434.4,320M434.4,560L445.6,560A2.4,2.4,0,0,1,448,562.4L448,573.6A2.4,2.4,0,0,0,450.4,576L461.6,576A2.4,2.4,0,0,1,464,578.4L464,589.6A2.4,2.4,0,0,1,461.6,592L448,592L434.4,592A2.4,2.4,0,0,1,432,589.6L432,576L432,562.4A2.4,2.4,0,0,1,434.4,560M450.4,160L461.6,160A2.4,2.4,0,0,1,464,162.4L464,176L464,192L464,205.6A2.4,2.4,0,0,1,461.6,208L450.4,208A2.4,2.4,0,0,1,448,205.6L448,192L448,176L448,162.4A2.4,2.4,0,0,1,450.4,160M464,466.4L464,480L464,496L464,509.6A2.4,2.4,0,0,0,466.4,512L480,512L496,512L509.6,512A2.4,2.4,0,0,0,512,509.6L512,496L512,480L512,466.4A2.4,2.4,0,0,0,509.6,464L496,464L480,464L466.4,464A2.4,2.4,0,0,0,464,466.4M466.4,400L477.6,400A2.4,2.4,0,0,1,480,402.4L480,413.6A2.4,2.4,0,0,1,477.6,416L466.4,416A2.4,2.4,0,0,1,464,413.6L464,402.4A2.4,2.4,0,0,1,466.4,400M466.4,560L480,560L493.6,560A2.4,2.4,0,0,1,496,562.4L496,573.6A2.4,2.4,0,0,1,493.6,576L480,576L466.4,576A2.4,2.4,0,0,1,464,573.6L464,562.4A2.4,2.4,0,0,1,466.4,560M482.4,192L493.6,192A2.4,2.4,0,0,1,496,194.4L496,205.6A2.4,2.4,0,0,1,493.6,208L482.4,208A2.4,2.4,0,0,1,480,205.6L480,194.4A2.4,2.4,0,0,1,482.4,192M482.4,480L493.6,480A2.4,2.4,0,0,1,496,482.4L496,493.6A2.4,2.4,0,0,1,493.6,496L482.4,496A2.4,2.4,0,0,1,480,493.6L480,482.4A2.4,2.4,0,0,1,482.4,480M546.4,192L557.6,192A2.4,2.4,0,0,1,560,194.4L560,205.6A2.4,2.4,0,0,1,557.6,208L546.4,208A2.4,2.4,0,0,1,544,205.6L544,194.4A2.4,2.4,0,0,1,546.4,192M546.4,464L557.6,464A2.4,2.4,0,0,1,560,466.4L560,477.6A2.4,2.4,0,0,1,557.6,480L546.4,480A2.4,2.4,0,0,1,544,477.6L544,466.4A2.4,2.4,0,0,1,546.4,464M546.4,528L557.6,528A2.4,2.4,0,0,1,560,530.4L560,541.6A2.4,2.4,0,0,1,557.6,544L546.4,544A2.4,2.4,0,0,1,544,541.6L544,530.4A2.4,2.4,0,0,1,546.4,528M562.4,224L573.6,224A2.4,2.4,0,0,1,576,226.4L576,237.6A2.4,2.4,0,0,1,573.6,240L562.4,240A2.4,2.4,0,0,1,560,237.6L560,226.4A2.4,2.4,0,0,1,562.4,224M578.4,192L589.6,192A2.4,2.4,0,0,1,592,194.4L592,205.6A2.4,2.4,0,0,1,589.6,208L578.4,208A2.4,2.4,0,0,1,576,205.6L576,194.4A2.4,2.4,0,0,1,578.4,192M578.4,464L589.6,464A2.4,2.4,0,0,1,592,466.4L592,477.6A2.4,2.4,0,0,1,589.6,480L578.4,480A2.4,2.4,0,0,1,576,477.6L576,466.4A2.4,2.4,0,0,1,578.4,464Z" />
<path d="M4.7253,9.0689C6.179,9.0436 6.4149,7.6154 6.4149,6.769C6.4149,5.5163 5.775,5.0788 5,5C4.0425,5.4242 3.3403,6.146 3.2555,7.2606C3.2416,7.4443 3.237,7.6894 3.2516,7.9757C3.2906,8.7383 3.8493,9.0843 4.7253,9.0689 M 12.2447 10.8068 C 11.2047 10.8068 10.1118 10.1673 10.06 8.9707 C 8.8774 10.2223 7.0538 10.8186 4.7253 10.8186 C 2.3769 10.8186 1.396 9.2175 1.396 7.9703 C 1.4554 3.8126 1.3605 2.255 1.341 1.9353 C 1.3393 1.907 1.3381 1.8884 1.3377 1.8785 L 1.3373 1.8677 C 1.3313 1.7096 1.3224 1.4733 1.172 1.4572 C 1.0786 1.4472 1.0183 1.4757 0.911 1.6094 C 0.75 1.8233 0.425 1.908 0.2273 1.7937 C -0.0116 1.6555 -0.0562 1.3505 0.0647 1.0697 C 0.4002 0.3212 0.9379 -0.01 1.6625 0.0003 C 2.9146 0.0182 3.2738 0.8359 3.2738 1.8575 C 3.2738 1.8575 3.246 3.3292 3.246 4.1579 C 3.689 3.7969 4.3397 3.4098 5.4266 3.4098 C 7.6899 3.4098 9.1267 6.2118 7.6503 8.8925 C 9.5428 8.0197 9.9378 6.5164 10.0112 5.0238 L 10.0043 4.5203 C 10.0043 3.9552 10.3688 3.4767 10.9361 3.4767 C 11.5034 3.4767 11.8802 3.9877 11.86 4.5271 C 11.7919 6.3438 11.7644 7.5395 11.7644 8.1722 C 11.7644 8.5384 11.9642 9.0996 12.5555 9.0996 C 13.7134 9.0996 14.094 8.1922 14.1838 6.0595 C 14.1885 5.2642 14.1927 4.5997 14.1927 4.5997 C 13.6679 4.5997 13.4094 4.324 13.4094 3.9795 C 13.4094 3.635 13.683 3.3163 14.1321 3.3163 C 14.1321 3.3163 14.133 2.1182 14.133 1.622 C 14.133 1.0569 14.5715 0.5883 15.1388 0.5883 C 15.7062 0.5883 16.1567 1.0569 16.1567 1.622 C 16.1567 1.8095 16.1495 2.028 16.1416 2.2695 C 16.1315 2.5784 16.1201 2.9246 16.121 3.2909 L 16.2032 3.2905 H 16.2032 C 16.357 3.29 16.7051 3.2888 17.1681 3.2834 C 17.7198 3.2769 17.9445 3.5851 17.9445 3.9709 C 17.9445 4.3567 17.6475 4.626 17.2602 4.6276 C 16.9012 4.6291 16.1083 4.6247 16.1083 4.6247 C 16.0723 5.7674 16.0382 7.1451 16.0382 8.2475 C 16.0382 8.6451 16.3126 9.0995 16.9767 9.0995 C 18.3163 9.0995 18.8167 7.9092 18.9173 5.6498 C 18.9095 4.0766 18.8907 3.1653 18.8765 2.4785 V 2.4785 C 18.8666 1.9969 18.859 1.6258 18.859 1.2143 C 18.859 0.6493 19.3295 0.1442 19.8967 0.1442 C 20.4641 0.1442 20.8826 0.5977 20.8826 1.1627 C 20.8826 1.598 20.8651 2.1069 20.8413 2.8009 V 2.8009 V 2.801 C 20.801 3.9747 20.7425 5.6778 20.7195 8.4504 C 20.7165 8.8195 20.8967 9.0795 21.3748 9.0795 C 22.6524 9.0795 23.0066 7.6955 23.119 5.7625 C 23.1197 5.6695 23.1205 5.5785 23.1214 5.4891 L 23.1214 5.4887 C 23.1231 5.3054 23.1247 5.1289 23.1247 4.9561 C 23.1247 4.391 23.5011 3.9337 24.0686 3.9337 C 24.6359 3.9337 24.9694 4.4022 24.9694 4.9673 C 24.9694 5.3698 24.9562 5.7464 24.9427 6.1348 C 24.9307 6.4777 24.9184 6.8299 24.9146 7.2176 C 24.9047 8.2151 25.2455 9.0938 26.0756 9.0914 C 26.8726 9.0891 27.7479 8.7536 27.7691 7.045 C 27.7751 6.5701 27.7683 6.2053 27.7615 5.8371 V 5.837 V 5.8369 V 5.8368 C 27.7564 5.5642 27.7513 5.2897 27.7513 4.9673 C 27.7513 4.4022 28.1451 3.9337 28.7125 3.9337 C 29.2795 3.9337 29.6737 4.4022 29.6737 4.9673 C 29.6737 5.3051 29.6614 5.6415 29.6477 6.0145 V 6.0145 V 6.0146 V 6.0146 C 29.6307 6.4783 29.6117 6.9984 29.6117 7.6477 C 29.6117 7.6477 29.5769 10.0141 29.66 10.5378 C 29.9203 10.4512 30.2958 10.1968 30.6935 9.5802 C 30.9337 9.208 31.3928 9.1282 31.6758 9.293 C 32.0653 9.52 32.0514 9.9635 31.9058 10.2875 C 31.5298 11.1239 31.0409 11.6358 29.8047 12.0595 C 29.8086 13.4782 29.7098 15.5713 27.0868 15.9496 C 24.8405 16.2735 23.8244 14.9708 23.8211 13.8623 C 23.8157 12.112 25.5649 11.6022 28.0897 10.9665 L 28.0087 10.099 C 28.0087 10.099 27.4464 10.8364 26.0215 10.8008 C 24.9223 10.7733 24.1663 10.2543 23.7077 9.5213 C 23.1787 10.3901 22.3495 10.8105 21.1004 10.8105 C 20.2775 10.8105 19.4934 10.3758 19.1051 9.7457 C 18.5325 10.4308 17.7339 10.8015 16.6607 10.8015 C 15.7256 10.8015 15.0346 10.4786 14.6209 9.9746 C 14.087 10.5712 13.318 10.8068 12.2447 10.8068 Z M 28.2548 12.363 C 26.9786 12.6385 25.3798 13.0407 25.3983 13.8266 C 25.4158 14.5636 26.1767 14.6977 26.8111 14.5666 C 28.1286 14.2943 28.2816 13.5015 28.2548 12.363 Z M 11.9704 1.6249 C 11.9704 1.0544 11.5073 0.5932 10.9347 0.5932 C 10.3619 0.5932 9.8989 1.0544 9.8989 1.6249 C 9.8989 2.1953 10.3619 2.6566 10.9347 2.6566 C 11.5073 2.6566 11.9704 2.1953 11.9704 1.6249 Z" fill='#000000' transform='translate(520.000000, 556.000000) scale(2.250000, 2.250000)' />
</g>
<g id='corners-outer-1' transform="translate(64, 64) scale(5.60, 5.60) " style='fill:#000000' >
<path d="M 17.14 0 H 2 C 0.9 0 0 0.9 0 2 V 18 C 0 19.1 0.9 20 2 20 H 18 C 19.1 20 20 19.1 20 18 V 2 C 20 0.9 19.1 0 18 0 H 17.14 Z M 17.14 5.71 V 15.14 C 17.14 16.25 16.25 17.14 15.14 17.14 H 4.86 C 3.75 17.14 2.86 16.25 2.86 15.14 V 4.86 C 2.86 3.75 3.75 2.86 4.86 2.86 H 15.14 C 16.25 2.86 17.14 3.75 17.14 4.86 V 5.71 Z" />
</g>
<g id='corners-inner-1' transform="translate(96, 96) scale(5.60, 5.60) " style='fill:#000000' >
<path d="M 5.64 0 H 1 C 0.45 0 0 0.45 0 1 V 7.46 C 0 8.01 0.45 8.46 1 8.46 H 7.46 C 8.01 8.46 8.46 8.01 8.46 7.46 V 1 C 8.46 0.45 8.01 0 7.46 0 H 5.64 Z" />
</g>
<g id='corners-outer-2' transform="translate(480, 64) scale(5.60, 5.60) " style='fill:#000000' >
<path d="M 17.14 0 H 2 C 0.9 0 0 0.9 0 2 V 18 C 0 19.1 0.9 20 2 20 H 18 C 19.1 20 20 19.1 20 18 V 2 C 20 0.9 19.1 0 18 0 H 17.14 Z M 17.14 5.71 V 15.14 C 17.14 16.25 16.25 17.14 15.14 17.14 H 4.86 C 3.75 17.14 2.86 16.25 2.86 15.14 V 4.86 C 2.86 3.75 3.75 2.86 4.86 2.86 H 15.14 C 16.25 2.86 17.14 3.75 17.14 4.86 V 5.71 Z" />
</g>
<g id='corners-inner-2' transform="translate(512, 96) scale(5.60, 5.60) " style='fill:#000000' >
<path d="M 5.64 0 H 1 C 0.45 0 0 0.45 0 1 V 7.46 C 0 8.01 0.45 8.46 1 8.46 H 7.46 C 8.01 8.46 8.46 8.01 8.46 7.46 V 1 C 8.46 0.45 8.01 0 7.46 0 H 5.64 Z" />
</g>
<g id='corners-outer-3' transform="translate(64, 480) scale(5.60, 5.60) " style='fill:#000000' >
<path d="M 17.14 0 H 2 C 0.9 0 0 0.9 0 2 V 18 C 0 19.1 0.9 20 2 20 H 18 C 19.1 20 20 19.1 20 18 V 2 C 20 0.9 19.1 0 18 0 H 17.14 Z M 17.14 5.71 V 15.14 C 17.14 16.25 16.25 17.14 15.14 17.14 H 4.86 C 3.75 17.14 2.86 16.25 2.86 15.14 V 4.86 C 2.86 3.75 3.75 2.86 4.86 2.86 H 15.14 C 16.25 2.86 17.14 3.75 17.14 4.86 V 5.71 Z" />
</g>
<g id='corners-inner-3' transform="translate(96, 512) scale(5.60, 5.60) " style='fill:#000000' >
<path d="M 5.64 0 H 1 C 0.45 0 0 0.45 0 1 V 7.46 C 0 8.01 0.45 8.46 1 8.46 H 7.46 C 8.01 8.46 8.46 8.01 8.46 7.46 V 1 C 8.46 0.45 8.01 0 7.46 0 H 5.64 Z" />
</g>
</svg>
