<?xml version="1.0" encoding="UTF-8"?>
<svg id="Laag_2" data-name="Laag 2" xmlns="http://www.w3.org/2000/svg" viewBox="0 0 241.04 377.42">
  <defs>
    <style>
      .cls-1 {
        font-family: Munro, Munro;
        font-size: 15px;
      }
    </style>
  </defs>
  <g id="Laaggroep">
    <g id="Laaggroep-2" data-name="Laaggroep">
      <g id="Vectorlaag">
        <path d="M30.86,220.24c-5.37-.84-10.83-1.19-16.27-.98-1.84.04-3.68.03-5.52.09-3.64.73-3.68-2.01-3.75-4.8-.47-8.78.41-17.54.02-26.32.3-7.58.35-15.17,1.34-22.7.31-9.33.42-18.74-.33-28.05-.11-3.86-.08-7.73.07-11.59.22-1.36-.53-2.78.2-4.05,1.04-1.56,3.84-.22,5.37-.16,2.22.03,4.41.31,6.63.12,3.84-.52,7.67-1.13,11.54-1.39,2.7.11,2.09,2.18.56,1.5.14,3.62.62,7.22.56,10.85-.45,4.06-.57,8.12-.42,12.2-.19,5.99.45,11.95.53,17.94-.44,8.15.45,16.28.21,24.44.52,6.88.38,13.78.47,20.66.29,2.31.04,4.65.38,6.96-.07,1.78,1.35,5.47-1.58,5.28ZM31.27,218.92c.34-1.89-.33-4.15-.33-6.16-.02-3.62-.37-7.22-.16-10.84-.14-4.61-.09-9.24-.42-13.83-.12-3.28.08-6.56-.09-9.85-.13-4.65-.49-9.29-.2-13.93.03-4.92-.24-9.84-.52-14.76.14-3.92.01-7.85.1-11.77.7-5.3.52-10.63.25-15.96-4.87.23-9.64,1.49-14.52,1.42-1.18-.14-2.36-.2-3.55-.21-1.01-.15-2.01-.43-3.03-.48-.53-.13-1.18-.29-1.23.47.38,4.25-.13,8.56.05,12.84.06,3.69.63,7.33.49,11.01.06,5.96.18,11.93-.11,17.89-.86,8.35-1.28,16.73-1.34,25.12.31,8.19-.54,16.37-.05,24.56.18,1.34-.36,4.09,1.73,3.68,2.49-.16,4.97-.1,7.47-.16,5.17-.22,10.34.35,15.45.98Z"/>
        <path d="M14.06,181.38c-.14-4.69-.24-9.33.01-14.02-.21-4.41-.44-8.84-.02-13.24.27-3.02-.13-6.02-.2-9.04-.19-4.18-.14-8.38-.47-12.55-1.35-.59.26-1.89,1.01-.59.72,3.88.32,7.98.72,11.92.18,4.48.53,8.93.09,13.4-.16,3.14.01,6.29.21,9.43-.06,2.85-.19,5.7-.17,8.56.14,1.98.04,3.97.19,5.95.14.88-1.27,1.1-1.38.19Z"/>
        <path d="M20.09,212.09c-1.68-.93-4.42.26-5.43-1.74-.63-3.54-.16-7.24-.84-10.8-.48-1.16.76-2,1.23-.78.1.46.13.94.21,1.4.28,2.08.3,4.19.44,6.28.12,1.15-.18,2.41.27,3.5.82.45,1.91.31,2.84.36,1.12.28,2.2.72,3.37.43.48-3.86.39-7.78.13-11.65-.02-4.62-.41-9.24-.7-13.84-.24-3.48-.67-6.94-.78-10.42-.1-2.83.37-5.64.24-8.46-.32-4.94-.16-9.88-.06-14.82-.07-3.35-.49-6.68-.39-10.03-.01-1.51-.09-3.01-.06-4.51-.04-1.49.31-3.1-.24-4.51-1.4-1.5-2.68.04-4.34-.32-.82-.1-1.68-.01-2.39-.53-.67-.36-.07-1.44.6-1.03.85.46,1.96.36,2.91.33.87-.26,1.81-.8,2.71-.31,2.36.61,2.25,3.17,2.15,5.13-.09,1.97,0,3.95.02,5.92-.08,3.17.25,6.31.4,9.47-.16,5.55-.24,11.09.1,16.63-.75,7.32.39,14.66.78,21.96.43,5.27.49,10.58.61,15.87.11,1.67-.21,3.33-.31,5,.02,1.79-2.2,1.68-3.48,1.48Z"/>
        <path d="M17.56,182.62c0-.12.1-.21.21-.21s.21.1.21.21-.1.21-.21.21-.21-.1-.21-.21Z"/>
        <path d="M17.6,183.32c0-.09.08-.17.17-.17s.17.08.17.17-.08.17-.17.17-.17-.08-.17-.17Z"/>
        <path d="M16.21,198.61c-3.01.16-5.15-.06-4.82-3.7-.05-2.22-.28-4.45-.42-6.67-.38-2.95-1.04-8.75,3.66-7.63.76-.06,1.51.19,2.25.15,1.06-.39,2.32-.03,2.49,1.21,2.27,1.28,1.16,7.89,1.65,10.43-.2,4.85,1.44,6.69-4.82,6.2ZM17.51,197.28c.7-.19,1.61.17,2.19-.31-.07-1.53-.02-3.06-.02-4.6-.39-2.93.24-6.05-.62-8.88-1.04.48-1.23-.51-1.24-1.31-1.53.43-3.1-.26-4.62-.09-1.88.89-.52,5.55-.61,7.31-.03,1.41.18,2.8.27,4.2-.15,4.9.62,3.09,4.64,3.67Z"/>
        <path d="M65.55,204.34c-6.37-.44-12.74-.48-19.1-1.09-2.9-.73-6.77,3.06-6.31-2.26.03-5.48.28-10.94.43-16.41.15-4.06.03-8.13.42-12.19-.73-1.4,1.02-1.19,1.88-1.04,2.71-.11,5.36.5,8.07.47,3.34.36,6.68-.4,10.01-.16,1.03-.25,2.04-.22,3.07,0,1.03-.09,2.04-.26,3.05.11,3.28.44,2.59,4.25,2.49,6.65.11,2.98.01,5.9-.09,8.87.07,3.39.03,6.76.15,10.14-.02,2.99.26,7.51-4.05,6.9ZM65.85,202.9c2.27.47,2.35-2.14,2.33-3.76.03-1.34.09-2.69.01-4.03-.18-1.46-.1-2.93-.02-4.39,0-1.86-.2-3.81-.01-5.65.1-2.66-.07-5.32.07-7.97.27-3.89-.49-4.32-4.28-3.99-1.1-.26-2.15-.12-3.25,0-2.66-.25-5.34.32-8,.29-3.55-.15-7.06-.5-10.59-.67-.44,4.44-.12,8.88-.3,13.33-.06,5.5-.48,11.03-.27,16.51.45.06.83-.22,1.24-.36.7-.25,1.46-.26,2.19-.39,2.32.02,4.63.39,6.96.47,4.64.35,9.28.29,13.92.63Z"/>
        <path d="M50.48,196.04c-1.48.11-2.77-.55-3.91-1.41-1.33-.78-2.27-2.03-2.94-3.4-.43-1.15-.43-2.41-.51-3.62-.27-1.87.29-3.73,1.35-5.27.85-1.53,2.25-2.79,3.8-3.58,1.18-.38,2.4-.43,3.6-.64,1.51.09,3.01.27,4.49.6,2.39.86,3.86,3.39,4.6,5.7.87,4.29-.63,7.69-4.24,10.09-1.11.66-2.29,1.57-3.64,1.52-.87-.2-1.72.15-2.6.01ZM50.55,194.63c.94.09,1.85-.26,2.78-.05,1.26-.34,2.38-1.1,3.37-1.92,3.28-2.15,4.08-7.14,1.72-10.25-1.42-2.3-2.29-2.3-4.72-2.74-1.03-.07-2.06-.2-3.07.11-.91.09-1.81.15-2.54.74.12.31-.02.68-.33.81-.19.08-.41.05-.58-.05-.24.26-.47.66-.88.64-.9,1.27-1.76,2.69-1.9,4.28.05,1.49.05,3.03.47,4.47.61,1.33,1.59,2.44,2.91,3.09.75.69,1.76.94,2.76.87Z"/>
        <path d="M43.43,189.49c-.19-1.09,1.3-1.02,2.02-1.05.69-.14,1.4-.19,2.07-.4-.04-.58-.11-1.17-.1-1.75-1,.02-1.94.22-2.87.58-.79.23-1.14-1.01-.34-1.23.6-.16,1.16-.42,1.77-.54.89.07,2.35-.67,2.76.47.08.5,0,1.02.06,1.52.09.8.27,1.8-.66,2.16-1.09.42-2.28.48-3.43.62-.47.16-1.1.23-1.27-.38Z"/>
        <path d="M53.92,145.53c-.67-.08-1.35.02-2.02-.08-.84-.24-1.66-.56-2.5-.8-.66-.33-1.23-.84-1.87-1.22-.47-.4-.86-1-1.34-1.37-3.15-2.96-2.81-7.85-.49-11.21-.01-.28.17-.54.41-.7.45-.76,1.02-1.45,1.75-1.95.11-.49.86-.54.99-.04,1.74-.55,3.44-1.51,5.32-1.37,2.46.69,4.95,2.2,6.6,4.18,1.75,2.13,1.6,5.21,1.42,7.82-.41,2.58-2.24,4.62-4.41,5.94-1.19.61-2.58.66-3.88.79ZM53.04,144.04c1.39.02,2.74-.05,4.04-.54,1.85-1.15,3.39-2.8,3.71-5,.08-2.22.28-4.88-1.19-6.7-.73-1.02-1.79-1.66-2.83-2.29-1.38-1.01-3.18-1.74-4.82-.94-1.2.56-2.49.69-3.59,1.41-.56.52-1.01,1.21-1.72,1.53-1.52,2.48-2.09,5.6-.59,8.23.99,1.48,2.34,2.69,3.85,3.61,1.04.24,2.04.85,3.14.69Z"/>
        <path d="M48.08,134.29c-.58-.34-1.15-.68-1.68-1.09-.34-.02-.65-.13-.94-.3-.76-.42-.15-1.64.64-1.28,1.05.26,1.85.97,2.77,1.5.15-.48.37-.94.63-1.38-.73-.66-1.54-1.22-2.31-1.83-.65-.49.13-1.5.77-1,.75.6,1.55,1.15,2.28,1.76.44.15.84.51.76,1.01-.14.6-.58,1.08-.76,1.67-.22,1.49-.9,2-2.16.94Z"/>
        <path d="M59.73,156.01c-3.93-.21-7.88-.6-11.82-.46-1.69-.15-6.21.84-7.14-.64-.76-1.35-.84-2.84-.79-4.36-.02-2.22-.21-4.43-.1-6.65.07-3.36.13-6.66.23-10.02.18-3.14.41-6.28.28-9.42-.11-2.27,1.19-2.95,3.29-2.77,1.77.07,3.44.46,5.18.42,2.09.3,4.13-.39,6.22-.3,2.49-.46,5.02-.59,7.54-.18,1.92.33,5.05.3,5.3,2.81.28,2.63.13,5.29.18,7.93.21,7.33.81,14.73-.16,22.03-.21,1.91-1.9,1.32-3.25,1.44-1.66.03-3.31.19-4.97.16ZM60.23,154.53c2.08-.11,4.17-.17,6.24-.19.76-4.6.48-9.3.47-13.95.02-3.1-.44-6.16-.3-9.26.03-1.74,0-3.47-.04-5.21-.15-1.56.09-2.02-1.63-2.44-2.59-.53-5.31-.88-7.94-.5-1.09.2-2.18.32-3.29.31-1.57.17-3.16.53-4.75.28-2.29.15-4.63-.81-6.89-.32-.25.4-.02.97-.42,1.28.26,6.68-.36,13.36-.36,20.04-.06,1.68.01,3.37.11,5.05.06,1.5-.21,3.1.53,4.47,2.64.29,5.3-.1,7.95-.06,3.44.16,6.88.3,10.31.49Z"/>
        <path d="M109.47,155.37c-1.58-.25-3.13-.1-4.7,0-4.68-.45-9.39-.19-14.08-.3-2.16.22-5.58.21-5.32-2.81-.18-2.48-.13-4.92-.23-7.4-.2-4.99.24-9.95.51-14.92.17-1.4-.58-8.06,1.29-7.88,1.22-.99,2.84-.39,4.2-.06,1.68.13,3.36.4,5.04.32,5.13.28,10.22-1.55,15.32-.75,2.63.86,2.32,2.51,2.59,4.82.3,4.06-.33,8.11-.5,12.16-.08,3.67-.09,7.34-.07,11-.38,3.01.18,6.36-4.07,5.82ZM110.56,153.87c1.53.03,1.08-1.97,1.34-2.98.33-2.92.06-5.89.16-8.83-.09-6.02,1.12-12.03.26-18.03-.29-.89-1.41-1.09-2.24-1.1-.68-.21-1.34-.09-2.03-.03-.72-.06-1.4.08-2.1.18-2.61.02-5.17.83-7.77.73-2.59.04-5.22.01-7.78-.43-3.76-1.02-1.85.39-3.39,1.06-.17,3.61.2,7.25-.29,10.85-.28,4.77-.1,9.53.02,14.3.11.86-.19,3.37.51,3.8,2.28.53,4.68-.04,6.97.24,3.53-.08,7.07-.13,10.59.22.77.04,1.52-.18,2.3-.15,1.16-.04,2.3.23,3.46.16Z"/>
        <path d="M98.68,148.09c-2.23-.26-4.36-1.21-5.91-2.88-.92-1.22-2.2-2.2-2.92-3.54-1.15-2.35-.84-5.04-.09-7.46.64-1.5,1.24-3.02,2.45-4.17,1.12-1.34,2.89-1.88,4.6-1.59,5-.45,9.92,1.62,11.63,6.63,1.12,3.78.05,7.24-2.34,10.26-1.77,2.16-4.75,2.78-7.42,2.76ZM98.95,146.56c2.27-.04,4.88-.58,6.22-2.58,2.61-3.38,3.09-7.88.14-11.22-1.95-2.28-5.3-2.99-8.18-2.74-1.71-.22-3.07.04-4.12,1.51.06.28-.18.57-.47.56-.56.52-.39,1.84-1.43,1.68-.89,2.4-1.15,5.22.05,7.56,2.17,2.52,4.18,5.09,7.79,5.24Z"/>
        <path d="M103.12,138.5c-1.24-1.71-1.23-2.95.82-3.9.8-.43,1.51-1.01,2.39-1.29.78-.33,1.29.88.51,1.2-1.12.47-2.2,1.14-3.15,1.89.04.24.17.44.27.66,1.18-.62,2.84-1.42,4.12-.79.45.42.11,1.26-.51,1.23-1.76-.28-3.47,1.7-4.45.99Z"/>
        <path d="M154.01,156.18c-.67,0-1.33-.14-1.99-.23-.6,0-1.2,0-1.79-.15-.89-.17-1.82-.01-2.7-.28-1.49-.13-2.96-.36-4.45-.4-.91-.16-1.82-.16-2.74-.09-1.91-.2-3.83,0-5.75,0-2.87.14-3.4-1.3-3.37-3.86-.73-4.94-.63-9.94-.29-14.92.15-1.23.06-2.47.12-3.71.05-1.67.27-3.33.24-5-.59-.09-.65-.73-.54-1.21.03-.41-.06-.82-.11-1.23-.65-3.84,1.4-3.68,4.48-3.57,1.25.05,2.5.07,3.76,0,.98,0,1.95-.3,2.91.04,1.82.05,3.65.09,5.46.35.91-.02,1.8.01,2.69.18.54.04,1.08-.09,1.62-.1.54-.02,1.07.17,1.61.13,1.59-.17,3.26-.02,4.78.46.69.26.79,1.14.71,1.75-.05,1.01-.12,2.02-.14,3.02-.16,2.39-.09,4.78-.04,7.18-.02,3.43-.1,6.88.18,10.3.12.96.12,1.93.14,2.9.11,1.16.32,2.31.3,3.48,0,1.1.1,2.35-.67,3.23-1.06,1.27-2.81,1.74-4.41,1.72ZM154.67,154.78c3.17-.43,3.19-1.76,3.02-4.54-.3-2.22-.31-4.45-.52-6.68-.07-3.02-.13-6.03-.07-9.05-.19-3.57.04-7.14.18-10.7-.89-.24-1.82-.28-2.73-.4-.93.02-1.86.17-2.79-.05-.56-.02-1.11.14-1.67.12-1-.12-1.98-.22-2.99-.2-1.77-.25-3.55-.3-5.33-.33-.75-.21-1.49-.22-2.26-.06-.69.03-1.37.05-2.06.11-1.28-.01-2.57-.09-3.83-.07-.54.04-1.16-.12-1.62.23,0,.06-.01.11-.02.17.76.21.4,2.24.47,2.9.05,2.25-.05,4.5-.15,6.75,0,4.83-.64,9.66-.19,14.49.04,1.12.32,2.31.38,3.41.14.8-.11,1.76.35,2.45.93.72,2.26.23,3.34.34,1.06,0,2.11-.1,3.17-.08.68.08,1.35.11,2.03.03.66-.03,1.31.12,1.97.17.72.03,1.44.02,2.15.18.65.11,1.3.08,1.95.15.58.07,1.14.25,1.73.2.82-.08,1.6.26,2.41.22,1.03-.02,2.03.34,3.07.25Z"/>
        <path d="M145.98,147.42c-.76-.14-1.53.06-2.29-.11-.68-.22-1.38-.32-2.07-.47-.58-.19-1.11-.51-1.67-.74-1.12-.6-2.03-1.61-2.78-2.63-1.18-1.76-1.44-4.01-1.17-6.07.1-2.06.52-4.26,1.88-5.87.27-.48.66-.88,1.17-1.09.66-.47,1.27-1.14,2.15-1.17.46-.23.97-.27,1.48-.18.69-.05,1.35.12,2.03.18.57.23,1.21.12,1.77.36,1.66.67,3.31,1.44,4.74,2.52,1.47,1.75,2.41,4.06,2.55,6.35.03,1.16.11,2.37-.33,3.47-.64,1.28-1.18,2.69-2.25,3.67-.62.54-1.33.98-2.06,1.35-1,.35-2.1.43-3.15.42ZM146.59,146.09c1.68-.15,2.27-.3,3.61-1.38.89-.76,1.23-1.92,1.78-2.9.43-.81.44-1.74.43-2.63.08-1.64-.48-3.2-1.21-4.64-.71-1.51-1.55-1.8-2.92-2.56-.65-.37-1.34-.65-2.03-.93-.34-.23-.73-.21-1.12-.26-.77-.2-1.57-.34-2.37-.32-.42-.05-.81-.07-1.19.13-.26.04-.49.07-.71.21-.51.23-.84,1.06-1.49.67-1.85,1.81-2.1,4.56-2.24,7.02-.26,2.82,1.41,5.71,4.04,6.78.87.51,1.91.45,2.85.78.43.09.87-.04,1.31,0,.42.02.84.09,1.27.06Z"/>
        <path d="M150.98,143.91c-.77-.76-1.8-1.13-2.67-1.76-.85-.48-1.23-1.08-.58-1.95.35-.66.67-1.86,1.61-1.75.95.27,1.84.69,2.64,1.29.37.17.84.2,1.08.56.35.56-.6,1.02-.89.48-.58-.09-1.03-.47-1.51-.77-.44-.22-.93-.3-1.36-.52-.34.44-.48,1-.76,1.48,1.05.78,2.36,1.13,3.3,2.08.56.56-.3,1.42-.86.86Z"/>
        <path d="M181.25,156.11c-3.03-.04-5.31.11-5.24-3.68.03-1.95-.28-3.88-.33-5.83-.21-3.24-.71-6.46-.79-9.71.1-2.49-.16-5.02.12-7.5.06-1.45.56-2.81.7-4.25.06-.41.2-.8.19-1.22-.05-.28-.1-.61.17-.79.1-1.11,1.17-1.19,2.06-1.03.64.05,1.28.11,1.93.14,3.37-.08,6.73.26,10.09.49,2.3.23,4.61.09,6.91.11,1-.08,1.95-.5,2.97-.42.54.03,1.08-.12,1.61-.04.52.14,1.11.36,1.43.82.58,1.29.3,2.8.36,4.19.19,2.1.2,4.25-.03,6.34-.13,1.33-.17,2.65-.07,3.98-.06,1.92-.05,3.85-.02,5.77.03,2.6-.21,5.23-.32,7.81-.25,1.16.14,3.02-.99,3.72-.6,1.2-2.09.77-3.16.72-2.85.44-5.73.03-8.59.15-3-.17-6,.21-9,.22ZM179.79,154.8c2.02.1,4.02-.11,6.04-.16,1.76-.16,3.53.02,5.29-.1,2.14.1,4.27.18,6.41.06.52-.04,1.03-.19,1.56-.17.59,0,1.17.24,1.76.07.12-.25.3-.46.53-.61.06-.14.09-.35.11-.43.15-1.28.27-2.56.32-3.85.23-3.3.33-6.58.22-9.88.11-2.42-.1-4.91.22-7.31.08-1.76.05-3.53-.08-5.29-.02-1.07.06-2.17-.19-3.21-.51-.38-1.09-.24-1.67-.21-.72-.02-1.43.04-2.11.26-1.13.28-2.29.07-3.43.18-3.2-.01-6.38-.32-9.57-.52-2.63-.14-5.26-.07-7.88-.34-.15.56.15,1.42-.44,1.75-.26,2.14-.88,4.25-.8,6.43.09,2.28-.03,4.57.12,6.85.18,2.27.35,4.54.67,6.8.02,2.22.3,4.39.38,6.6.02,2.28-.07,3.11,2.55,3.08Z"/>
        <path d="M190.74,148.89c-1.26-.23-2.61-.22-3.77-.8-1.03-.55-1.72-1.42-2.66-2.08-1.24-1.35-2.35-2.92-3.09-4.58-.91-2.77.1-5.87,1.83-8.11.29-.44.62-.84,1.02-1.19.4-.49.83-1,1.46-1.16.38-.47.93-.8,1.47-1.07.65-.14,1.34-.25,2-.2.85.17,1.63.57,2.43.88,1.22.34,2.38.97,3.43,1.68,1.06.61,1.89,1.5,2.46,2.58.46,1.08.75,2.27.86,3.44.05,1.83-.33,3.65-.89,5.38-.85,3.2-3.07,5.5-6.55,5.24ZM191.4,147.62c2.97.06,4.23-2.56,4.88-5.06.38-1.44.66-2.93.59-4.43-.22-1.05-.36-2.19-.97-3.09-.49-.92-1.38-1.44-2.21-2.01-1-.59-2.06-1.03-3.15-1.4-.82-.34-1.66-.81-2.57-.55-1.49-.14-1.82,2.66-3.1,1.73-2.09,2.4-3.95,6.2-1.99,9.18.64,1.04,1.34,2.05,2.13,2.99.71.53,1.34,1.24,2.08,1.72.82.63,1.9.68,2.9.77.46.1.93.17,1.41.15Z"/>
        <path d="M185.39,146.33c-.67-.56.12-1.2.49-1.66.67-.66,1.22-1.36,1.89-1.99-.3-.24-.52-.57-.74-.88-1.03.63-1.89,1.52-2.76,2.35-.51.52-1.32-.28-.8-.8.59-.62,1.25-1.16,1.84-1.78.25-.27.55-.47.86-.66.48-.55,1.27-1,1.73-.16.34.97,1.86,1.15,1.28,2.29-.59.78-1.36,1.44-1.98,2.18-.57.41-.97,1.65-1.81,1.1Z"/>
        <path d="M201.93,206.16c-6.92-.66-13.89-.28-20.83-.53-1.17-.04-2.43.07-3.54-.35-.8-.46-.71-1.43-.76-2.22.11-2.14-.14-4.26-.21-6.4-.35-3-1-5.96-.99-8.98-.03-1.84.37-3.64.34-5.48-.01-1.36.45-2.65.47-4-.66-.26-.37-1.08-.38-1.63.01-.6-.04-1.19-.02-1.79-.44-2.4,1.13-2.5,3.05-2.39,2.2-.05,4.33-.68,6.54-.7,3.67.12,7.31.71,11,.41,2.1-.36,4.2-.08,6.28.17,2.48.02,2.15,2.81,2,4.55.01,5.85-.53,11.72-.17,17.56.17,2.56.32,5.11.46,7.67-.12,1.16.43,2.74-.65,3.55-.79.45-1.7.63-2.59.56ZM202.46,204.8c.76-.14,1.56-.06,1.36-1.09.04-1.12-.02-2.24-.08-3.37-.2-2.98-.38-5.86-.56-8.83.06-5.76.4-11.52.39-17.27-.01-.54-.46-.6-.9-.64-.5-.12-1.01-.12-1.52-.14-2.63-.57-5.29.21-7.94.01-2.79.05-5.59-.62-8.39-.43-1.42.08-2.8.38-4.21.56-1.06.21-2.13-.02-3.18.18.65,1,.21,2.38.17,3.5.04,1.39-.23,2.73-.39,4.1-.1,1.11-.06,2.08-.16,3.16-.7,3.95.26,7.88.74,11.79.06,1.83.29,3.67.28,5.5.05.75-.11,1.62.14,2.31.81.11,1.63.18,2.45.15,7.26.14,14.55-.14,21.79.48Z"/>
        <path d="M190.66,198.05c-3.05-.1-5.52-2.13-7.58-4.18-1.67-1.44-2.62-3.67-2.71-5.86.04-1.93.78-3.92,2.15-5.3.68-.76,1.59-1.25,2.44-1.81,1.25-1,2.89-1.31,4.46-1.4,2.16-.12,4.19.63,5.98,1.81,1.54,1.22,2.93,2.92,3.23,4.91.37,3.02-.47,6.12-1.66,8.86-1.08,2.34-3.95,2.98-6.31,2.96ZM191.53,196.8c1.29-.25,2.74-.37,3.68-1.4,1.13-1.47,1.53-3.38,1.95-5.15.28-1.64.58-3.41-.12-4.98-.87-1.73-2.28-3.07-4.05-3.83-1.51-.78-3.24-.79-4.89-.62-.28.76-1.38.37-2,1-.03.17-.16.33-.34.38-.08.02-.16.02-.23,0-4.26,2.03-5.15,7.43-1.69,10.66,2.05,2.14,4.55,4.17,7.69,3.95Z"/>
        <path d="M196.96,190.43c0-.09.08-.17.17-.17s.17.08.17.17-.08.17-.17.17-.17-.08-.17-.17Z"/>
        <path d="M195.94,193.23c-2.34-1.47-2.63-1.08-1.3-3.76.62-1.54,1.61-1.63,2.7-.44.35.38,1.02.53,1.17,1.06,0,0,0,0,0,0-.16,1.4-1.87-.13-2.4-.54-.06.1-.12.19-.17.3-.23.45-.45.91-.63,1.39.51.49,1.51.54,1.69,1.3.09.56-.57.99-1.05.7Z"/>
        <path d="M234.65,223.12c-2.69-.59-5.44-.29-8.16-.55-1.68-.13-3.35-.28-5.02-.52-1.17,0-2.33.03-3.49-.17-1.08.07-2.15-.1-3.23-.16-1.23-.06-2.99-.11-3.44-1.52-.21-1.25.43-2.48.45-3.74.02-6.17.2-12.33.03-18.5.09-6.71.26-13.42.08-20.13.04-5.99.23-11.97.06-17.96-.41-9.73-.75-19.48-.12-29.2-.04-2.48.22-4.95.16-7.42-.04-.46.03-.93-.07-1.37-.18-.44-.07-1.09.51-1.12.9-1.26,4.48-.24,5.95-.37,3.17.26,6.35.25,9.53.17,1.95-.05,3.91.16,5.83-.2,1.83-.33,2.8.71,2.68,2.52.1,1.22.14,2.45.18,3.68.12,2.5-.04,5-.12,7.5.17,3.91.15,7.82.18,11.72.16,7.45.41,14.91.17,22.36.17,11.04-.43,22.07-.13,33.11.43,4.88.47,9.81.24,14.69-.04,1.77-.18,3.53-.47,5.27-.02,1.03-.55,2.24-1.82,1.89ZM234.83,221.55c1.52-9.93-.08-19.95.21-29.93.17-8.17.28-16.35.2-24.53.32-8.15-.13-16.32-.24-24.47.16-3.14-.16-6.28-.07-9.41.13-3.75.19-7.53-.2-11.26-4.01.25-8.1.2-12.15.24-2.96-.09-5.92-.43-8.87-.44-.21.6.16,1.4-.38,1.86.07,7.54-.71,15.08-.35,22.63-.07,5.15.37,10.3.45,15.46.18,5.25,0,10.5-.06,15.75.31,7.68-.12,15.36.03,23.04,0,3.53.08,7.06-.09,10.59.14,2.92.12,5.84-.49,8.7.71.45,1.71.33,2.54.4.63.07,1.25.2,1.89.14.75-.05,1.5.07,2.25.15.99.03,1.98-.09,2.96.13,1.8.2,3.61.35,5.41.5,2.33-.04,4.68-.01,6.97.45Z"/>
        <path d="M222.71,212.65c-2.54-.04-1.79-2.94-2.14-4.62-1.13-5.11-.89-10.36-.79-15.55-.05-3.94.22-7.86.41-11.79.27-3.98.01-7.98-.23-11.95.34-4.77-.07-9.54-.05-14.3,0-3.44.35-6.86.8-10.26.06-3,.23-5.99.49-8.98-.04-1.07.31-2.15.14-3.21-.12-.79,1.15-1.01,1.26-.17.17.76.02,1.53-.05,2.3-.12,3.4-.37,6.8-.39,10.2-.41,3.23-.84,6.47-.79,9.73-.12,3.46.34,6.9.19,10.37.06,1.69-.14,3.38-.11,5.07.3,2.56.3,5.15.35,7.73,0,3.51-.37,7.01-.5,10.52.07,4.7-.23,9.4-.02,14.1.09,2.07.39,4.14.82,6.16.21,1.09,0,2.02.25,3.05.57.24,1.18-.1,1.77-.06,1.57.12,3.09-.35,4.64-.4.22-9.42.04-18.84.22-28.26-.14-3.79.07-7.59.15-11.38-.09-4.52-.12-9.04-.38-13.56-.04-2.27-.21-4.53-.31-6.8-.03-.93,1.47-1.07,1.57-.11.58,9.79.83,19.6.46,29.4.15,4.67-.05,9.34-.1,14.01-.05,3.41.15,6.82.07,10.23-.07,1.85-.11,3.71-.11,5.57-.01.95.16,2.52-1.19,2.5-1.06-.14-2.12.19-3.18.28-1.09.06-2.17.04-3.25.2Z"/>
        <path d="M228.36,136.76c-.99-.18-.59-1.39-.54-2.09-.06-.88-.06-1.76.17-2.62-.87-.1-1.73-.06-2.59-.25-.88.07-1.75.1-2.63.11.41.95-1.01,1.55-1.33.55-.16-.63-.47-1.53.31-1.86,1.14-.31,2.32-.17,3.48-.32.95.11,1.89.15,2.84.24,2.15-.13,1.41,1.57,1.24,2.93-.07.88.42,3.42-.95,3.32Z"/>
        <path d="M225.88,150.28c-1.09-.22-1.33-1.1-1.31-2.09-.39-2.13-.26-4.3-.53-6.44.06-1.8-.76-4.26,1.04-5.43,1.95-1.2,4.19-.49,6.3-.41,1.46.02.79,2.04.93,2.98.02,1.4.1,2.79.09,4.19-.12,1.53-.2,3.05-.28,4.58-.06.97-.23,2.32-1.49,2.26-.95.2-1.89.43-2.87.36-.62.05-1.27.25-1.88.02ZM226.6,148.94c1.3-.16,2.6-.21,3.87-.55.47-3.72.33-7.47.27-11.21-1.64-.13-3.38-.58-4.9.32-.75.54-.39,1.57-.45,2.36.17,2.99.34,5.97.67,8.94.17.07.35.16.54.14Z"/>
        <path d="M225.81,154.56c-1.1-.3-2.23-.13-3.34-.35-.64,0-1.67-.02-1.58-.91.35-1.22,2.06-.35,2.95-.35.79-.09,1.53.13,2.3.3.61,0,1.19-.15,1.81-.13.64-.06,1.71.43,1.22,1.19-.21.3-.6.25-.88.09-.83-.08-1.64.28-2.47.16Z"/>
        <path d="M16.2,179.43c-.63-.15-.76-1.09-.18-1.39,1.02-.49,1.98-1.3,3.17-1.2.87.09,1.95-.76,2.58-.07.77,1.69-2.12,1.5-3.13,1.62-.84.24-1.55,1.1-2.45,1.03Z"/>
        <path d="M16.45,204.17c-1.11-.16-1.04-1.64-.06-1.96,1.93-.64,3.97-1.31,6.02-.91.95.24.56,1.74-.39,1.48-1.57-.25-3.14.2-4.63.66,0,.04,0,.09,0,.13-.02.15-.09.29-.2.39,0,0,0,0,0,0-.18.19-.48.29-.74.2Z"/>
        <path d="M32.05,68.93c-5.84-.03-11.66-.39-17.49-.73-2.36-.23-7.61,1.09-9.23-.29-.87-.92-.29-2.32-.43-3.45-.19-1.47-.28-2.87-.26-4.33-.55-6.05-.44-12.15.23-18.17-.69-.56-.04-2.73-.12-3.59.31-1.3-.61-3.4-.02-4.14-.3-1.06,1.31-1.31,1.5-.26,1.93.41,3.9.28,5.85.47,3.9.41,7.8.69,11.72.71,2.2.04,4.43-.36,6.62-.55,2.68-.58,3.61-.23,3.39,2.68.1,3.22-.06,6.44-.09,9.66-.24,4.96.04,9.92-.14,14.89.05,1.45.15,2.9.22,4.34.09,1.29.1,3.13-1.74,2.77ZM32.15,67.3c-.48-10.43.12-20.87-.02-31.3-3.58.49-7.15.94-10.76.74-4.98-.25-9.95-.66-14.9-1.08.25,4.58-.43,9.1-.57,13.66-.14,5.84.5,11.66.59,17.47,2.64.36,5.37-.31,8.05-.23,5.86.32,11.74.69,17.61.74Z"/>
        <path d="M14.8,55.3c-3.24.2-6.03-1.65-6.95-4.79-.96-1.68-.42-3.64-.12-5.43.58-3.33,3.77-5.47,7.05-5.26,2.35-1.03,6.4,1.35,7.37,3.56,1.46,2.76,1.13,6.15-.96,8.5-1.65,1.72-3.89,3.47-6.39,3.41ZM15.38,53.71c2.98-.73,6.2-3.46,6.11-6.75-.09-2.83-1.53-4.62-4.1-5.66-.62,1.17-2.09-.03-3.08.23-.68.21-1.62,1.21-2.2.39-2.63,1.09-3.1,4.18-3.19,6.7.85,3.55,2.68,5.37,6.46,5.09Z"/>
        <path d="M16.18,57.28c-1.16.06-2.77-2.12-.89-2.26,1.61,1,.29.73,2.55.62,1.35-.31,2.9-.86,3.79-1.97,1.59-2.66,2.15-6.18.78-9.04-.23-.44-.57-.81-.89-1.19-.39-.45.06-1.21.64-1.1.53.12.77.71,1.11,1.07,2.19,3.49,1.55,8.56-.97,11.72-1.69,1.45-3.92,2.13-6.12,2.15Z"/>
        <path d="M13.63,58.09c-1.51-.41-3.49-.72-4.12-2.37-.17-.59-.79-1.59.08-1.89,1.19-.16.74,1.67,1.64,2.08,1.85,1.01,3.93.93,5.94.59,1.44-.14,2.86-.28,4.12-1.05,1.09-.33,1.91-.99,2.52-1.95.87-1.22-.06-2.99.87-4.16.5-.42,1.35.06,1.23.71-.13.6-.18,1.2-.13,1.81.07,1.25-.49,2.42-1.34,3.31-1.03,1.38-2.86,1.75-4.37,2.42-2.12.26-4.3.67-6.44.5Z"/>
        <path d="M30.29,111.41c-1.13-.24-2.25-.04-3.38.01-1.33-.05-2.64-.42-3.98-.29-1.66.23-3.3,0-4.96-.14-1.46.08-2.9.1-4.35-.18-1.4.07-2.79.18-4.17.04-1.81.41-4.95-.32-4.55-2.7-.21-8.04.4-16.06.93-24.07,0,.02,0,.03,0,.05,0,.02,0,.04,0,.06.12-1.28.05-2.58.27-3.84-.8-.3-.57-1.61.32-1.58,1.17.03,2.32-.21,3.49-.07,2.69-.23,5.36-.18,8.04.06,4.84-.03,9.59-1.32,14.44-.87,2.47.39,1.36,4.07,1.65,5.83.28,4.03.32,8.07.36,12.11.21,3.46-.06,6.89.41,10.32.69,4.96.83,5.68-4.53,5.28ZM32.14,109.83c.44,0,.89-.01,1.33-.03.06-2.65-.59-5.29-.61-7.96,0-7.44-.23-14.9-.62-22.33-3.96-.5-7.83.68-11.76.73-2.04.2-4.02.07-6.06-.08-2.37.11-4.75.05-7.11.25-.08.5.41,1.24-.08,1.6-.01,4.87-.42,9.73-.68,14.6-.12,4.07-.08,8.13-.05,12.2,1.11.76,2.31.5,3.55.46,1.41.25,2.82-.21,4.23,0,1.44.34,2.89.02,4.33.15,1.87.31,3.73.09,5.61.08,1.58.21,3.14.36,4.73.14,1.07.04,2.12.25,3.2.19Z"/>
        <path d="M14.23,99.27c-3-1.28-4.53-.89-4.95-4.81-.61-3.95,2.46-6.66,5.67-8.28,3.74-2.68,8.66-.06,9.04,4.4,1.02,5.97-4.59,8.88-9.76,8.69ZM14.89,97.72c2.29-.39,5.03-.68,6.51-2.71,2.99-3.86-.78-10.71-5.63-7.35.88.2.54,1.57-.33,1.33-.36-.08-.71-.26-1.08-.23-1.16.04-1.17,1.27-2.15,1.11-1.6,1.74-1.91,4.5-.7,6.52.39.59,1.25.47,1.84.77.53.14.99.56,1.55.56Z"/>
        <path d="M14.82,102.22c-1.38-.61-3.08-.57-4.16-1.74-2.73-2.02-4-5.85-2.85-9.08.19-1.67.84-3.24,1.94-4.53.48-.6,1.08-1.09,1.54-1.71.57-.74,1.73.15,1.15.89-2.49,2.56-2.78,3.51-3.46,6.94-.32,2.5.86,4.99,2.88,6.45.89.78,2.21.67,3.24,1.18,1.04.31,2.1-.3,3.15-.19,1.68.37,3.21-.76,4.39-1.83,1.07-1.36,1.41-3.15,1.68-4.82.02-.61-.28-1.44.53-1.66,2.63-.28-.01,6.96-1.16,7.76-1.5,1.3-3.4,2.61-5.48,2.17-1.13-.02-2.26.51-3.39.17Z"/>
        <path d="M18.38,105.05c-.84-.15-2.68-.84-1.48-1.83.53-.29,1.08.14,1.58.31.94.09,2,.09,2.78-.49,3.78-1.85,5.54-7.48,3.22-11.07-.42-.6-.87-1.18-1.32-1.76-.51-.64.51-1.43,1-.77,1.69,1.92,3.01,4.38,2.72,7.01-.42,4.32-3.71,9.13-8.49,8.61Z"/>
        <path d="M169.72,102.65c-2.28-.21-4.56-.12-6.85-.23-3.14-.47-6.32-.52-9.46-.95-2.12.07-4.19-.47-6.31-.4-5.12.14-10.27.05-15.35.77-3.09-.07-6.14.45-9.23.46-6.64.13-13.17-1.19-19.77-1.53-2.08-.3-4.15.24-6.23.18-2.02-.08-4.02-.06-6.03.08-1.45-.07-2.89-.14-4.34-.08-3.96-.37-7.95-.09-11.93-.06-2.08.32-4.19.13-6.29.3-.96.07-1.92.28-2.88.18-1.58.05-2.12-1.23-2.01-2.63-.28-1.79-.27-3.6-.07-5.38-.04-2.46-.19-4.91.11-7.36.36-10-.7-20.1,1.27-29.98.23-2.14.62-4.31.21-6.46-.45-.76.75-1.52,1.22-.71.38.78.33,1.7.44,2.55.06,6.01-1.86,11.91-1.37,17.96-.05,5.65.09,11.3-.09,16.94-.25,2.23-.17,4.46-.08,6.7-.24,2.22-.15,4.43.1,6.65,5.62-.09,11.25-.68,16.89-.54,3.19-.15,6.38.28,9.58.21,2.39-.33,4.81.07,7.21-.13,1.22-.1,2.44-.3,3.67-.19,6.58.36,13.09,1.61,19.7,1.59,3.2.08,6.35-.57,9.55-.43,4.53-.54,9.12-.79,13.68-.75,2.62-.26,5.19.23,7.8.31,3.61.34,7.19.61,10.78,1.03,1.74,0,3.48-.1,5.22.15,4.35-.03,8.77-.34,13.08-.76,5.32-.61,10.68-.42,16.01-.6,2.12.19,4.23.24,6.36.11,1.9-.02,3.79.31,5.69.11.73-.01,1.45.04,2.17.14.73.16,1.59.3,1.68-.69.21-3.06-.02-6.14.05-9.2.03-1.47.19-2.93.24-4.39.23-1.28,2.08-.72,1.67.52-.13,2.68-.32,5.37-.15,8.06-.32,2.43,1.01,6.57-2.04,7.55-.88.06-1.75-.19-2.63-.25-1.99.03-3.96.02-5.94-.13-2.71.16-5.4-.04-8.11-.08-1.37.16-2.74.06-4.11,0-1.54-.03-3.08.21-4.62.15-6.19.25-12.33,1.1-18.53,1.19Z"/>
        <path d="M213.88,61.46c-.12-.16-.13-.33-.11-.52,0-.26-.05-.52-.09-.77-.02-.08-.05-.17-.07-.25,0-.02,0-.04,0-.06h0s0-.02,0-.03c0-.15-.01-.31-.01-.46v-.02c.01-.14.03-.28.04-.42.02-.29.04-.59.05-.88.01-.29.02-.58.02-.87,0-.07,0-.14.01-.22,0,0,0,0,0,.01,0-.03,0-.07,0-.1,0,0,0,0,0,0,.02-.35.02-.7.03-1.05,0-.39,0-.79,0-1.18,0-.19,0-.39-.02-.58.01-.46.01-.92-.04-1.38.03-1.01.09-2.01.18-3.02.03-.54,0-1.08.07-1.62,0-.12.02-.27-.05-.38-.22-.18-.51-.24-.79-.26-.75-.04-1.49,0-2.24.03-1.08.07-1.91.36-2.92.45-.83.02-1.66.09-2.48.17-.76.04-1.53.05-2.29.19-1.3.26-2.63.34-3.94.55-.44.09-.88.2-1.33.29-.97.16-1.96.2-2.94.37-.87.16-1.73.16-2.59.15-.53,0-1.05,0-1.58.03-.3,0-.6,0-.9,0-.61,0-1.22,0-1.83.05-.9.08-1.81.08-2.71.09-2.1.17-4.21.22-6.31.15-1.44,0-2.88-.2-4.33-.11-.99.05-1.98.03-2.97.07-.9.07-1.79.21-2.68.34-1.74.23-3.49.18-5.24.24-2.99.29-5.98-.08-8.97-.11-1.41,0-2.75-.18-4.13-.22-1.95-.01-3.88-.23-5.81-.43-1.39-.06-2.77-.05-4.16-.11-.77-.01-1.55,0-2.33,0-.34,0-.67-.01-1.01-.03-.38-.02-.75-.04-1.12-.03-1.55.18-3.12.08-4.67.18-.73.01-1.47.05-2.2.09-.44,0-.88,0-1.31,0-.31,0-.62,0-.94,0-.96,0-1.96-.13-2.91-.21-.55-.03-1.1-.1-1.65-.18-1.93-.24-3.87-.37-5.8-.59-1.4-.03-2.78-.18-4.18-.22-.83-.04-1.66-.17-2.5-.12-.31.03-.62.06-.93.08-1.14.07-2.28.03-3.42.07-1.42.07-2.85.01-4.27.08-.64.05-1.28.05-1.93.04-.51,0-1.02,0-1.54.02-.73,0-1.45.06-2.18.13-1.28.06-2.56.11-3.84.17-1.44.06-2.89.05-4.33.03-1.48.07-3.02-.04-4.48-.15-.91.01-1.81-.07-2.72-.1-.97-.02-1.95,0-2.92-.12-.48-.04-.97.02-1.45.02-.25,0-.49-.02-.73-.03-.22,0-.44,0-.54.01-.97.09-1.94.02-2.91.08-.95.02-1.9.08-2.85.12-.85,0-1.69-.07-2.54-.05-.13,0-.27,0-.4,0-.31,0-.62-.01-.92.07-.09.12-.03.27-.01.4.03.15.06.3.09.44.05.32.07.64.09.96.04.77-1,1.19-1.52.63-.39-.4-.23-1.01-.36-1.51-.06-.27-.11-.53-.11-.8,0-.74.45-1.49,1.15-1.76.52-.2,1.09-.19,1.64-.19.71-.02,1.42,0,2.13.03,1.33.03,2.65-.09,3.98-.12.31-.01.62,0,.94,0,.37,0,.74,0,1.12-.02.32-.03.65-.05.97-.05.68.04,1.35,0,2.03,0,.95.07,1.91.13,2.86.13.61.01,1.22.04,1.82.09.7,0,1.4.01,2.09.07,1.06.11,2.12.11,3.19.1.29,0,.58,0,.87,0,2.54.06,5.08-.07,7.62-.19.78-.09,1.57-.13,2.36-.14.46-.03.92-.02,1.38-.02.42,0,.83,0,1.25,0,1.45-.1,2.91-.05,4.36-.09,1.28-.06,2.56-.01,3.84-.08.53-.04,1.05-.11,1.58-.11.6,0,1.2.07,1.8.12.83.04,1.76.06,2.58.15,1.04.08,2.08.07,3.12.2.95.11,1.9.2,2.85.27,1.77.18,3.53.43,5.3.57,3.05.14,6.1-.08,9.15-.15.66-.07,1.32-.12,1.98-.05,1.94.06,3.88.03,5.82.1,1.87-.02,3.73.29,5.59.42.69.04,1.39.04,2.08.07,1.55.06,3.09.24,4.64.22,2.01.08,4.02.22,6.04.23.97-.02,1.72-.08,2.63-.13,1.12-.03,2.24,0,3.37-.07,1.32-.06,2.61-.35,3.92-.44,1.42-.06,2.84-.07,4.26-.11,1.26,0,2.5.15,3.76.14,2.08.06,4.17-.03,6.25-.16,1.27.04,2.52-.12,3.79-.13.72.02,1.45,0,2.17-.04.28,0,.57,0,.85,0,.38.01.77.02,1.15,0,.75-.06,1.48-.2,2.23-.29.66-.08,1.33-.11,1.98-.25.55-.12,1.09-.26,1.65-.34.7-.1,1.4-.15,2.09-.25.72-.1,1.43-.26,2.15-.33.54-.05,1.09-.06,1.64-.09.79-.08,1.58-.16,2.38-.16,1.27-.16,2.52-.51,3.81-.48,1.62-.1,3.96-.03,3.98,2.13-.04.65-.08,1.29-.1,1.94-.09.85-.13,1.7-.2,2.55-.03.34.02.69.03,1.03.02.29-.04.58-.04.86-.08.8-.05,1.6-.07,2.4-.02.6-.05,1.21-.05,1.82,0,.63-.04,1.25-.09,1.88-.03.33-.04.68-.2.98-.11.2-.32.3-.53.3-.17,0-.34-.07-.45-.22Z"/>
        <path d="M213.61,59.77s0,.02,0,.02c0,0,0-.02,0-.02Z"/>
        <path d="M92.69,75.59c-3.94-.98-8.07-.13-12.09-.56-3.19,0-6.37.71-9.56.39-1.58-.2-3.25.24-4.78-.11-2.12-1.21-.56-5.26-.81-7.32-.05-1.64.07-3.28.09-4.92.06-.56-.13-1.29.32-1.71-.44-1.51,1.72-1.07,2.61-1.18,1.57.07,3.13-.17,4.68-.37,1.93-.33,3.89.02,5.81-.39,3.19-.12,6.22.18,9.38.41,1.38.21,2.77.24,4.15.45,1.07,0,2.29-.21,3.24.4,1.5,1.33.09,6.68.1,8.73-.43,2.25.49,6.83-3.14,6.19ZM93.32,73.94c.12-.02.23-.08.34-.13.32-1.36.21-2.75.4-4.13.21-2.54.7-5.1.56-7.64-3.55-.13-7.09-.53-10.63-.87.04,0,.08,0,.12,0-1.6-.01-3.19-.07-4.79-.09-1.59.3-3.19.25-4.79.24-2.4.32-4.8.53-7.22.48-.01,2.24-.17,4.48-.13,6.72.02,1.75-.47,3.5-.18,5.22,2.17-.25,4.37.06,6.55.03,2.14-.09,4.27-.36,6.41-.47,4.45.42,8.99-.36,13.36.65Z"/>
        <path d="M103.53,92.09c-2.65-.49-1.9-3.92-1.93-5.88-.14-2.69-.06-5.38-.08-8.07-.13-3.9.42-7.8.24-11.69-.21-2.23.29-4.43.58-6.61.11-1.2-.14-2.6.63-3.62-1.18.15-1.32-1.76-.11-1.74,3.68-.62,7.4.07,11.1.04,2.75-.14,5.49-.25,8.24-.31,1.63.26,5.05-.7,5.25,1.67-.72,10.91.23,21.8.18,32.72.05,3.22-.99,3.48-3.94,3.2-1.88-.12-3.76-.24-5.65-.38-2.51,0-5.01-.06-7.53-.02-1.45.23-2.91.32-4.36.45-.87.16-1.75.34-2.64.23ZM104.4,90.41c7.08-1.21,14.23-.63,21.36-.26.5-5.7-.1-11.47-.17-17.19-.24-5.62-.14-11.24.14-16.86-4.06-.35-8.15.09-12.22.15-3.11.04-6.16-.48-9.25-.19.11.09.2.22.24.37.1.36-.1.77-.46.9-.31,1.21-.07,2.49-.31,3.72-.29,1.54-.52,3.09-.43,4.66.29,4.27-.29,8.54-.11,12.82,0,2.64-.02,5.33.09,7.95.13,1.09-.74,4.33,1.11,3.95Z"/>
        <path d="M162.69,88.55c-6.09-.23-12.19-.25-18.29-.44-2.82-.25-6.35,1.47-8.69-.68-.72-1.15-.36-2.65-.55-3.94-.14-2.41.05-4.8,0-7.21.16-5.06-.17-10.14.35-15.18-.17-.12-.27-.33-.24-.54.02-.18.13-.32.27-.4-.33-1.82,2.19-1.14,3.27-1.29,1.94-.13,3.88-.22,5.83-.25,3.76-.1,7.48.37,11.22.42,2.89.13,5.76-.41,8.64-.02,1.43.31,1.29,1.9,1.3,3.04.05,1.66.02,3.31-.07,4.97-.32,2.3,0,4.81-.17,7.07-.11,3.21.08,6.44.34,9.63.13,2.89.65,5.23-3.22,4.81ZM163.06,86.83c.32,0,.63,0,.95-.02.06,0,.12,0,.18-.01.29-1.84-.15-3.69-.2-5.53.06-2.16-.26-4.32-.17-6.48.18-1.9.04-3.79.04-5.69.24-2.79.34-5.59.18-8.38-1.77-.02-3.53-.24-5.29.08-1.83.11-3.68-.02-5.51-.05-5.49-.65-11.03-.25-16.52-.08.3,1.84-.26,3.77,0,5.65.07,3.91.13,7.82.09,11.74.06,2.09-.12,4.17.07,6.26.18,1-.31,2.42,1.12,2.43,2.74.13,5.49-.52,8.25-.37,5.62.36,11.2.21,16.81.46Z"/>
        <path d="M178.21,62.86c-6.42-1.19-3.64-7.72,1.39-8.25.58-1.17,1.78.32,2.72.16,2.68-.13,5.96,2.95,3.79,5.47-2.33,2.58-4.64,2.68-7.89,2.63ZM178.9,61.26c1.05-.25,2.14.09,3.16-.23,2.59-.89,4.86-3.05,1.24-4.61-.77,1.66-2.93-.72-4.3.06-1.46.31-2.72,1.71-2.91,3.18.38,1.07,1.76,1.56,2.8,1.61Z"/>
        <path d="M180.23,91.88c-2-.26-4.52.03-5.89-1.78-1.58-2.24.62-5.25,2.61-6.43,2.3-1.33,5.12-.52,7.53.05,2.64.14,4.39,3.49,2.83,5.67-1.71,1.93-4.58,2.68-7.08,2.49ZM181.13,90.34c1.81-.27,4.16-.49,5.14-2.26.42-2.25-1.33-2.79-3.12-3.2-.5.5-1.14,0-1.7-.08-1.1-.08-2.3-.27-3.34.17-1.36.65-2.36,1.97-2.68,3.44.38,2.26,4.01,1.53,5.7,1.93Z"/>
        <path d="M170.77,92.94c-.14-.13-.15-.33-.08-.5.03-.18.26-.25.39-.13.04.04.08.07.13.11.57.39.01.83-.44.51Z"/>
        <path d="M168.18,93.18c-1.39-.56.26-3.64,1.98-2.02.26-.4.57-1.16,1.16-.77.6.49-.18,1.13-.43,1.6.21,0,.42-.02.64-.03.63-.02.67.93.04.96-1.13,0-2.27.14-3.38.26ZM168.81,92.1c.14-.02.29-.03.43-.04.09,0,.19-.01.28-.02-.12-.12-.27-.2-.43-.27-.11.09-.22.2-.29.33Z"/>
        <path d="M170.24,90.24c-.55-.06-1.08-.26-1.62-.36-.56-.13-.36-1,.2-.87.59.07,1.16.4,1.75.29.05-.29.3-.52.6-.44.42.1.43.58.24.89-.21.43-.74.52-1.18.48Z"/>
        <path d="M169.44,89.65c-.02-.2-.06-.4-.09-.6-.11-.66.88-.83,1-.18.02.32.2.69,0,.98-.24.36-.86.23-.91-.21Z"/>
        <path d="M168.1,89.13c-.16-.52-.41-1.58.38-1.66.67-.01.56.73.64,1.18.3.67-.7,1.14-1.02.48Z"/>
        <path d="M168.83,87.55c-.39-.35-1.16-1.19-.54-1.63.47-.3.79.21.99.58.91-.92,1.86-.81,2.24.49.16.86-.96,1.03-1.17.06-.57.34-.75,1.03-1.53.51Z"/>
        <path d="M170.43,85.68c-.46-.05-1.88,0-1.75-.71.05-.22.28-.36.5-.31.43.1.87.2,1.32.16-.11-.29.02-.64.34-.69.45-.07.58.38.58.74.08.58-.5.85-.99.81Z"/>
        <path d="M169.23,85.39c-.12-.35-.4-.69-.28-1.06.16-.46.85-.43.99.03.15.41.55,1,0,1.28-.25.12-.58.01-.69-.25Z"/>
        <path d="M168.19,85.47c-.36-.43-.97-1.44-.2-1.76.84-.16.57.7,1,1.1.44.51-.38,1.18-.79.66Z"/>
        <path d="M167.76,82.64c-.18-.54-.42-2.34.52-2.21.67.19.15.89.26,1.33.06.24.13.47.18.7.12.62-.86.8-.96.17Z"/>
        <path d="M167.92,81.74c-.01-.26.2-.47.45-.49.57.05,2.21-.44,2.26.38,0,.25-.2.5-.46.5-.59,0-1.17.02-1.76.06-.25.02-.48-.2-.49-.45Z"/>
        <path d="M170.13,65.77c-.31,0-.62-.03-.94-.06-.83-.09-.71-1.35.13-1.28.83.1,1.66,0,2.49-.05.45-.12,1.03-.07,1.12.48.06.36-.18.7-.53.76-.75.11-1.51.11-2.27.14Z"/>
        <path d="M170.34,65.24c-.55-.37-.22-1.15-.92-1.63-.5.39.22,1.51-.66,1.59-.79-.03-.53-1.21-.45-1.72.35-1.2,1.67-1.25,2.29-.22,1.65-1.73,3.69,1.45,2.2,1.92-.31.05-.68-.17-.71-.5,0-.3-.1-.53-.35-.7-.29,0-.45.3-.58.53.19.49-.36,1.01-.83.74Z"/>
        <path d="M171.17,62.68c-.5-.02-.94-.31-1.33-.6-.78-.12-.59-1.2-.43-1.75.2-.4.69-.38,1.07-.29.54.1,1.11.13,1.62.37,1.4.76.57,2.56-.93,2.27ZM171.61,61.76c.2,0,.32-.2.2-.37,0,0,.03.01.03.01-.39-.28-.91-.25-1.37-.32,0,.12.02.24.04.35.33.25.69.39,1.1.32Z"/>
        <path d="M171.44,60.16c-.88-.04-2.1-.52-2.14-1.53-.85-.46-.12-1.57.61-1.71.67-.21,1.4-.1,2.02.22,1.39.51,1.27,3.34-.49,3.01ZM171.51,58.94c0-.05,0-.1,0-.16,0-.07.02-.14.02-.21-.23-.41-.92-.5-1.34-.33,0,0,0,0,0,0,.42.48.6.73,1.31.7Z"/>
        <path d="M169.87,55.8c-.11,0-.22-.04-.32-.02-.69.1-.96-.89-.32-1.16.17-.08.38-.08.56-.06.23-.01.46-.07.7-.06.63.05,1.33-.24,1.92.07.57.33.12,1.21-.48.96-.67.22-1.37.22-2.06.28Z"/>
        <path d="M168.97,57.18c-.6-.09-.45-.76-.46-1.2.03-.57,0-1.15.04-1.72-.3-.53.4-1.08.84-.65.39.41.18,1.05.24,1.56-.03.66.28,2.04-.67,2.01Z"/>
        <path d="M220.98,85.94c-1.77-1.28-1.03-1.14-3.28-1.12-.97,0-1.85-.26-2.81-.29-.43-.08-.87-.06-1.31-.04-.4.02-.81.04-1.21-.02-.72-.02-1.45-.02-2.17-.12-.62.03-1.23.06-1.84-.03-.27-.02-.6,0-.94.04-.8.07-1.68.13-2.14-.43-.33-.51-.24-1.17-.33-1.75-.04-.74-.07-1.47-.14-2.21-.53-3.36-.45-6.72-.6-10.09,0-.05.01-.09.02-.14.04-.18.09-.37.11-.56.01-.21-.02-.42-.04-.62,0-.17-.02-.34-.03-.5,0-.1,0-.21,0-.31,0-.08,0-.15,0-.23,0,0,0,.02,0,.03,0,0,0-.02,0-.03,0,0,0-.02,0-.03,0,0,0,.01,0,.02,0-.01,0-.03,0-.04h0s0,.01,0,.02c0-.02,0-.05,0-.07,0,0,0,0,0,0,0,0,0,0,0,0,0-.11-.01-.22-.02-.32,0,0,0,0,0,0,0,0,0,.01,0,.02,0,0,0-.01,0-.02-.02-.31-.01-.62-.02-.93,0-.18-.02-.36-.04-.54-.02-.19-.05-.37-.09-.55-.01-.08-.03-.15-.04-.23,0,0,0,0,0,0,0,0,0,0,0,0,0,0,0,0,0,0,0,0,0,0,0-.01,0,0,0,0,0,.01,0,0,0,0,0,0-.03-.17-.05-.35-.06-.53,0,0,0,0,0,.01,0,0,0,0,0-.01,0,0,0-.02,0-.02v-.03s0-.02,0-.03v.03s0,.01,0,.02c-.02-.24-.06-.49-.07-.73-.02-.26-.04-.52-.07-.77,0-.06-.02-.11-.02-.17.01-.06.02-.13.03-.19.16-.62.23-1.33.65-1.84.48-.43,1.18-.18,1.74-.13.46,0,.92-.04,1.37.03.36,0,.72,0,1.07-.02.67-.02,1.34-.04,2.01.06.35.02.7,0,1.05,0,.33-.01.66-.02.99,0,.08.03.16.05.24.05.03,0,.06,0,.08,0,.02,0,.04,0,.05,0,.15.02.3.04.44.08.68.17,1.36.15,2.04.13.45-.01.9-.03,1.35.01.64.03,1.34.22,1.95.08.5-.52,1.03-1.01,1.43-1.61.33-.44,1.04-.44,1.31.07.33.73.17,1.57.21,2.34.03.45.07.9.09,1.35-.12,2.84-.16,5.7-.33,8.54-.2.97-.24,1.94-.2,2.93-.11,1.45-.15,2.9-.17,4.36.07,1.66.37,3.3.5,4.96.07.54.17,1.08.25,1.61,0,.39-.34.69-.7.69-.12,0-.23-.03-.34-.09ZM220.42,83.83s0,0,0,0c-.13-1.75-.47-3.48-.5-5.23,0-1.84.2-3.67.15-5.51,0-.75.22-1.47.26-2.22.05-.74,0-1.48.05-2.21.09-2.49.29-4.98.1-7.47-1.1,1.25-1.53,1.09-3.07.98-.6-.1-1.2-.08-1.8-.07-.66.02-1.32.04-1.98-.1-.64-.17-1.28-.15-1.93-.13-.39.01-.79.03-1.18,0-.75-.08-1.51-.07-2.27-.06-.94.01-1.87.03-2.8-.13-.34.81-.2,1.64-.18,2.49,0,2.35.09,4.75.26,7.09.1,1.86.03,3.74.23,5.59.04.97.2,1.92.33,2.88.11,1.13.13,2.26.23,3.38,2.08-.07,4.15-.03,6.23.05.35,0,.69,0,1.04,0,.98,0,1.97,0,2.94.2.52.13,1.07.11,1.62.1.18,0,.35,0,.52,0,.61,0,1.21.06,1.74.37Z"/>
        <path d="M204,64.26s0,0,0,.01c0,0,0,0,0,.01,0,0,0-.02,0-.03Z"/>
        <path d="M203.85,63.15s0,.04,0,.07c0-.02,0-.04,0-.07Z"/>
        <path d="M105.08,42.87c-4.25-.31-7.29-3.65-7.55-7.86-.29-3.89,1.42-7.53,2.72-11.11-.21.04-.42,0-.62.08-.27.93-.94,1.67-1.28,2.57-.91,1.96-2.03,3.92-3.16,5.74-.88,1.5-1.88,2.9-3.15,4.11-.58.62-1.16,1.29-1.97,1.63-2.59,1.15-3.84-1.29-3.94-3.53-.11-2.98,1.05-5.83,1.24-8.77-2,.69-4.23.33-6.1-.56-1.65-.69-2.43-1.52-2.31-3.4-.07-1.86.73-3.39,1.35-5.07.23-.59.45-1.37,1.06-1.64.52-.14.99.5.66.94-.45.58-.59,1.31-.86,1.99-.59,1.42-1.02,2.9-.85,4.46-.13,1.26,2.82,1.99,3.78,2.15,1.21.36,2.37-.22,3.56-.33,2.05.16.95,3.15.73,4.41-.21,1.15-.48,2.29-.63,3.45-.25,1.27-.64,5.07,1.44,4.71,1.11-.3,2.95-2.65,3.72-3.59,1.25-1.96,2.41-3.93,3.52-5.95.49-1.01.9-2.06,1.48-3.03.3-.41.27-.95.64-1.32.85-.66,2.32-.74,3.09.04.57.76-.8,3.03-1.03,3.93-.72,2.14-1.55,4.28-1.69,6.56-.21,2.78.89,5.82,3.45,7.16,4.08,2.02,6.67.04,9.58-2.77.75-.58,1.33-1.41,1.92-2.12.46-.47.97-1.3,1.7-.85.41.25.49.77.62,1.2.34.84.79,1.64,1.25,2.41,1.32-2.22,3.96-.11,5.87-.06.7.03,1.39-.05,2.07-.2.96-.07,1.91-.31,2.51-1.12,1.88-2.09,3.36,1.82,3.91,3.23.4-1.6.29-3.26.12-4.89-.05-1.33-.23-2.65-.59-3.93-.21-.99-.34-2.01-.78-2.94-.47-1.34-.79-2.73-1.49-3.98-.29-.67-.6-1.36-1.15-1.87-.45-.02-.84.1-1.22.34-.54.16-1.11.46-1.19,1.09-.44,2.11.07,4.22-.3,6.33.09,1.11-.41,2.08-.97,3.01-.88,1.33-2.24.95-3.25,0-.95-.71-1.33-1.89-1.79-2.93-.83-1.84-.94-3.9-1.16-5.88-1.13,1.07-2.12.6-3.18-.23-.74.45-1.09,1.36-1.99,1.61-1.23.41-3.39-.3-4.33-1.13-.5-.45-.9-1-1.24-1.57-.48-.95.93-1.52,1.32-.56.47.76,1.1,1.34,1.96,1.6.59.11,1.12.47,1.73.29.72-.21.92-1.09,1.61-1.38.99-.88,1.86.08,2.73.54.81-.47,1.71-1.69,2.52-.5.37.66.31,1.46.4,2.2.1.88.2,1.75.35,2.62.27,1.33.81,2.52,1.47,3.68.27.34,1.08,1.23,1.51,1,.35-.41.57-.96.81-1.45.13-.48.07-.98.13-1.47.33-1.78-.15-3.59.2-5.38.04-1.2.73-2.44,1.96-2.74.72-.38,1.56-.63,2.37-.43,1.75.9,2.8,4.5,3.36,6.31.63,1.35.8,2.82,1.17,4.25.22,1.01.37,2.04.4,3.08.15,1.7.34,3.42-.01,5.1-.07,1.15-1.16,3.29-2.29,1.67-.73-1.24-1-2.76-2-3.84-.7.96-1.81,1.5-2.98,1.6-.97.18-1.94.36-2.93.25-1.41-.13-2.69-.89-4.1-.96-.56.72-1.6,2.08-2.42.85-.61-.97-1.19-1.97-1.62-3.03-.86,1.16-1.86,2.18-2.97,3.1-1.79,1.85-4.23,3.22-6.87,3.07Z"/>
        <path d="M107.24,23.57c-.04-.78-.32-1.51-.42-2.27-.06-.78-.16-1.57-.44-2.3-.67.17-1.17.78-1.83.97-1.61-.05-.66-2.77-1.14-3.78-1.27-.22-2.53-.16-3.81-.06-1.23.04-2.47-.06-3.7,0-2.23.1-4.46.19-6.7.3-2.2.1-4.33.02-6.52.05-.88.14-1.11-1.2-.21-1.34,1.21-.04,2.42,0,3.63-.06,2.13.13,4.23-.08,6.36-.21,2.37-.11,4.72-.14,7.09-.11,1.49-.1,3.01-.18,4.47.21,1.14.66.77,2.31.85,3.43,2.55-1.73,2.91.34,3.05,2.51-.09.79,1.04,2.88-.05,3.15-.29.04-.58-.17-.62-.47Z"/>
        <path d="M106.36,36.93c-.86-.03-1.27-.79-1.53-1.5-.31-.69-.32-1.46-.45-2.19-.21-1.06-.17-2.17.24-3.18.36-.89.69-1.96,1.6-2.44.25-.13.61-.02.67.27,1.55-.21,2.1,1.7,2.23,2.91.05.5.04,1,.07,1.5.06,1.29-.2,2.59-.88,3.69-.45.81-1.04,1.07-1.95.95ZM106.87,35.56c.78-.95.94-2.26.87-3.45-.04-.95.02-2.03-.61-2.81-.59.06-.51.94-1.33.81-.43,1.07-.4,1.99-.14,3.1.13.81.26,1.65.74,2.34.02,0,.05,0,.07,0,.13,0,.26,0,.4,0Z"/>
        <path d="M142.64,39.34c-1.47.07-2.86-.41-4.04-1.27-.76-.28-1.37-.8-1.89-1.4-1.27-1.32-1.46-3.25-2-4.93-.62-2.75-1.12-6.49-.44-9.23.81-1.95,1.48-4.16,3.24-5.48.78-.75,1.69-1.39,2.66-1.87,1.03-.33,2.12-.18,3.19-.23.85-.02,1.38.77,2.19.81,1.01.25,2.21,2.92.57,2.97-1.1-.31-.31-1.49-1.81-1.85-.36-.19-.65-.53-1.08-.54-2.43,0-2.75-.1-4.65,1.65-1.18.86-1.78,2.2-2.36,3.49-.64,1.28-.93,2.66-.81,4.09.05,2.37.36,4.63,1.01,6.89.48,1.95,1.1,3.7,3.14,4.47,1.64,1.37,3.82.91,5.75.68,2.03-.51,5.29-2.03,5.09-4.52-2.63.92-5.46,1.84-8.23,1-.69-.15-1.15-.68-1.53-1.23-1.29-1.01-2.14-2.34-2.47-3.95-.25-2.48,1.49-5.71,3.62-6.97,1.68-.86,4.79-1.08,5.4,1.18.1.86.02,1.75.16,2.61.3,2.17.95,4.27,1.2,6.44.81-.21,1.65-.81,2.51-.49,1.4.77.9,2.91.1,3.96-.88,1.46-2.42,2.27-3.91,2.95-1.47.52-3.04.7-4.6.77ZM145.02,32.93c.36-.03.72-.06,1.07-.13.33-.07.65-.17.98-.26-.35-3.09-1.42-6.05-1.35-9.19-.84-.93-2.66-.5-3.59.09-.5.31-.9.92-1.19,1.37-.72.97-1.28,2.07-1.35,3.3-.09.74.33,1.4.59,2.07.31.66.92,1.08,1.43,1.57.3.26.44.71.83.87.84.23,1.72.38,2.59.31Z"/>
        <path d="M152.41,42.61c-.69-.96-.56-2.47-.75-3.62-1.14,1.4-2.27,1.03-2.78-.62-.32-1.17,1.25-1.45,1.53-.13.44-.51.63-1.32,1.33-1.54,1.06-.24,1.27,1.11,1.34,1.88.43-1.27.87-2.58,1.7-3.65.5-.87,1-1.86,1.94-2.33,1.08-.56,1.77.34,2.03,1.31.89,1.63,1.07,3.55,1.47,5.31.53-.48,1.28-.03,1.53.54.64-1.04.59-2.51,1.7-3.21.62-.28,1.49-.39,2.03.09-.68-2.73-1.53-5.38-2.08-8.13-.12-1.8-.43-3.61-.24-5.41-.12-1.86.04-3.74,0-5.6-.02-1.14-.33-2.69-1.77-2.62-1.01-.04-2.11-.34-3.08.02-1.57,1.27-1.25,3.58-1.53,5.39-.12,1.72.35,3.42.24,5.13-.26,1.9-2.69,2.1-3.27.24-1.47-3.26-1.68-6.89-3.21-10.12-1.15-.08-2.3-.12-3.46-.11-.11.87.2,1.78-.11,2.63-.18.5-.96.49-1.14,0-.11-.23.01-.46.04-.69.12-1.06-.7-3.16.89-3.33,1.1.04,2.2-.05,3.3.08,1.88-.24,1.88,1.31,2.53,2.6,1.08,2.87,1.24,6.09,2.77,8.78.57-.46-.07-2.85-.03-3.65,0-2.28.03-4.74,1-6.85.79-1.36,1.89-1.87,3.44-1.71,1.34.17,2.93-.02,3.9,1.11,1.41,1.76.91,4.25.9,6.35.1,1.53,0,3.06.03,4.59.18,1.03.13,2.08.28,3.1.51,2.58,1.32,5.09,1.98,7.63.22.78.38,1.6.4,2.41.03.64-.51,1.32-1.2,1.13-.81-.27-1.07-1.19-1.53-1.83-.87-.02-.76,1.29-1.11,1.87-.46,1.13-1.35,2.89-2.59,1.38-.25.4-.79.54-1.19.28-.95-.79-.84-2.31-1.16-3.38-.22-1.39-.66-2.7-1.27-3.96-.5.43-.81,1.02-1.12,1.59-.71.89-1.1,1.93-1.5,2.98-.34,1.02-.44,2.11-.7,3.15,0,.76-.79,1.58-1.49.94Z"/>
        <path d="M190.93,62.22c-.74-.97-.31-2.42-.45-3.57-.03-.56-.2-1.24.24-1.68.25-.24.6-.26.93-.2.31-.02.59-.18.9-.19.67.04,1.2-.38,1.84-.48.49-.03,1-.07,1.49-.04.53-.39,1.16.1,1.17.7.24,1.21.42,2.44.53,3.66,0,.92-.82,1-1.53.97-.65.33-1.36.42-2.07.49-.94.28-2.09.74-3.03.34ZM191.82,61.05c.71.05,1.32-.33,2-.46.84,0,1.54-.44,2.35-.55-.13-.92-.22-1.85-.42-2.75-.79-.06-1.48.11-2.19.42-.62.11-1.23.2-1.84.31.12,1.01,0,2.03.11,3.04Z"/>
        <path d="M53.6,271.11c-.67-.46-.66-1.42-.97-2.11-.38-1.19-1.18-2.2-1.61-3.38-1.71-3.95-3.73-7.77-5.14-11.83-.45-1.48-.9-2.96-1.46-4.41-1.27-2.6.96-3.76,2.8-5.07,2.1-1.52,4.51-2.47,6.79-3.67,2.1-.78,3.97-1.98,5.38-3.75-.96-1.84-2.3-3.33-3.52-4.99-1.88-2.74-3.65-5.56-5.51-8.31-.57-.91-1.15-1.8-1.72-2.7-.47-.39-1.37-.83-.8-1.55-.46-2.75,8.49-.27,10.06-.2,3.96.5,8.01.78,11.82,2.05.59-.19,1.14.15,1.7.3.79.22,1.61.31,2.41.44,1.28-.19,2.68-.31,3.8.48,1.33.9,2,2.55,3.48,3.26,2.78,1.18,5.81,1.4,8.76,1.91,2.33.47,4.77-.05,7.11.28,1.95.02,2.95,1.2,2.71,3.13.32,4.99,2.1,10.04,4.99,14.11,1.36,1.56,2.4,3.34,3.44,5.13,1.39,1.83,2.79,3.64,3.91,5.65,1.71,3.08,7.11,8.55,2.07,11.09-1.96.68-4.12.39-6.16.69-1.37-.02-2.59.67-3.93.83-2.82.44-5.65,1.24-8.53,1.11-1.58-.23-2.44-1.65-3.66-2.49-1.44-.95-3.2-1.21-4.74-1.97-2.45-.2-4.89-.54-7.31-.94-2.07-.21-4.16-.12-6.23-.3-2.41-.21-4.78-.43-7.19-.33-3.41.06-6.07,2.53-8.62,4.5-1.25.74-2.66,3.75-4.13,3.03ZM54.44,269.06c.93-1.25,2.15-2.25,3.4-3.16,2.41-2.19,5.52-4.1,8.87-4.04,4.23-.04,8.46.49,12.68.62,1.69.19,3.36.5,5.04.73,1.22.15,2.57-.01,3.7.54,11,3.56,1.83,5.66,16.32,2.95,2.07-.82,4.29-.78,6.47-.96,1.15-.11,2.56.06,3.35-.96.84-2.45-2.01-4.9-3.04-6.95-.68-1.05-1.33-2.12-1.97-3.2-1.16-1.56-2.43-3.06-3.38-4.76-.99-1.95-2.62-3.56-3.74-5.39-2.59-4.48-4.06-9.56-4.29-14.69-2.13-.59-4.4-.18-6.58-.3-2.38-.28-4.77-.65-7.12-1.13-2.18-.35-4.44-1.06-5.89-2.82-.61-.62-1.01-1.4-1.78-1.8-1.18-.58-2.5.2-3.73-.24-1.22-.11-2.35-.61-3.51-.68-1.01-.4-2.06-.65-3.14-.8-2.86-.69-5.79-.85-8.69-1.25-2.61-.44-5.23-.99-7.87-1.03,3,4.03,5.55,8.4,8.6,12.4.87,1.2,3.18,3.7,2.9,5.19-.69,1.41-2.11,2.43-3.31,3.41-2.73,1.49-5.71,2.51-8.31,4.21-1.16.64-2.26,1.39-3.25,2.28-.55.43-.5.71-.26,1.31.27.9.66,1.75.94,2.64,1.03,4.04,3.05,7.7,4.69,11.5.82,2.2,2.18,4.16,2.89,6.39Z"/>
        <path d="M123.31,269.46c-2.68-.05-3.63-4.1-4.75-6.06-1.35-2.38-2.44-4.91-4.09-7.12-1.67-2-3.27-4.04-4.87-6.1-1.08-1.39-2.24-2.69-3.1-4.23-2.8-5.05-4.89-9.16-4.84-15.08-.84-.07-.83-1.18-.09-1.43.44-1.74,1.2-2.1,2.88-2.33,1.19-.4,2.3-.93,3.53-1.15,2.77-.65,5.55-1.31,8.41-1.34,3,.11,6,.06,9.01-.03,3.13-.05,6.22-.49,9.34-.67,3.89-.47,9.98-.08,9.69,5.17.21,2.89-.94,5.58-1.69,8.32-.46,1.44-.43,2.97-.84,4.41-.46,1.07-.71,2.22-1.18,3.28-.36.8-.74,1.59-1.24,2.32-.72,1-1.8,1.66-2.42,2.75-1.3,1.69-2.1,3.7-3.5,5.32-2.22,2.81-3.4,6.24-5.42,9.17-1.12,1.87-2.18,5.04-4.82,4.8ZM123.74,267.79c1.43-.62,1.93-2.41,2.73-3.64,1.19-2.08,2.49-4.09,3.45-6.31.94-1.64,2.07-3.15,3.18-4.67.96-1.47,1.73-3.05,2.84-4.43.55-.98,1.58-1.52,2.19-2.45,1.07-1.63,1.58-3.54,2.21-5.36.27-1.63.41-3.29.98-4.86.72-2.66,3.17-8.98-.69-10.07-2.29-.78-4.72-.39-7.08-.28-2.9.31-5.81.54-8.72.62-1.85-.01-3.69.13-5.54.08-1.41,0-2.81-.17-4.22,0-2.76.23-5.46.9-8.13,1.59-1.1.41-2.16.92-3.34,1.03-.93.98.56,2.22-.42,3.02.06,4.25,2.04,8.09,4.02,11.74.92,1.96,2.3,3.61,3.65,5.27,1.47,1.82,2.83,3.72,4.39,5.46,2.11,2.6,3.49,5.7,5.07,8.62.5,1.06.94,2.15,1.56,3.16.41.77.86,1.58,1.86,1.49Z"/>
        <path d="M171.99,267.75c-.84-1.06-2.15-1.54-3.17-2.39-1.7-1.46-3.82-2.46-6.09-2.35-1.16.1-2.33-.18-3.48.12-1.69.49-3.44.73-5.11,1.29-1.74.6-4.44,2.16-5.71.06-1.08-2.83-.94-6.03-.99-9.01.07-2.64-.26-5.26-.34-7.9-.39-4.29-1.68-8.58-.97-12.91.66-2.09,1.2-4.2,2.15-6.17.23-.41.46-.82.7-1.23.5-.85,1.84-.09,1.33.78-1.37,2.3-2.05,4.99-2.65,7.58-.21,3.5.46,6.97,1.03,10.41.21,1.77.19,3.57.36,5.34,0-.02,0-.03,0-.05,0-.03,0-.07,0-.1.22,3.04.09,6,.26,9.01.07.89.26,1.93.45,2.77.09,1.01.75.87,1.51.61,2.56-.97,5.2-1.63,7.87-2.23,2.67-.27,5.55-.32,8.06.77,1.18.6,2.22,1.45,3.27,2.24,1.07.63,2.16,1.3,2.94,2.28.69.9-.7,1.99-1.39,1.08Z"/>
        <path d="M193.56,285.68c-.83-2.43-2.28-4.64-3.25-7.02-1.75-3.18-3.9-6.22-4.97-9.73-.92-2.02-1.72-4.07-2.33-6.2-1.02-2.47-1.88-5-2.62-7.57-1.86-4.61-4.07-9.07-6.06-13.63-1.02-2.33-1.97-4.69-2.78-7.11-.69-1.89-1.69-3.65-2.39-5.54-1.25-2.68-1.89-5.95-4.49-7.71-2.3-1.36-5.74-.53-8.15.25-2.1.57-3.29,2.47-4.86,3.83-.66.6-.88,1.57-1.55,2.11-2.01.19.38-3.02.96-3.55,1.46-1.44,2.61-3.25,4.69-3.86,2.89-1.06,6.51-1.9,9.41-.49,2.52,1.35,3.73,4.06,4.7,6.61.93,2.3,1.92,4.56,2.96,6.81,1.73,5.17,4.11,10.07,6.28,15.06,1.28,2.58,2.52,5.2,3.37,7.96.53,2.03,1.3,3.96,2.08,5.9.62,1.78,1.05,3.63,1.95,5.31.72,1.75,1.3,3.55,2.23,5.22.83,1.74,1.97,3.31,2.89,5.01,1.16,2.6,2.64,5.07,3.63,7.73.58,1.38-1.43,2.23-1.71.61Z"/>
        <path d="M192.27,287.89c-2.94-1.23-5.43-3.18-7.67-5.43-2.39-2.26-4.52-4.79-6.52-7.4-1.2-1.65-2.16-3.46-3.67-4.86-1.16-1.33-1.72-3.28-3.35-4.14-.8-.46-.08-1.73.73-1.25.8.42,1.47,1.01,1.94,1.78,1.02,1.52,2.06,2.96,3.37,4.22,1.06,1.48,2.01,3.04,3.18,4.44,3.66,4.26,7.46,8.83,12.75,11.06.45-.69-.64-1.66.31-2.18,2.4-.84,1.97,5.05-1.07,3.74Z"/>
        <path d="M198.44,348.83c-1.04-4.83-3.72-9.58-2.58-14.64.9-2.28,1.48-4.67,1.8-7.11.65-4.05.42-8.14.37-12.22.12-2.44.32-4.87.6-7.3.26-3.27,1.96-7.15.39-10.25-.66-1.3-1.88-2.15-2.98-3.04-1.41-1.25-2.85-2.48-4.57-3.27-1.52-.92-3-1.9-4.56-2.75-3.93-1.86-7.4-4.56-10.12-7.96-1.44-2.18-3.08-4.23-4.95-6.05-2.2-2.33-4.83-4.25-7.54-5.95-1.47-.54-2.97-1.08-4.53-1.27-1.97.01-3.99.35-5.79,1.16-1.08.51-2.04,1.19-3.08,1.78-.82.26-2.01,1.58-2.67.45-.35-1,1.03-1.16,1.61-1.62.83-.36,1.45-1.04,2.25-1.44,2.54-1.44,5.56-2.26,8.48-1.93,1.5.29,2.99.76,4.42,1.31,1.35.69,2.51,1.68,3.75,2.54,2.46,1.78,4.66,3.92,6.61,6.23,1.97,2.43,3.66,5.06,6.02,7.15,2.33,2.08,5.13,3.39,7.82,4.9,1.81,1.33,3.95,2.15,5.71,3.54,5.78,4.48,7.47,5.88,5.95,13.51-1.03,5.13-1.15,10.35-1.04,15.55,0,4.89-.49,9.87-2.3,14.44-.47,2.32-.15,4.73.62,6.95.61,2.28,1.45,4.5,1.95,6.81.29,1.04-1.36,1.56-1.66.46Z"/>
        <path d="M198.98,352.1c-4.41.13-8.46-1.98-12.12-4.22-1.86-1.28-3.54-2.83-5.56-3.87-2.5-1.56-5.31-2.55-8.16-3.26-1.74-.54-3.48-1.13-5.33-1.14-2.84-.24-5.65-.62-8.49-.9-1.4-.04-2.77.16-4.16-.1-1.72.07-3.4-.26-4.99-.93-1.83-.48-3.38-1.64-4.91-2.7-.78-.44-1.64-.74-2.16-1.52-.9-.99-1.58-2.1-2.21-3.27-1.29-1.83-2.48-3.77-3.36-5.84-.91-3.09-1.14-6.32-1.87-9.45-.76-3.94-1.65-7.86-1.99-11.88-.55-4.1-1.34-7.46.85-11.32.85-1.53,2.16-2.74,2.85-4.36.87-1.47,1.72-2.95,2.61-4.42,1.3-1.72,2.62-3.42,3.9-5.15,1.38-2.34,2.99-4.53,4.58-6.73.26-.53.25-1.37,1.06-1.27,1.69.64-.35,2.84-.93,3.7-.83,1.18-1.54,2.46-2.43,3.6-1.38,2.47-3.22,4.64-4.91,6.9-.98,1.74-2.07,3.41-2.99,5.18-.45.95-1.18,1.71-1.8,2.54-.88,1.4-1.49,3.01-1.7,4.65-.18,2,.33,3.95.55,5.92.26,2.49.59,4.98,1.01,7.45.88,3.64,1.56,7.33,2.12,11.03.26,1.06.49,2.13.76,3.18.77,1.69,1.73,3.29,2.78,4.82.97,1.41,1.67,3.07,3.04,4.15,1.59.71,2.91,1.9,4.46,2.69,1.2.44,2.41.9,3.66,1.18,1.22.14,2.46.05,3.69.26,1.35-.09,2.7-.12,4.05.07.88,0,1.71.26,2.58.36.76,0,1.52-.01,2.26.17,1.64.25,3.33.15,4.94.57,4.15,1.15,8.41,2.21,12.06,4.59,1.79.96,3.31,2.34,4.96,3.51,3.45,2.12,7.24,4.19,11.4,4.04.71-.53-1.39-3.15-1.48-4.2-.44-1.02,1.17-1.7,1.58-.67.13.36.25.72.41,1.07.52,1.29,1.65,2.47,1.36,3.95-.21.87-1.03,1.62-1.95,1.58Z"/>
        <path d="M231.5,372.61c-.9-.15-1.53-.83-2.09-1.48-.6-.58-.92-1.34-1.17-2.12-.3-.81-.53-1.64-.79-2.47-.45-1.12-.95-2.22-1.53-3.28-.32-.57-.6-1.17-1.05-1.65-.55-.59-1.21-1.07-1.84-1.55-1.02-.68-2.21-1.02-3.4-1.26-.58-.1-1.16-.18-1.74-.33-.5-.1-.96-.1-1.46-.16-2.23-.04-4.48.13-6.69-.19-1.03-.17-2.01-.57-2.95-1-.62-.36-1.1-.91-1.63-1.38-.32-.35-.52-.78-.72-1.21-.21-.48-.47-.93-.68-1.41-.24-.62-.43-1.26-.74-1.84-.66-1.79-1.14-3.65-1.71-5.48-.41-1.01-.84-2.01-1.08-3.08-.23-.75-.48-1.5-.64-2.26-.14-.65-.37-1.27-.52-1.92-.25-1.08-.46-2.21-.38-3.32.06-.63.35-1.22.68-1.76.21-.31.46-.58.63-.91.33-.66.62-1.35,1.01-1.98.23-.39.57-.72.71-1.16.47-1.74.76-3.52.64-5.32-.15-1.55-.23-3.12-.46-4.66-.1-.66-.19-1.31-.28-1.97-.22-1.53-.43-3.07-.51-4.61-.06-.92-.09-1.85.06-2.77.32-2.34.86-4.66,1.42-6.93.15-.88.31-1.76.49-2.64.17-.97.33-1.98.12-2.96-.17-.71-.32-1.43-.53-2.14-.33-1.03-.63-2.06-.7-3.14-.06-.45-.07-.92.04-1.37.08-.54.2-1.08.47-1.56.65-1.14,1.87-1.9,3.14-2.17.09-.39.44-.68.86-.69.19,0,.38,0,.56-.05.54-.24,1.07-.52,1.62-.73.41-.11.82-.22,1.21-.38-.2,0-.48-.02-.48-.28,0-.14.12-.28.27-.27.46.02.93.08,1.39.07.24-.05.48-.2.73-.15,1.22-.48,2.46-.92,3.64-1.49.41-.21.78-.5,1.18-.72.42-.21.77-.54,1.18-.77,1.37-.67,2.77-1.33,3.92-2.34.6-.38,1.25-.67,1.87-1.01.36-.16.72-.3,1.07-.47.8-.37,1.51-.88,2.22-1.4,1.09-.74,2.3-1.26,3.4-1.98.83-.42,1.52-1.09,2.39-1.43.6-.22,1.27-.25,1.9-.13.6.16,1.04.7,1.3,1.24.48.99.5,2.12.59,3.2.15,1.91.07,3.83.04,5.75.17,2.3.1,4.61-.02,6.91-.03,1.59-.09,3.18-.25,4.76-.15.92-.11,2.05-.17,2.94-.05,1.25-.14,2.49-.28,3.74-.07,1.55-.07,3.1-.14,4.64-.1,1.59-.26,3.19-.26,4.78-.02,1.76.2,3.28.24,4.99.04,2.93.28,5.85.25,8.78-.01,1.4.03,2.8.05,4.2-.03,2.45-.02,4.91.02,7.36,0,1.94-.13,3.87-.11,5.81.02,2.07.02,4.14-.21,6.2-.04,1.01-.04,2.03-.09,3.04-.01,1.13,0,2.27-.07,3.4-.13,1.52-.23,3.05-.34,4.58-.17,1.13-.23,2.27-.34,3.4-.09.78-.21,1.56-.33,2.35-.11.83-.19,1.67-.33,2.5-.27,1.47,0,3.23-1.07,4.4-.39.42-.89.83-1.5.71ZM231.62,370.88c.6-.51.5-1.39.61-2.1.11-1.27.33-2.52.47-3.79.28-1.65.44-3.32.58-4.99.17-1.13.21-2.27.29-3.4.11-1.29.24-2.59.23-3.89,0-.76,0-1.52.04-2.28.02-1.38.07-2.75.22-4.12.1-1.98.02-3.97.06-5.96.12-2.91.1-5.83.05-8.74.03-2.89-.04-5.79-.04-8.68,0-1.77-.19-3.53-.2-5.29,0-2.07-.22-4.12-.29-6.19-.05-2.24.27-4.47.3-6.72.05-1.2.03-2.4.12-3.59.05-.56.13-1.11.16-1.68.04-.65.07-1.3.11-1.91.05-.78,0-1.57.1-2.35.13-1.08.22-2.17.25-3.26.05-1.87.15-3.73.18-5.6.04-1.29-.12-2.52-.11-3.79.03-1.81.07-3.62-.08-5.43-.02-.3-.05-.59-.09-.88-.07-.58-.12-1.21-.54-1.66-.25,0-.5-.01-.74.06-.25.09-.48.23-.71.38-.46.31-.83.6-1.31.85-.43.24-.84.5-1.25.75-1.02.55-2.06,1.09-2.98,1.81-1.35.97-2.95,1.47-4.37,2.31-1.18,1.02-2.58,1.72-3.98,2.4-.53.33-1.03.7-1.57,1.01-.91.64-1.95,1.06-2.98,1.48-.89.36-1.79.69-2.69,1.01-.77.28-1.55.52-2.34.74-.47.22-.94.43-1.41.66-.57.16-1.12.39-1.67.59-.25.08-.52.12-.76.25-.73.35-1.44.92-1.59,1.75-.05.28-.1.56-.14.85,0,.54.09,1.07.17,1.61.42,1.7,1.08,3.36,1.24,5.12.03.97-.12,2.06-.32,2.98-.22,1.04-.34,2.1-.62,3.13-.42,1.74-.83,3.5-1.09,5.27-.24,1.23-.23,2.53-.13,3.75.09,1.35.3,2.68.48,4.02.17,1.29.4,2.56.5,3.86.09,1.22.24,2.44.28,3.66,0,1.21-.15,2.43-.41,3.6-.15.73-.28,1.47-.65,2.13-.14.26-.34.48-.5.72-.42.66-.71,1.38-1.06,2.07-.23.47-.63.82-.85,1.29-.39.67-.21,1.47-.12,2.2.08.67.24,1.33.44,1.97.31,1.01.49,2.05.84,3.04.18.52.29,1.06.46,1.58.15.4.32.79.48,1.19.64,1.66,1,3.41,1.6,5.08.14.46.29.92.52,1.35.23.5.41,1.18.63,1.64.23.46.45.92.68,1.38.24.58.81.9,1.23,1.34.46.36,1.06.49,1.59.72.73.27,1.5.34,2.27.4,1.85.13,3.7-.02,5.54.06.71.06,1.42.13,2.11.31.61.09,1.22.2,1.83.35,1.05.26,2.1.61,3.03,1.18.51.31.95.69,1.42,1.06.67.54,1.3,1.17,1.74,1.92.35.64.7,1.28,1.04,1.93.35.79.73,1.57,1.06,2.36.27.74.46,1.51.71,2.26.24.61.37,1.28.81,1.78.37.36.66.85,1.13,1.08Z"/>
        <path d="M56.9,340.82c-1.85-.09-2.61-1.92-3.03-3.46-.49-.95-.75-1.96-.51-3.03-.75-2.93-2.08-5.64-2.91-8.55-.96-3.35-1.66-6.76-2.59-10.12-.83-4.64-3.8-9.2-2.3-14.01.85-1.96,1.52-3.97,2.32-5.95.75-2.26,1.95-4.36,2.5-6.69.4-1.51,1.22-2.86,1.72-4.34.47-1.71,1.2-3.35,1.55-5.09.74-2.83,1.13-6.08,3.26-8.26,1.17-1.42,2.79-2.26,4.34-3.2,1.53-1.08,3.21-1.84,5.08-2.07,3.24-.65,6.57.08,9.83.33,2.07-.02,4.15-.07,6.21.14,1.9.14,3.45,1.27,5.01,2.25,1.09.57,2.13,1.22,2.93,2.18,1,.74,2.02,1.49,2.86,2.42,1.09,1.24,1.53,2.84,1.75,4.44.29,1.01.65,2,.87,3.02,1.46,4.93,2.16,10.07,2.78,15.17-.2,4.32,0,8.66.07,12.99,0,2.49-.34,4.99-.28,7.49.16,2.22.41,4.43.82,6.63.16.97.24,1.95.2,2.93.24,1.53.15,3.05-1.42,3.82-1.36.61-2.9.22-4.32.64-5.07.68-10.16,1.5-15.1,2.86-4.36,1.18-8.66,2.64-12.82,4.38-2.45,1.16-6.15,3.19-8.81,3.08ZM57.49,339.14c2.99-.57,5.68-2.18,8.44-3.4,3.91-1.49,7.86-2.9,11.9-4.01,4.69-1.4,9.56-2.06,14.38-2.86,1.04-.05,1.99-.33,3-.4.86-.04,1.9.14,2.47-.67.09-3.83-.94-7.56-1.11-11.38-.07-2.61.27-5.11.25-7.69-.08-3.19-.14-6.38-.14-9.57-.1-1.08.05-2.15.06-3.23-.31-2.4-.55-4.81-1.08-7.17-.52-4.38-2.05-8.52-3.01-12.8-.6-1.47-1.9-2.45-3.16-3.34-.56-.38-.95-.95-1.47-1.36-1.13-.64-2.21-1.36-3.34-2-2.42-1.58-5.55-.94-8.3-1.04-3.53-.22-7.13-1.07-10.61-.19-1.86.32-3.31,1.57-4.9,2.49-2.62,1.26-4.14,3.74-4.68,6.53-.97,4.04-2.08,8.06-3.85,11.84-.48,1.77-1.06,3.52-1.85,5.18-.91,2.1-1.6,4.29-2.45,6.41-.49,1.14-1.09,2.37-1.03,3.64-.07,3.04,1.19,5.72,2.06,8.56,1.08,4.03,1.92,8.1,3.03,12.12.81,2.96,2.2,5.73,2.98,8.69.05.98,1.16,2.28.14,3.02.49,1.07.75,2.83,2.3,2.61Z"/>
        <path d="M10.34,370.84c-.65-.21-1.89-.32-1.62-1.29-1.09-1.37-.88-3.07-.96-4.7-.14-2.64,0-5.26.05-7.9.16-3.89.33-7.77.63-11.65.27-3.87.71-7.72.41-11.6-.42-4.48-1.09-8.94-1.23-13.43.45-5.39.97-10.81.3-16.22-.1-2.13-.34-4.26-.36-6.39-.43-2.92-.65-5.85-.74-8.8.01-1.73.19-3.44.22-5.17.15-.91.32-1.81.35-2.73.22-1.61-.07-3.27.33-4.85.2-1.01,1.71-1.2,1.95-.09.28,1.13.8,2.17,1.29,3.22.34,1.29.94,2.44,1.55,3.62.66,1.79,1.19,3.67,2.18,5.32,1-.33,1.79-1.12,2.85-1.3,2.81-.49,5.67-.06,8.46.37,2.06.46,4.69.67,5.64,2.87.36.55.59,1.2,1.11,1.63.4-3.83.79-7.66,1.24-11.49.23-1.85-.19-3.54.03-5.37.19-1.19.08-2.38.03-3.57.06-1.81.46-3.6.28-5.42.02-1.91-.59-3.9,2.03-4.24,1.85-.18,3.46.88,4.75,2.08,1.19.88,2.44,1.7,3.52,2.71,2.07,1.72,4.29,3.27,5.93,5.45.77.79,1.74,1.47,2.01,2.61.31,1.57-.91,2.96-1.37,4.36-1.05,1.86-1.85,3.86-2.64,5.84-.98,2.86-1.65,5.79-2.49,8.68-.63,2.39-1.59,4.71-1.89,7.18-.3,2.22-.07,4.52.29,6.72.56,1.94.95,3.91,1.34,5.89.4,4.07,2.21,7.87,2.26,11.97.22,2.13,1.02,4.12,1.72,6.12.37,1.4.34,2.88.89,4.24.26,1.88,1.93,3.8.97,5.68-.53,1.26-1.82,2.15-2.78,2.98-1.08,1-2.52,1.48-3.78,2.21-.76.31-1.47.7-2.14,1.17-1.33.79-2.77,1.38-4.05,2.24-2.92,1.58-5.34,3.91-8.24,5.53-.92.61-1.67,1.44-2.59,2.04-1.2.8-2.57,1.29-3.79,2.06-2.41,1.26-4.42,3.19-6.39,5.05-1.16,1.47-1.86,3.31-3.39,4.48-1.19.96-2.55,2.08-4.17,1.85ZM10.95,369.02c.12-.01.24-.02.36-.04.14-.02.28,0,.41.04,2.3-1.21,3.33-3.38,4.69-5.43,1.58-1.75,3.48-3.23,5.32-4.69,1.69-1.09,3.53-1.91,5.26-2.91,1.48-1.16,2.9-2.36,4.55-3.27,1.45-.95,2.77-2.09,4.21-3.07,2.38-1.58,4.98-2.77,7.38-4.29,1.49-.8,3.14-1.37,4.48-2.42,2.72-2.26,3.09-2.36,1.66-5.73-.26-1.1-.7-2.16-.85-3.28-.11-1.22-.38-2.39-.84-3.52-1.16-2.63-1.28-5.46-1.62-8.26-.62-2.41-1.28-4.87-1.73-7.3-.46-3.5-1.84-6.84-1.91-10.39-.6-4.14,1.04-8.05,2.1-11.97.72-2.19,1.1-4.47,1.88-6.65.59-2.17,1.59-4.17,2.45-6.24.43-1.01,2.42-4.17,1.91-4.91-.26-.5-.76-.79-1.14-1.18-.81-.87-1.4-1.67-2.21-2.48-2.27-1.75-4.35-3.76-6.74-5.36-1.28-.94-2.68-2.68-4.44-1.99.07,1.7.15,3.42.01,5.12-.12,1.09-.31,2.29-.21,3.36.21,1.91-.34,3.8-.04,5.7.1,2.94-.57,5.81-.73,8.74-.1,1.1-.3,2.19-.38,3.29-.09,1.13-.05,2.36-.63,3.37-1.01,1.68-2.8-.05-3.48-1.15-.42-.65-.7-1.44-1.27-1.97-1.64-.82-3.51-1-5.3-1.3-2.12-.32-4.37-.52-6.48-.06-.84.36-1.57.98-2.47,1.21-2.39.84-3.49-4.35-4.18-5.98-.55-1.35-1.37-2.56-1.7-3.99-.04,2.04-.56,3.91-.47,5.94-.27,1.95-.07,3.89-.1,5.85.65,5.15.92,10.33,1.26,15.5.26,2.15-.04,4.3.02,6.45-.27,2.46-.42,4.93-.55,7.4.33,4.92,1.12,9.79,1.3,14.72.11,3.76-.44,7.51-.61,11.26-.35,3.86-.42,7.74-.55,11.61-.18,2.06-.06,4.18-.02,6.25.07,1.47-.12,2.92,1.01,4.06.12.02.24.01.36,0Z"/>
        <path d="M38.11,373.63c-1.76.04-4.7-.55-3.59-2.93.14-1.16,1.3-2,1.71-3.1.6-1.15.66-2.57.21-3.78-.57-.81-1.27-1.4-1.88-2.12-1.11-2.15-5.74-3.25-2.7-5.82,2.24-1.82,5.14-2.46,7.66-3.82,1.52-.72,3-1.55,4.58-2.14,2.56-.88,5.21-1.52,7.72-2.54,1.98-.58,3.46-2.02,5.29-2.89.83-.39,1.58-.88,2.44-1.15.81-.1,1.61-.18,2.37-.5,2.07-.99,4.02-2.26,6.2-3.03,3.18-1.05,6.39-2,9.63-2.85,1.33-.27,2.66-.5,3.93-.96,4.39-1.81,9.06-2.81,13.77-3.22,1.85-.13,3.65.42,5.49.47,2.79-.08,4.1.72,5.6,3.06,1.39,1.88,1.58,4.25,1.74,6.51.31,2.03,1.08,3.94,1.64,5.88.95,2.15,1.71,4.35,2.79,6.43,1.21,2.62,2.53,5.33,2.14,8.31-.53,4.59-3.49,5.86-7.63,6.62-4.47.93-9.02,1.12-13.52,1.87-2.43.19-4.85.49-7.29.52-1.81.11-3.63-.17-5.42.14-7.47.42-14.98.03-22.45.09-3.53-.05-7.01.52-10.52.63-1.51.19-3.03,0-4.55.06-1.8,0-3.58.39-5.38.25ZM39.42,371.79c3.05-.42,6.12-.14,9.17-.37,2.1.04,4.16-.51,6.26-.47,2.95-.16,5.91-.09,8.86-.14,4.57.1,9.14.18,13.71.01,1.55.15,3.08-.04,4.62-.22,2.97-.03,5.95.07,8.91-.28,2.25-.15,4.47-.55,6.71-.82,3.99-.39,8.02-.77,11.88-1.9,3.92-.96,4.15-5.73,2.76-8.83-1.42-3.18-2.88-6.32-4.15-9.56-.57-1.87-1.17-3.68-1.61-5.56-.3-1.9-.09-4.07-1.19-5.73-.61-.95-1.23-2.09-2.29-2.58-1.26-.3-2.58-.19-3.87-.37-1.07-.06-2.11-.41-3.18-.34-3.23.18-6.46.79-9.57,1.67-1.99.5-3.83,1.43-5.81,1.95-3.17.6-6.25,1.54-9.33,2.49-2.85.72-5.49,2.08-8.02,3.51-.7.34-1.45.61-2.22.76-.68.09-1.33.12-1.92.52-1.05.53-2.03,1.02-3.02,1.64-.7.57-1.44,1.07-2.29,1.39-4.3,1.87-9.02,2.64-13.12,4.96-1.48.71-2.94,1.44-4.47,2.03-1.24.5-2.51,1.04-3.47,1.99,1.63,1.01,2.76,2.51,3.98,3.95,1.24,1.1,1.76,2.64,1.62,4.28-.04,1.84-1.21,3.34-2.19,4.81.17.26.18.61.04.89,1.02.32,2.12.29,3.18.3Z"/>
        <path d="M124.04,373.27c-3.07.1-5.59-1.42-6.37-4.47-.37-1.04-1.82-1.98-1.03-3.14-.48-2.62-.46-5.32-1.52-7.81-.5-1.84-1.44-3.51-2.21-5.25-1.01-2.53-2.08-5.04-2.79-7.67-.63-1.47-.91-3.05-1.26-4.6-.53-1.7-.55-3.44-.53-5.2-.35-1.23-1.82-1.59-2.73-2.33-.88-.6-2.1-.62-2.8-1.5-2.23-2.43-1.49-9.24-1.86-12.6.01-1.27-.06-2.53-.1-3.8.11-1.18.45-2.34.42-3.53.26-1.97.84-3.88.7-5.89-.31-3.31-1.62-6.45-1.67-9.81-.37-4.09-.36-8.21-.94-12.28-.66-2.39-1.4-4.77-2.55-6.97-1.42-3.41-2.57-5.5,2.25-6.15,2.38-.62,4.81-.66,7.25-.52,1.91-.2,3.84-.32,5.75-.55,2.37-.13,4.74-1.02,7.11-.63,1.99.41,4.11,2.05,3.84,4.28-.16,2-1.76,3.39-2.51,5.16-.8,2.51-.12,5.73,2.25,7.15,1.54,1,3.19,1.97,4.69,3.01,2.93,1.2,4.22,4.38,4.09,7.38.34,4.3.22,8.6.82,12.89.73,4.87,2.45,9.55,4.05,14.18,1.47,5.11,1.3,10.67-.08,15.78-.89,3.49-2.51,6.75-3.4,10.24-1.4,4.74-1.91,9.69-1.87,14.62-.11,2.21-.24,4.44-.54,6.62-.65,2.79-3.93,3.53-6.44,3.41ZM124.85,371.45c2.22-.17,4.2-.83,3.92-3.47.21-2.34.39-4.68.42-7.04.04-4.88.9-9.72,2.3-14.38,1.15-3.35,2.5-6.65,3.39-10.08.53-3.57.99-7.22.25-10.8-1.03-4.85-3.21-9.42-4.2-14.3-.81-3.86-1.04-7.84-1.09-11.78.03-1.38-.11-2.75-.23-4.12-.02-1.6-.24-3.17-1.31-4.4-.69-.88-1.81-1.15-2.67-1.79-1.82-1.46-4.17-2.26-5.69-4.07-1.23-1.6-1.81-3.73-1.65-5.73-.24-3.27,4.35-6.42,2.27-8.13-1.94-1.89-4.76-.58-7.1-.42-2.67.28-5.35.64-8.03.69-2.05-.24-4.1.05-6.1.51-.39.08-.78.18-1.16.27-.45.15-.97.04-.65.7,1.59,4.13,3.8,8.15,4,12.66.41,4.64.34,9.34,1.19,13.93.47,1.98,1.1,3.95,1.14,6,.13,2.26-.7,4.41-.77,6.65-.46,2.2-.31,4.4-.27,6.63.37,2.85-.3,9.15,1.5,11.13,1.39.55,2.69,1.23,3.91,2.11,1.67.9,2.14,2.53,1.98,4.32-.11,1.3.33,2.52.58,3.77.31,1.66.84,3.24,1.37,4.84,1.66,6.09,5.58,11.48,6.02,17.88.04,1.1.28,2.17.52,3.24.33,1.31,2.22,2.3,1.45,3.79,1.13,1.35,3.06,1.42,4.7,1.39Z"/>
        <path d="M139.53,373.67c.24,0,.49-.01.73-.02.34-.01.68-.03,1.02-.05.11,0,.22-.02.33-.03.29,0,.58.02.87.01.19,0,.38,0,.57,0,.01,0,.02,0,.04,0-1.19.05-2.38.09-3.58.1,0,0,0,0,.01,0Z"/>
        <path d="M136.82,373.64c.21,0,.42.01.63.02.01,0,.02,0,.03.01-.02,0-.03,0-.05,0-.2,0-.41-.01-.61-.04Z"/>
        <path d="M193.88,372.18c-3.38-.59-6.81-.82-10.22-.33-2.98.27-5.98.33-8.98.41-6.83.24-13.64.69-20.47.89.08-.13.13-.29.12-.46.27-.17.43-.45.41-.78-.01-.21-.1-.4-.24-.54,3.87-.09,7.75-.21,11.62-.49,4.96-.22,9.92-.46,14.88-.55,2.62-.22,5.24-.63,7.88-.51,3.91.24,7.74,1.14,11.64,1.51.59-.03,1.22.03,1.86.08,1.27.11,2.57.23,3.64-.37-1.1-2.41-1.33-6.31-.3-8.77.2-.69,1.74-1.88,1.38-2.47-1.71-.78-3.78-.84-5.15-2.31-.61-.59-.92-1.43-1.57-1.97-1.1-.52-2.37-.36-3.55-.53-1.78-.21-3.6-.51-5.33-.95-4.46-1.62-8.06-4.89-12.26-7.01-3.18-1.87-6.79-2.45-10.16-3.84-3.86-1.14-7.93-.85-11.9-1.22-1.12-.02-2.23.11-3.35.24-1.36.16-2.73.32-4.1.2-2.34-.12-4.17-1.74-6.01-3.01-1.22-.79-1.99-2.13-3.25-2.83-.6,4.62-2.44,8.96-3.53,13.47-.81,3.16-.69,6.46-1.61,9.61-.2,1.75-1.04,3.33-1.56,4.99-.09,1.25-.34,2.54-.07,3.79.04.2.1.39.18.57-.08,0-.16,0-.25,0-.17,0-.36.02-.54.06-.01,0-.03-.01-.04-.02-.06-.03-.12-.06-.18-.09-.03-.02-.05-.04-.08-.05-.06-.06-.12-.12-.18-.17,0,0,0,0,0,0-.02-.02-.04-.05-.05-.07-.12-.16-.28-.29-.46-.36-.23-1.37-.04-2.88.15-4.19.75-1.91,1.36-3.84,1.76-5.85.33-2.05.64-4.1.76-6.18.68-2.92,1.38-5.85,2.37-8.69.53-1.75.98-3.51,1.4-5.29.06-.44.12-.87.22-1.3.03-.57.12-1,.48-1.41,1.88-1.56,3.55,1.04,4.84,2.17,1.79,1.27,3.57,3.02,5.86,3.21,1.29.08,2.57-.07,3.85-.23,1.16-.14,2.32-.28,3.49-.24,3.25.3,6.53.18,9.76.72,2.7.43,5.2,1.6,7.82,2.37,3.66.93,6.84,3.08,10.02,5.04,2.68,1.62,5.28,3.73,8.4,4.29,1.1.17,2.27.4,3.34.57,1.8.25,4.07-.16,5.36,1.4.71.8,1.14,1.83,2.16,2.3,1.69.91,5.24.71,4.77,3.46-.7,1.85-2.21,2.48-1.99,4.76-.12,1.54-.04,3.02.41,4.49.94,1.46.27,2.96-1.43,3.31-.95.13-1.91.18-2.87.18-3.05,0-6.13-.55-9.12-.99Z"/>
        <path d="M134.33,286.98c-.19-.09-.37-.2-.55-.3.02,0,.03,0,.05,0,.15-.01.3-.03.45-.05.05,0,.11,0,.16,0,.22.03.44.09.67.11.26.02.52,0,.79,0,.14,0,.27,0,.4,0-.33.27-.71.44-1.13.44-.26,0-.54-.06-.84-.21Z"/>
        <path d="M131.6,285.71c-1.51-.75-3.05-1.48-4.51-2.32-1.42-.86-2.83-1.76-3.66-3.24-1.16-1.51-.56-3.44.37-4.9.81-1.26,1.87-2.35,2.56-3.7,1.3-2.29,2.49-4.63,3.87-6.86.67-1.24,1.53-2.38,2.12-3.66,1.07-2.38,2.29-2.92,4.51-1.33.8.6,1.75.91,2.63,1.37,1.3.77,2.5,1.68,3.73,2.56,1.49,1.15,3.82,2.14,4.31,4.09,0,1.6-1.32,2.87-2.04,4.22-.43.93-.88,1.86-1.44,2.72-.44.97-.83,1.94-1.52,2.75-1.34,1.65-2.31,3.53-3.41,5.33,0,0,0,0,0,0,0,0,0,0,0,0,0,0,0,0,0,0,0,0,0,0,0,0,0,0,0,0,0,0,0,0,0,0,0,0,0,0,0-.02,0-.03-.01-.08-.03-.16-.03-.25-.03-.54-.09-1.08-.18-1.61-.05-.3-.05-.6-.11-.9,0-.04-.02-.08-.03-.11.84-1.41,1.75-2.78,2.79-4.07.47-.75.7-1.54,1.14-2.3.58-.8.91-1.75,1.4-2.6.6-.97,1.29-1.87,1.72-2.93-.36-.82-1.23-1.2-1.88-1.77-1.29-.86-2.53-1.81-3.83-2.66-1-.85-2.21-1.3-3.36-1.88-.53-.17-1.86-1.57-2.24-.93-1.96,3.61-4.18,7.08-6.11,10.72-.55.9-.99,1.86-1.65,2.68-.82,1.07-1.7,2.11-2.15,3.4-.91,2.77,4.74,5.19,6.65,6.32.45-.36.93-.16,1.39.1-.05.36-.07.72-.09,1.08-.02.23-.05.47-.04.7,0,.1,0,.2.03.3-.29-.13-.6-.24-.93-.31Z"/>
        <path d="M138.24,283.86s-.01-.1-.02-.15c.03,0,.07,0,.1,0,.06,0,.12,0,.18-.02-.08.12-.16.24-.25.36,0-.07-.01-.13-.02-.2Z"/>
        <path d="M131.41,278.58c-1.17-.47-1.64-1.51-1.82-2.69-.16-1.2-.28-2.42-.25-3.63.01-2.56,1.84-4.78,4.43-5.05,1.21-.15,2.5-.26,3.64.28,1,.23,1.96.76,2.66,1.51-.08.05-.16.11-.22.18-.04-.01-.07-.03-.11-.04-.23-.06-.47-.05-.68.02-.08-.04-.15-.07-.24-.09-.08-.02-.17-.04-.25-.04-.09-.03-.19-.05-.29-.06-.23,0-.45.09-.62.24-.03.03-.06.05-.08.08-1.66-.75-3.67-.77-5.27.14-1.89,1.52-1.4,4.23-1.23,6.36.11.76.29,1.3,1.06,1.58.66.38.24,1.3-.37,1.3-.11,0-.24-.03-.36-.11Z"/>
        <path d="M132.01,287.97c-.77-.34-1.18-1.15-1.32-1.94-.26-1.14.03-2.27.18-3.4.09-.74.1-1.49.23-2.23.09-.55.24-1.09.36-1.64.06-.32.12-.63.19-.94.16-.59.4-1.15.53-1.75.19-.71.42-1.29.66-1.95.11-.29.18-.6.36-.86.24-.33.83-.18.81.25,0,0,0,0,0,0-.05.29,0,.58-.06.87-.06.27-.12.54-.19.81-.01.05-.04.09-.08.13-.12.59-.23,1.19-.32,1.79-.12.51-.26,1.02-.3,1.54-.07.63-.21,1.26-.31,1.89-.09.59-.12,1.38-.16,1.91-.02,1.02-.52,2.5-.09,3.5.02.14.07.28.16.38.16.19.35.33.6.36.18.03.37,0,.55-.02.15-.01.3-.03.45-.05.05,0,.11,0,.16,0,.22.03.44.09.67.11.26.02.52,0,.79,0,.17,0,.33,0,.5,0h.01c.18,0,.35-.02.52-.03-.02,0-.04,0-.06,0,.23-.02.44-.05.65-.16.23-.12.42-.35.52-.59.08-.19.11-.39.15-.6.04-.24.07-.47.09-.71.01-.27-.01-.54-.04-.81,0-.05-.01-.1-.02-.15.03,0,.07,0,.1,0,.06,0,.13,0,.19-.02.21-.05.39-.19.5-.37.11-.19.13-.39.1-.59v.04s0-.03,0-.05c0,0,0,0,0,0v-.02s0,0,0,.01c0,0,0-.02,0-.03-.01-.08-.03-.16-.03-.25-.03-.54-.09-1.08-.18-1.61-.05-.3-.05-.6-.11-.9-.05-.24-.12-.47-.17-.7-.01-.08-.02-.17-.03-.25-.02-.46,0-.92.03-1.37,0-.22.01-.44.02-.67,0-.24,0-.47-.02-.7,0-.02,0-.04,0-.06-.01-.21-.02-.41-.03-.62,0-.17-.06-.32-.17-.44-.12-.12-.28-.19-.45-.19-.13,0-.26.04-.37.12-.03-.15-.1-.29-.21-.4-.12-.13-.29-.22-.46-.25,0-.12.03-.24.09-.36.43-.96,1.89-.57,1.76.48,0,.11,0,.22,0,.33-.01.13-.02.27-.02.4,0,.12,0,.23.02.35,0,.97.04,1.94.1,2.91,0,.79.31,1.53.44,2.3.18,1.09.29,2.2.14,3.3-.09,1.05-.58,2.06-1.4,2.73-.86.64-1.99.67-3,.89-.62.13-1.23.27-1.86.32-.16.03-.33.05-.49.05-.23,0-.46-.04-.68-.14Z"/>
        <path d="M138.61,276.2s0,.01,0,.02c0,0,0-.01,0-.02Z"/>
        <path d="M133.67,275.34c-.8-.04-.64-.96-.57-1.52.1-.73.83-1.15,1.43-1.47.84-.45,1.83-.13,2.55.4.65.39,1.72,1.55,1.07,2.22-.06-.02-.13-.03-.19-.03-.13,0-.26.04-.37.12-.03-.15-.1-.29-.21-.4-.16-.16-.38-.26-.6-.27,0,0,0-.01,0-.02-.65-.78-1.59-1.21-2.38-.35-.05.51.02,1.33-.7,1.33h0Z"/>
        <path d="M138.62,276.42c0-.08,0-.16-.01-.24,0,.01,0,.02,0,.03-.01-.22-.02-.43-.04-.65,0-.11-.03-.21-.07-.3.07-.05.15-.09.23-.13,0,.04,0,.09,0,.13,0,.15.01.31.04.46.02.14.07.28.14.4.01.03.03.06.04.09.03.05.07.11.11.15.04.06.09.11.14.16-.05,0-.1,0-.14,0-.16,0-.31-.03-.43-.11Z"/>
        <path d="M132.41,287.58c-1.35-.37-.89-2.12.72-1.79,1.36.13,2.7.54,3.88-.34.2-.91.21-1.81.25-2.72-.03-.84.03-1.69.06-2.53-.05-.67-.13-1.32,0-1.99.09-.81.27-1.64.1-2.46,0-.47-.27-.92-.26-1.39.31-1.14,1.53-.37,1.6.45,0,.08-.02.17-.02.25,0,.02-.01.04-.02.06,0,.02,0,.03.01.05,0,.03,0,.05,0,.08,0,.15.01.31.04.46.02.14.06.26.13.38.09.81.04,1.64-.03,2.46.07,1.28.12,2.6.1,3.88-.05,1.35.12,2.9-.58,4.1-.79.82-1.99,1.25-3.11,1.29-.96-.1-1.91-.21-2.87-.25Z"/>
        <path d="M138.47,285.03c-1.02-.39-.55-1.8-.67-2.65,0-.89-.03-1.78.11-2.67.13-.9,1.5-.71,1.38.19-.24,1.35-.21,2.73-.23,4.1.46.4,0,1.21-.58,1.02Z"/>
        <path d="M90.81,262.51c-1.36-.06-2.74-.07-4.08-.26-.35.27-.87-.01-.95-.42-2.81.02-2.89-.76-3.22-3.27-.83-1.9-1.53-2.85-1.65-5.04-.32-2.49-.2-3,2.33-3.63.62-.12,1.2-.38,1.81-.54.72-.19,1.47-.12,2.2-.24,1.41-.23,2.82-.29,4.24-.23.95-.09,1.91-.07,2.85.04,1.16.09,2.34,0,3.52-.1,1.89-.15,3.78-.31,5.57.31,2.95.87,2.36,4.34,2.78,6.74.15,1.46.56,3.25-.39,4.51-.69.77-1.84.86-2.8,1.1.08-.07.16-.15.24-.24.12-.15.23-.31.32-.48.12-.22.22-.44.31-.68.06-.17.12-.33.17-.5.14-.05.28-.1.42-.16.79-.91-.12-3.8-.08-5.04-.22-1.17.07-3.01-1.24-3.54-1.53-.67-3.45-.51-5.32-.34-1.14.1-2.26.2-3.27.11-2.25-.15-4.48-.14-6.7.11-.74.15-1.49.13-2.23.23-1.04.33-2.15.57-3.15.98.1,1.28.12,2.63.61,3.83.79,1.32,1.26,2.7,1.4,4.23.79.23,1.63.05,2.42.36.56.14,1.37,0,1.55.71.12,0,.24,0,.36,0,2.18.01,4.37-.12,6.55-.14.49-.08.99-.17,1.48-.25.12.04.25.07.37.1h-.03c.27.05.53.14.81.18.15.02.31.04.46.04.12,0,.24,0,.37-.01.01,0,.02,0,.04,0,.09.04.18.08.27.11.37.15.75.25,1.15.3.04,0,.09,0,.13.01.03,0,.06.02.09.03.06.02.13.05.19.08.08.05.17.09.25.13.01,0,.03.01.04.02-1.54.17-3.08.43-4.62.66-.65.16-1.37.15-2.07.15-.28,0-.56,0-.83,0-.63.01-1.26.06-1.89.06-.26,0-.52,0-.78-.03Z"/>
        <path d="M90.02,260.74c-1.56-.33-2.31-1.96-2.61-3.39-.28-1.11-.58-2.26-.27-3.4.24-2.05,1.84-3.12,3.66-3.72.59-.29,1.2-.55,1.87-.51,1.7-.26,3.47.05,5,.83,1.05.6,1.62,1.83,1.74,2.99-.01.47-.39.85-.86.85-.96-.03-.82-1.18-1.18-1.82-.8-1.3-4.29-1.55-5.58-.94-1,.5-2.36.72-2.82,1.88-.35.94-.43,1.95-.14,2.91.17.9.31,1.89.94,2.6.31.35.68.37,1.08.17,1.23-.15,1.34,1.7-.82,1.54Z"/>
        <path d="M92.09,260.65c-.82-.07-1.55-.43-2.26-.83-.53-.28-.39-1.15.19-1.28.6-.11,1.04.5,1.61.57.19.03.38.07.57.06,1.03.02.91,1.61-.11,1.48Z"/>
        <path d="M101.87,263.36c-.99-.52-2.11-.54-3.16-.9-1.81-.8-3.74-1.29-5.49-2.23-.45,1.01-1.66.23-2.16-.33-.47-.84-.99-1.66-1.42-2.52-.5-1-.36-2.24.08-3.24.59-1.34,2.24-1.28,3.78-1.23.78.03,1.54.06,2.12-.1,2.53-.38,5.11.12,7.53.85.61.39,1.24.73,1.94.93-.03,0-.05-.02-.08-.03,0,0,0,0-.01,0,2.36.61,1.3,3.42.88,5.07-.41,1.63-1.41,3.84-3.24,3.84-.24,0-.49-.04-.75-.12ZM99.14,261.11c.37.15.75.26,1.15.3.04,0,.09,0,.13.01.03,0,.06.02.09.03.06.02.13.05.19.08.08.05.17.09.25.13.13.05.27.09.41.12.17.03.35.05.52.05.03,0,.06,0,.09,0,.23,0,.47-.02.69-.11.13-.06.25-.13.35-.22.29-.21.52-.58.71-1.01.06-.13.12-.26.17-.4.11-.29.2-.58.28-.87.03-.12.07-.24.09-.36.05-.13.1-.25.15-.38.07-.15.15-.3.19-.46.04-.14.04-.29,0-.44.12-.42.19-.85.09-1.3-.79-.27-1.61-.55-2.27-1.06-.96-.33-2-.46-3-.67-1.55-.36-3.13-.11-4.69.05-1.15-.03-2.31-.1-3.45.11-.49.81-.35,1.68.04,2.45.02.15.08.3.17.42.06.08.13.14.2.2.05.07.1.13.15.2.03-.02.07-.03.11-.04.03.01.06.03.09.04.03.01.06.02.09.03,0,0,.02.01.02.02.19.13.38.27.57.4.21.13.44.24.65.37.25.14.47.31.72.46.24.14.49.27.74.39.18.1.36.21.54.31.19.11.38.21.57.31.21.12.43.23.65.33.2.09.41.15.63.19-.01,0-.02,0-.03,0,.27.06.53.15.81.19.15.02.31.04.46.04.12,0,.24,0,.37-.01h.04c.09.04.18.07.26.11Z"/>
        <path d="M130.94,278.08c-1.58-.2-1.93-2.21-2.09-3.52-.1-1.26.19-2.52.77-3.64.31-.64.76-1.2,1.2-1.75.44-.54,1.15-1.49,1.87-.79.34.36.26.95-.15,1.23-.74.83-1.46,1.69-1.84,2.75-.48,1.37-.47,3.1.34,4.33.98.05.88,1.48-.09,1.38Z"/>
        <path d="M138.46,276.49c-.2-.49.12-1.01.6-1.16.4-.24.68-.63.88-1.04.21-1.15.39-2.48-.34-3.47-.23-.34-.51-.64-.83-.9-.44-.23-1.03-.43-1.21-.94-.16-.82.8-1.08,1.31-.53.62.13,1.14.49,1.57.95,0,0-.02-.02-.03-.02,0,0,0,0-.01,0,1.14,1.02,1.42,2.7,1.25,4.15-.03,1.02-.38,2.01-1.12,2.73-.51.62-1.61,1.26-2.07.25Z"/>
        <path d="M2.36,12.89c0-.09.08-.17.17-.17s.17.08.17.17-.08.17-.17.17-.17-.08-.17-.17Z"/>
        <path d="M5.17,372.16c.02.32-.15.58-.4.75-.36.25-.9.28-1.22-.08-.54-.73-.22-1.78-.43-2.62-.46-2.89-.53-5.83-.37-8.75.2-4.29.17-8.57-.22-12.84-.31-5.42-.55-10.85-.28-16.27.77-6.74.96-13.51.74-20.29-.48-6.34-.77-12.69-.42-19.05-.35-9.2.19-18.53-.11-27.71-.45-9.64-.51-19.3-.69-28.94-.32-3.04-.35-6.11-.36-9.16.04-3.26.27-6.51.32-9.76.01-3.34-.46-6.65-.48-9.98-.32-7.38.18-14.77.34-22.15.31-8.11,1.04-16.18.87-24.29-.09-5.61.22-11.2.41-16.8.11-3.75-.07-7.5.08-11.24.05-5.78-.54-11.54-.42-17.31.04-4.13.31-8.26.23-12.4-.3-5.72-.77-11.44-1.39-17.14-.17-5.1-.47-10.21-.36-15.31-.11-6.62-.3-13.24.14-19.86-.15-6.26-.57-12.53-1.07-18.78-.29-5.09.29-10.17,1.14-15.18.26-1.81.58-3.62.94-5.41.05-.26.14-.56.29-.79.21-.32.52-.52.96-.35.15.07.27.18.35.31.12.2.15.46.05.69-.48,1.38-.53,2.86-.84,4.28-.85,5.45-1.67,10.92-1.32,16.45.57,6.05.88,12.11,1.17,18.18-.48,6.98-.25,13.96-.15,20.94-.05,4.9.25,9.78.42,14.67.71,7.14,1.59,14.31,1.43,21.5-.46,8.35.06,16.69.23,25.04.07,11.23-.64,22.44-.49,33.67-.41,14.5-1.71,28.99-1.12,43.5.94,7.98-.23,15.98.24,23.98.47,4.55.28,9.13.37,13.7.14,5.83.31,11.72.53,17.55.28,6.46.05,12.93,0,19.39-.04,4.1.24,8.19.05,12.28-.39,6.37.59,12.68.56,19.03-.04,3.4.11,6.8-.18,10.19-.25,3.17-.74,6.36-.72,9.54-.03,6.16.35,12.31.77,18.45.1,4.13-.26,8.25-.17,12.37.08,1.68.4,3.33.52,5,.03.33.05.67.06,1Z"/>
        <path d="M236.47,9.36c-.08.15-.18.24-.3.29-.69.33-1.92-.72-2.68-.65-.16-.02-.31-.03-.47-.05-3.37-.31-6.78.29-10.13-.27-2.28-.47-4.6-.36-6.91-.53-4.71-.81-9.47-.34-14.19.09-8.44.63-16.91.87-25.36.89-2.99-.13-5.97-.37-8.95-.61-2.81.02-5.63.04-8.44-.03-2.02-.03-3.98.64-5.99.8-2.26-.01-4.52-.05-6.78.05-12.29-.06-24.61-1.27-36.87.23-3.25.58-6.58.25-9.86.22-5.68-.04-11.36-.17-17.02.38-6.27.26-12.52-.21-18.78-.4-8.49.6-17.01-.18-25.52.11-1.85.1-3.7.27-5.56.33-2.22-.03-4.43-.41-6.65-.37-1.33.1-2.63-.18-3.94-.31-1.53-.17-3.07-.04-4.6-.04-1.83-.08-3.61.19-5.4.56-2.69.34-5.42.64-8.12.5-.05.08-.12.15-.19.21-.34.31-.83.42-1.23.12-.03-.02-.06-.05-.08-.08-.74-.71.08-1.81.94-2.05.83-.21,1.72,0,2.57-.06,1.78.06,3.47-.34,5.19-.41,3.21-.76,6.48-.71,9.75-.72,3.23.37,6.46.4,9.7.64,3.07.33,6.13-.26,9.2-.28,5.73.08,11.46.04,17.2.21,2.35.21,4.66-.33,7.01-.25,5.19.13,10.38.58,15.59.45,2.78.03,5.55-.24,8.32-.46,5.85-.03,11.69.06,17.54.11,2.23.09,4.42-.47,6.64-.58,4.28-.29,8.58-.61,12.87-.47,8.34.03,16.7.81,25.04.41,2.77.31,5.44-.43,8.17-.74,3.15.02,6.34.1,9.48.05,4.77.32,9.57.97,14.35.42,6.14.21,12.27-.28,18.4-.52,3.92-.31,7.78-.72,11.71-.54,1.74.11,3.25.44,4.92.54,1.55.11,3.11-.04,4.64.29,1.96.35,3.95.51,5.94.52,2.46-.02,9.39-.35,8.85,2Z"/>
        <path d="M240.97,305.85c-.07,1.57-.09,3.13-.32,4.68-.26,2.41-.4,4.84-.52,7.26-.04,1.23-.17,2.46-.21,3.69-.02.79-.02,1.57-.08,2.36-.12,1.65.11,3.31-.06,4.96-.4,2.96-.42,5.98-.47,8.95-.05,1.34-.12,2.69-.28,4.02-.14.9-.18,1.82-.24,2.73-.13,1.61-.11,3.16-.17,4.75-.19,2.63-.13,5.28-.17,7.91-.05,1.97-.25,3.93-.34,5.9-.04.93-.16,1.85-.17,2.78-.01.99.05,1.98.17,2.96.07.76.03,1.54.04,2.31.05-.19.08-.39.07-.58,0-.12.09-.24.22-.24.38-.01.23.62.24.87-.05.44-.4.68-.5,1.08-.03.17-.01.34-.1.51-.04.08-.09.14-.15.18-.26.23-.7.19-.92-.09-.3-.36-.26-.85-.3-1.3-.02-.22-.04-.44-.05-.67-.04-.45-.07-.9-.1-1.35-.23-1.7-.41-3.42-.25-5.14.08-2.08.2-4.15.33-6.23.09-1.93,0-3.86.06-5.79-.02-1.68.15-3.34.17-5.02,0-1.66.11-3.33.25-4.99.14-.96.24-1.92.28-2.89.08-1.45.12-2.91.11-4.36.05-2.24.17-4.49.44-6.71.11-1.44-.07-2.88.01-4.32.08-1.15.07-2.3.13-3.45.07-1.16.16-2.31.19-3.47.11-2.18.25-4.35.45-6.52.2-1.39.28-2.79.31-4.18.02-.75.09-1.48.11-2.23-.06-1.08-.06-2.16-.12-3.24,0-1.66,0-3.32-.2-4.97-.09-1.25-.23-2.49-.21-3.74-.05-.86-.1-1.73-.07-2.6-.04-1.4-.13-2.81-.01-4.21-.04-1.9-.09-3.79,0-5.68-.09-2.3-.14-4.6-.38-6.89-.03-.49,0-.99-.03-1.48-.03-1.08-.21-2.15-.22-3.23-.01-.96,0-1.91-.03-2.86.03-.94.06-1.89.03-2.83-.01-2.05-.14-4.1-.09-6.15-.02-.64.03-1.28.06-1.93.01-1.71.03-3.42.12-5.13-.04-1.2-.01-2.4-.02-3.59-.07-.87-.07-1.74-.11-2.6-.09-1.43.03-2.86.02-4.29-.02-1.12.19-2.21.24-3.32.06-2.21.33-4.42.23-6.63.02-.93-.03-1.85-.03-2.78,0-.61.04-1.21.05-1.81,0-.49-.01-.97-.05-1.45-.06-1.69-.04-3.2-.19-4.86-.06-1.65-.15-3.31-.35-4.95-.07-1.17-.1-2.34-.09-3.51.08-2.07.27-4.15.41-6.22.1-2.02.13-4.05.22-6.07.05-.84.03-1.69-.08-2.53-.06-.58.03-1.16.06-1.74-.06-1.24-.14-2.49-.04-3.73.07-1.32.04-2.65.07-3.97,0-.86.03-1.73.07-2.59,0-.8-.11-1.59-.11-2.39-.04-1.13-.08-2.26-.12-3.39-.05-.99.01-1.99.05-2.98,0-2.24-.23-4.47-.15-6.7,0-1.9.11-3.79.07-5.68.07-1.38.08-2.49.1-3.81-.05-1.21-.16-2.41-.17-3.62,0-1.04-.04-2.08-.04-3.12s-.16-2.02-.08-3.03c.03-1.1.12-2.19.2-3.28.08-2.19.26-4.38.37-6.58,0-1.83.04-3.82.01-5.62,0-1.71-.11-3.41-.17-5.11-.11-1.8-.41-3.58-.5-5.38-.05-.68-.04-1.36-.05-2.04,0-1.13-.17-2.25-.2-3.39.01-1.04-.24-2.07-.31-3.11-.05-.93-.02-1.86-.09-2.78-.1-1.05-.23-2.09-.27-3.14-.2-2.16-.33-4.33-.32-6.51-.02-.69-.09-1.38-.06-2.07.04-.75,0-1.5.02-2.25.04-.76.07-1.53.05-2.29.03-.81.1-1.62.12-2.43-.05-1.6-.01-3.24-.02-4.83,0-1.36-.19-2.7-.31-4.05-.33-3.01.06-6.02.21-9.03.19-2.5,0-4.98.31-7.46.05-1.77.21-3.54.33-5.3.02-.8.04-1.59.06-2.39,0-2.48.12-4.97-.15-7.45-.07-.76-.12-1.53-.21-2.3-.1-.56-.15-1.14-.17-1.71-.17-1.88-.47-3.75-.57-5.63-.16-1.74-.42-3.47-.47-5.22-.03-1.19-.06-2.38-.01-3.56-.01-.64.07-1.26.19-1.88.11-.95.14-1.9.16-2.85-.01-.86-.12-1.71-.14-2.57-.05-.85-.05-1.69-.17-2.53-.1-.74-.31-1.45-.45-2.17-.26-2.03-.41-4.08-.63-6.1-.02-.8-.02-1.59-.07-2.38-.05-.94.02-1.96-.53-2.77-.16-.15-.37-.2-.56-.29-.25-.09-.45-.28-.54-.52-.11-.21-.13-.46-.04-.69.17-.48.73-.76,1.21-.58.4.16.82.32,1.14.61.4.38.67.85.84,1.36.24.67.32,1.42.34,2.12.02.79.08,1.57.08,2.37-.02.77.11,1.53.18,2.29.13,1.3.24,2.6.38,3.9.11.72.32,1.41.45,2.12.18.97.19,1.95.24,2.93.02.74.08,1.48.13,2.22.03,1.04-.02,2.07-.1,3.1-.04.5-.12,1-.2,1.5-.08,1.23-.09,2.47-.04,3.71.01,1.71.25,3.4.42,5.1.13,1.19.17,2.38.33,3.56.14,1.22.3,2.43.36,3.65.14.97.22,1.95.3,2.93.09,1.07.21,2.13.16,3.2.04,2.47.03,4.95-.06,7.41-.11,1.62-.25,3.23-.29,4.85-.2,1.71-.23,3.44-.23,5.17-.03,1.72-.2,3.43-.25,5.15-.15,1.71-.25,3.44-.12,5.16.05.98.2,1.93.29,2.9.07,1,.12,1.99.11,3-.02,1.33-.02,2.66.01,3.99-.01.84-.1,1.67-.12,2.51.01.91-.04,1.81-.07,2.72.02.7.01,1.4-.02,2.1.07,1.24.08,2.47.11,3.71.03,1.34.14,2.68.26,4.01.06,1.24.2,2.46.31,3.69.08,1.38,0,2.78.29,4.15.11.85.09,1.71.15,2.56.06.6.14,1.2.15,1.8.03,1.01,0,2.02.08,3.03.09,1.49.33,2.98.43,4.47.11,1.99.21,3.98.19,5.98,0,2.39.08,4.76-.09,7.14-.12,1.49-.19,2.98-.25,4.47-.09,1.44-.23,2.88-.24,4.33,0,.45.03.89.07,1.34.03,1.11.03,2.23.05,3.34-.01,1.49.15,2.97.18,4.46-.01,1.38-.06,2.76-.11,4.14.05,1.52-.04,3.04-.06,4.56-.02,1.28,0,2.55.03,3.82.03.9.12,1.8.11,2.71.03,1.26-.11,2.53-.04,3.79.07,1.86.1,3.71.21,5.57-.09,2.66-.06,5.31-.19,7.96-.02.95.09,1.9.09,2.85-.02.31-.06.62-.07.93.01.56.11,1.12.12,1.68.02,1.76-.14,3.52-.15,5.29-.06,2.4-.3,4.79-.45,7.19-.11,1.56-.07,3.12.02,4.67.17,1.39.27,2.79.34,4.19.02.88.11,1.76.14,2.65.05,1.29.03,2.57.12,3.86.03.84-.03,1.68-.05,2.52.05,1.14.03,2.27.07,3.41.04,1.7-.16,3.39-.21,5.09-.01,1.36-.29,2.69-.28,4.05,0,1.05-.02,2.1-.05,3.15.05,1.38.09,2.76.14,4.14-.05,1.63.05,3.01-.06,4.6-.05,1.4-.04,2.79-.06,4.18-.06.78-.06,1.56-.07,2.35.01,2.14.12,4.28.14,6.42.01.62-.05,1.23-.06,1.85.01.61.05,1.22.03,1.83-.02,1.15.1,2.29.2,3.43.06.77.03,1.54.08,2.3.17,1.7.25,3.4.29,5.11.09,1.19.06,2.39.01,3.58.01,1.38.05,2.75.05,4.12-.09,1.21-.01,2.41.03,3.61-.03,1.06.06,2.12.09,3.18-.01.79.06,1.57.13,2.34.06.87.14,1.73.22,2.6.07,1.47.02,2.95.1,4.42.02,1.31.12,2.62-.02,3.92Z"/>
        <path d="M237.93,372.93c.05,1.01-.19,2.09-1.34,2.34-5.86.52-11.77-.81-17.66-.35-5.4-.04-10.76.81-16.14,1.16-5.45.45-11.04.43-16.49.34-4.83-.01-9.6-.35-14.42-.04-3.92.2-7.78,1.03-11.7.62-3.98-.35-7.96-.75-11.96-.8-3.65-.35-7.3-.52-10.96-.4-4.8-.13-9.58.07-14.38.05-2.91-.15-5.81-.53-8.73-.58-3.32-.28-6.65.01-9.97.15-4.03,0-8.04.16-12.07.35-5.03.03-10.08-.45-15.11-.05-5.09.17-10.14,1.06-15.23,1.07-8.12-.41-16.24.35-24.33.63-6.91-.26-13.74-1.37-20.61-2.1-3.32-.4-6.65-.73-9.98-.91-.86-.21-1.47-.88-2.08-1.5-.15-.16-.31-.31-.46-.45-.3-.3-.35-.78-.05-1.11.31-.25.59-.28.85-.19.69.26,1.27,1.41,1.96,1.69,5.29.23,10.59.86,15.86,1.45,4.43.54,8.86,1.06,13.31,1.3,5.28.02,10.56-.57,15.85-.67,3.57-.31,7.14-.04,10.71.01,2.48,0,4.92-.48,7.39-.64,7.27-.75,14.54-.61,21.84-.4,3.59-.15,7.17-.37,10.77-.35,3.8-.06,7.6-.51,11.4-.18,2.96.05,6.01.47,8.94.61,4.14.03,8.21-.16,12.35-.08,3.21.08,6.42-.2,9.63.16,3.82.32,7.64.34,11.45.71,2.62.25,5.26.54,7.9.41,2.53-.17,5.05-.62,7.59-.71,4.53-.28,9.13.01,13.65.07,4.79.11,9.59.03,14.38-.16,5.7-.35,11.36-1.12,17.07-1.36,6.31-.32,12.61.6,18.89.46-.02-.65-.1-1.31.06-1.95.04-.33.27-.55.55-.66.41-.16.93-.07,1.16.34.26.37.09.8.07,1.2.02.16.04.34.04.52Z"/>
        <path d="M151.84,373.52c-2.52-.22-5.06-.29-7.59-.23-2.66-.28-5.44-.24-7.97-1.2-1.99-.65-4.64-1.17-4.07-3.88-.65-1.99,1.64-2.34,1.55-.77-.07.17.03.32.07.48.09.36-.04.73,0,1.1.16.81,1.89,1.04,2.57,1.33,1.91.73,3.91.95,5.93.98,1.45.15,2.93.16,4.38.13,1.81-.07,3.64.08,5.43.24.9-.02,1.71-.11,2.58-.18,1.33-.03,2.67,0,3.99-.15.61-.1,1.34.15,1.37.85.04.71-.63,1.05-1.26.99-.55.09-1.11.07-1.66.1-1.8.04-3.6.21-5.41.21,0,0,.09,0,.09,0Z"/>
        <path d="M214.63,87.24c-.13-.13-.17-.3-.18-.47,0-.05,0-.09,0-.14-.65-.43-.31-1.59-.31-2.26-.04-.38.21-.78.61-.78.1-.19.31-.31.53-.28.27.04.46.28.44.55.18.81-.08,1.68,0,2.51.21.62-.55,1.38-1.1.87Z"/>
        <path d="M203.97,75.84c0-1.49-.15-2.97-.19-4.46-.04-1.41.03-2.83-.06-4.24-.06-2.09-.48-4.34.72-6.19.36-.6,1.27-.07.92.54-.1.18-.21.36-.3.55-.44,1.77-.02,3.61-.02,5.4.13,1.86,0,3.73.17,5.59.09.96.14,1.94.1,2.9-.09.81-1.36.74-1.35-.09Z"/>
        <path d="M205.55,84.21c-.47-.05-.89-.46-1.05-.89-.12-.64-.11-1.29-.2-1.94-.2-1.54-.36-3.08-.29-4.63.06-1.01-.05-2.1.39-3.03.36-.59,1.24-.08.91.53-.23.87-.11,1.81-.09,2.71.02,1.53.22,2.99.42,4.5.29.37.13.88.22,1.32.85.43.71,1.53-.31,1.44Z"/>
        <path d="M31.54,8.59c-.59-.66-.06-1.72-.16-2.53-.03-1.4-.19-2.86,1.54-3.23,1.35-.14,2.7-.35,4.05-.39.91-.02,1.83.01,2.74.04,1.6.05,3.2.11,4.79-.11.79-.04,1.59-.02,2.38,0,1.07.02,2.14.05,3.19-.06.35.02.71-.03,1.07-.07.62-.08,1.24-.16,1.82.09,1.08.62.95,3.45.92,4.6-.09,1.05-1.39,1.95-1.91.67-.13-.39.15-.71.24-1.07,0-.88-.12-1.77-.21-2.65-1.59.22-3.18.21-4.77.19-1.54-.02-3.07-.03-4.59.17-.89,0-1.8-.04-2.71-.07-2.38-.1-4.78-.2-7.03.43-.25.9.22,4.02-.86,4.15-.03,0-.06,0-.09,0-.15,0-.3-.04-.43-.14Z"/>
        <path d="M35.46,3.06c-.45-.45-.33-1.22-.35-1.81.22-1.14,1.67-1.01,2.96-.88.61.06,1.19.12,1.6.05,1.87-.09,3.76-.25,5.62-.14,1.01-.36,2.11-.29,3.17-.2.61.14,1.33.21,1.75.72.39.56.53,1.61-.12,2.03-.62.38-1.42-.24-1.25-.93-1.21-.42-2.45-.14-3.65.04-1.22-.08-2.45-.03-3.69.02-1.67.07-3.34.14-4.99-.13.15.64,0,1.38-.56,1.38-.14,0-.3-.04-.49-.15Z"/>
      </g>
      <g id="LABELS">
        <g id="P_pad_labels" data-name="P pad labels">
          <g id="P0">
            <text class="cls-1" transform="translate(186.74 193.6)"><tspan x="0" y="0">5</tspan></text>
            <text class="cls-1" transform="translate(188.19 143.92)"><tspan x="0" y="0">4</tspan></text>
            <text class="cls-1" transform="translate(142.11 142.71)"><tspan x="0" y="0">3</tspan></text>
            <text class="cls-1" transform="translate(95.9 141.54)"><tspan x="0" y="0">2</tspan></text>
            <text class="cls-1" transform="translate(52.19 141.23)"><tspan x="0" y="0">1</tspan></text>
            <text class="cls-1" transform="translate(50.74 191.2)"><tspan x="0" y="0">0</tspan></text>
            <text class="cls-1" transform="translate(170.35 33.72)"><tspan x="0" y="0">P11</tspan></text>
            <text class="cls-1" transform="translate(58.35 33.38)"><tspan x="0" y="0">P10</tspan></text>
            <text class="cls-1" transform="translate(158.34 359.74)"><tspan x="0" y="0">P9</tspan></text>
            <text class="cls-1" transform="translate(67.03 361.32)"><tspan x="0" y="0">P8</tspan></text>
            <text class="cls-1" transform="translate(212.9 324.32)"><tspan x="0" y="0">P7</tspan></text>
            <text class="cls-1" transform="translate(160.27 312.51)"><tspan x="0" y="0">P6</tspan></text>
            <text class="cls-1" transform="translate(112.8 315.85)"><tspan x="0" y="0">P5</tspan></text>
            <text class="cls-1" transform="translate(67.15 303.51)"><tspan x="0" y="0">P4</tspan></text>
            <text class="cls-1" transform="translate(18.81 318.18)"><tspan x="0" y="0">P3</tspan></text>
            <text class="cls-1" transform="translate(155.39 241.87)"><tspan x="0" y="0">P2</tspan></text>
            <text class="cls-1" transform="translate(116.95 240)"><tspan x="0" y="0">P1</tspan></text>
            <text class="cls-1" transform="translate(69.26 241.88)"><tspan x="0" y="0">P0</tspan></text>
          </g>
        </g>
      </g>
    </g>
  </g>
</svg>