<?xml version="1.0" encoding="UTF-8"?>
<svg id="Laag_2" data-name="Laag 2" xmlns="http://www.w3.org/2000/svg" viewBox="0 0 240.87 376.94">
  <defs>
    <style>
      .cls-1 {
        fill: #fafafa;
      }

      .cls-2 {
        fill: #6ebde2;
      }

      .cls-3 {
        fill: #7cbe6e;
      }

      .cls-4 {
        fill: #5e5f5e;
      }

      .cls-5 {
        fill: #fff;
      }

      .cls-6 {
        fill: rgba(1, 1, 1, .51);
      }

      .cls-7 {
        fill: #bcdaa8;
      }

      .cls-8 {
        fill: #f195af;
      }

      .cls-9 {
        fill: #8cc68f;
      }

      .cls-10 {
        fill: #7296ce;
      }

      .cls-11 {
        fill: #d6d7d7;
      }

      .cls-12 {
        fill: #d73931;
      }

      .cls-13 {
        fill: #7462a8;
      }

      .cls-14 {
        fill: #f9b116;
      }

      .cls-15 {
        fill: #010101;
      }

      .cls-16 {
        fill: #ee761c;
      }

      .cls-17 {
        fill: #565da6;
      }

      .cls-18 {
        fill: #e73a20;
      }

      .cls-19 {
        fill: #72cbf4;
      }

      .cls-20 {
        fill: #f8b57e;
      }

      .cls-21 {
        fill: #b8a8d2;
      }

      .cls-22 {
        fill: #eed4b2;
      }

      .cls-23 {
        fill: #b6b6b5;
      }

      .cls-24 {
        fill: #a4a7a4;
      }

      .cls-25 {
        fill: #727472;
      }
    </style>
  </defs>
  <g id="Laag_1-2" data-name="Laag 1">
    <path class="cls-4" d="M239.05,304.24c-1.04,22.18-3.16,44.47-2.49,66.65-.95.43-.58,1.77-.61,2.61-21.35-1.19-42.6,1.85-63.99.99-23,1.33-46.19-1.91-69.26-.92-22.24.12-44.36,1.3-66.56,2.05-9.74-.56-19.42-2.34-29.17-2.75-.69-.28-1.27-1.43-1.96-1.69-1.65-35.35-.05-70.8-.83-106.25-2.07-44.15-.38-88.24.47-132.4.35-27.44-3.05-54.72-1.93-82.15-.93-13.26-2.03-26.62.94-39.6.07-.06.14-.13.19-.21,34.99-2.01,70.32.55,105.45-.98,12.26-1.5,24.58-.29,36.87-.23,10.08-.35,20.05-1.4,30.16-.21,18.95-.46,37.71-1.76,56.59-.18.15.52.75.51,1.1.81.55.81.48,1.83.53,2.77.6,8.06,1.85,15.93,1.12,24.04,2.85,16.85.13,33.67.97,50.54,3.11,72.34-.32,144.72,2.41,217.11Z"/>
    <path class="cls-13" d="M138,27.4s.07.07.09.11c-.52.02-1.04.08-1.55.15.29-.51,1.02-.7,1.46-.26Z"/>
    <path class="cls-13" d="M135.99,28.11s.03.02.04.03c-.01-.01-.03-.02-.04-.03Z"/>
    <path class="cls-13" d="M135.97,28.1s-.02-.02-.03-.02c.01.01.03.03.04.04,0,0-.01-.01-.02-.02Z"/>
    <path class="cls-13" d="M148.9,29.03c-.34.02-.67.04-1.01.06-.12-.56-.25-1.12-.36-1.68,1.19-1.08,1.37.77,1.36,1.62Z"/>
    <path class="cls-13" d="M163.72,30.37s.02.08.03.12c-.03,0-.05,0-.08-.01,0-.13,0-.25-.01-.38.02.09.04.18.07.27Z"/>
    <path class="cls-13" d="M163.72,30.37s.02.08.03.12c-5.32-.55-10.59-2.2-15.95-1.85-.12-.53-.23-1.06-.33-1.6,5.59-.91,10.68,1.89,16.09,2.62.05.24.11.48.17.71Z"/>
    <path class="cls-13" d="M138.28,26.74c-.07.25-.12.51-.17.77-.9.04-1.8.18-2.69.3-.02-.16-.03-.32-.04-.49.12-.06.26-.08.39-.06.73-.5,1.65-.66,2.51-.52Z"/>
    <path class="cls-13" d="M156.09,29.09c.3.13.6.27.9.41-2.86-.52-5.75-.72-8.65-.44-.16-.39-.33-.78-.45-1.19h0c.15-1.63,1.47-.18,1.59.71,0,0,.01,0,.02,0,.08-.07.17-.12.26-.16-.09-.96,1.22-1.17,1.59-.35.91-.14,1.84.33,2.72.53.68-.38,1.38.29,2.03.48Z"/>
    <path class="cls-13" d="M159.31,29.79s.05.03.08.05c-.53-.07-1.06-.14-1.59-.21.18-.05.37-.04.56,0,.32-.13.68-.01.96.17Z"/>
    <path class="cls-2" d="M140,22.56c-1.48.07-2.95.14-4.43.27.04-.13.08-.26.13-.39,1.43,0,2.87.17,4.3.12Z"/>
    <path class="cls-2" d="M163.05,22.76s0,.07,0,.1c-2.1.13-4.18-.43-6.29-.35-.01-.14-.03-.28-.04-.41.41.03.82.07,1.23.09h-.11c1.73.1,3.46.2,5.19.22,0,.12,0,.24.01.35Z"/>
    <path class="cls-2" d="M152.37,21.79s.01.06.02.09c-1.92-.08-3.84.41-5.76.21,1.91-.18,3.82-.4,5.73-.3Z"/>
    <path class="cls-2" d="M140.44,22.51s.07,0,.1,0c-1.41.16-2.84.08-4.24.27,1.36-.32,2.76-.33,4.15-.27Z"/>
    <path class="cls-17" d="M152.39,21.88c-1.98-.09-3.96.45-5.92.19-1.42-1.26-4.16-.8-5.53.41-1.78.16-3.58.18-5.36.35,1.05-3.58,4.62-8.24,8.63-5.94,1.5.36.71,1.54,1.81,1.85,1.56-.25.79-2.23.97-3.3,1.16,0,2.31.04,3.46.11.96,2.01,1.39,4.18,1.95,6.33Z"/>
    <path class="cls-22" d="M95.73,69.42c1.03-9.32,1.87-9.07-7.49-9.58-2.28-.34-23.45-.86-22.48,1.53-.74,1.99-.25,4.48-.41,6.63-.3,5.94-1.63,8.11,5.59,7.43,7.18.17,14.52-1.09,21.65.17,3.63.64,2.71-3.94,3.14-6.19ZM127.54,88.63c.04-10.92-.9-21.81-.18-32.72-.2-2.37-3.62-1.41-5.25-1.67-1.84.83-24.91-1.48-19.23,2.01-2.1,9.65-1.25,20.05-1.38,29.99-1.18,7.79,3.54,5.74,8.94,5.2,4.4-.09,8.79.04,13.17.4,2.95.28,3.99.02,3.94-3.2ZM162.6,88.57c3.87.42,3.35-1.92,3.22-4.81-.73-7.22-.11-14.43-.09-21.67.61-5.42-6.75-2.38-9.94-3.02-3.04.26-20.34-1.92-20.32,1.12-.36.18-.37.74-.03.95-.47,35.65-6.01,25.46,27.16,27.44ZM170.07,82.16c1.47-.83-.7-1.17-1.59-.88.07-.35.15-.7-.29-.83-.94-.13-.7,1.67-.52,2.21.23.81,1.3.23.89-.46.5-.03,1.01-.05,1.51-.04ZM171.32,89.77c.53-.71-.65-1.34-.84-.44-.05,0-.1.01-.15.02.14-.92-1.17-1.24-1.06-.19-.07-.02-.15-.04-.22-.06.25-2.64-2.15-1.56-.85.29.15.88,2.61,1.26,3.12.39ZM170.34,85.7c2.08.18.3-2.97.07-.86-.12.01-.25.01-.37,0-.05-.86-1.3-1.21-1.19-.15-.02,0-.04.01-.05.02-.31-.42-.13-1.15-.91-1-.96.34.24,2.58.99,1.75.42.24,1.02.21,1.46.22ZM170.26,87.06c1.79,2.55,1.38-2.99-1.08-.55-.2-.36-.52-.87-.99-.58-.62.44.15,1.28.54,1.63.78.52.96-.17,1.53-.51ZM171.47,92.94c1.07-.35.08-1.25-.67-.94,1.3-1.23.18-2.66-.73-.83-2.32-1.79-4.55,3.2.63,1.79.24.16.5.11.61-.02.06,0,.11,0,.17,0ZM171.35,60.18c1.76.32,1.87-2.51.49-3.01-1.01-.87-4.04.09-2.62,1.48.03,1.01,1.26,1.49,2.14,1.53ZM171.08,62.7c1.51.29,2.34-1.51.93-2.27-.78-.19-2.08-.82-2.69-.08-.6,1.31.56,2.19,1.76,2.35ZM171.83,55.54c.6.25,1.05-.63.48-.96-.86-.34-1.87.03-2.77-.01.35-1.1-1.42-1.57-1.08-.29.17.88-.55,2.48.41,2.92.71.03.71-.73.68-1.39.76.02,1.54-.04,2.27-.26ZM172.82,65.15c1.26-.6-.72-3.56-2.32-1.88-1.24-2.13-3.41.86-1.97,1.93.45.96,3.76.81,4.28-.06ZM186.01,60.24c2.17-2.52-1.11-5.6-3.79-5.47-.94.17-2.14-1.32-2.72-.15-12.19,3.97-.2,12.94,6.5,5.62ZM187.21,89.41c3.02-5.7-6.64-7.63-10.36-5.72-9.84,7.44,5.62,11.17,10.36,5.72ZM195.94,61.42c.71.03,1.54-.05,1.53-.97-.41-1.19.22-4.88-1.7-4.36-1.75-.01-3.51.56-5.15.91-.91,5.93-.23,6.17,5.31,4.42ZM214.04,84.48c-.89,2.4,1.53,17.17-1.93,15.46-10.05-.28-20.18-.65-30.24.24-12.32,1.84-24.57-.53-36.89-.74-26.81,2.21-53.46-1.69-80.29.23-.97-16.89.98-34.02,1.03-50.74,15.6.1,31.23,0,46.83-.3,19.64,1.02,39.49,2.52,59.12,1.29,13.13.33,26.14-.56,39.1-2.47.96.12,2.85-.56,3.08.61-.27,2.97-.18,5.95-.22,8.93h0c0,1.22-.26,2.45.03,3.65-12.38-1.03-9.94-.47-9.98,10.75,1.46,12.35-3.46,13.45,10.36,13.08Z"/>
    <path class="cls-23" d="M94.52,62.06c.02,3.93-.6,7.88-.96,11.77-8.75-.91-17.82-.07-26.66-.07-.11-3.93.36-7.97.31-11.94,9.12-.69,18.2-.78,27.31.24Z"/>
    <path class="cls-23" d="M125.49,72.97c.07,5.72.68,11.5.17,17.19-7.13-.37-14.29-.95-21.36.26-1.85.38-.98-2.86-1.11-3.95-.12-9.7-.33-19.52.76-29.15.52-.17.65-.93.22-1.27,7.14.2,14.32-.11,21.47.05-.29,5.61-.38,11.23-.14,16.86Z"/>
    <path class="cls-23" d="M163.89,81.28c.05,1.84.49,3.7.2,5.53-35.07-2.5-26.15,9.72-27.47-26.14,9.1-.59,18.24.26,27.32.05.16,6.86-.45,13.7-.05,20.55Z"/>
    <path class="cls-5" d="M183.21,56.43c6.32,3.24-5.63,7.2-7.21,3.24,1.88-6.19,6.11-1.19,7.21-3.24Z"/>
    <path class="cls-5" d="M183.05,84.89c6.06,1.25,2.38,5.6-2.02,5.46-1.68-.41-5.31.32-5.7-1.93,1.3-4.66,4.29-3.46,7.72-3.53Z"/>
    <path class="cls-23" d="M220.38,61.2c.43,7.57-1.27,15.12-.06,22.65-4.54-.95-9.42-.67-14.1-.72-.44-7.1-1.45-14.35-.87-21.43,3.38.24,6.78.14,10.15.42,1.86-.2,3.55.88,4.87-.92Z"/>
    <path class="cls-18" d="M195.66,57.3c.2.91.29,1.84.42,2.75-1.45.31-2.87.86-4.35,1.01-.11-1.01.01-2.03-.11-3.04,1.4-.1,2.63-.79,4.04-.73Z"/>
    <path class="cls-18" d="M108.21,36c1.19-2.13,1.82-7.71-1.42-8.1-1-1.15-1.97,1.39-2.26,2.17-1.19,2.33.45,9.58,3.68,5.93ZM131.84,35.5c.17,1.63.28,3.28-.12,4.89-2.88-6.53-2.23-2.9-6.42-2.11-2.61,1.24-6.04-2.38-7.94.26-2.51-5.08-1.81-4.5-5.5-.64-4.62,6.13-13.69,3.69-13.03-4.39-.08-3.53,2.76-7.23,2.73-10.5-3.03-2.26-4.17,2.25-5.22,4.3-1.54,3.57-9.91,16.27-8.68,4.83-.18-2.13,2.75-7.02-.1-7.86-7.29,1.56-9.06-2-5.68-8.19,6.7,1.31,14.44-.68,21.45.1.4,2.52-.41,5.1,2.97,2.82.73,1.52.13,3.93,1.33,5.04,1.63,2.42,5.42,3.01,7.14.45,1.06.83,2.05,1.29,3.18.23.09,3.04,1.84,12.13,6.2,8.81,2.82-2.97-1.44-10.13,3.68-10.76,2.54,3.63,3.59,8.34,4.01,12.72Z"/>
    <path class="cls-9" d="M62.12,138.81c1.8-7.57-6.34-14.78-13.34-10.63-.13-.5-.88-.45-.99.04-.88.67-1.79,1.63-2.16,2.64-8.34,11.69,13.04,21.85,16.5,7.94ZM66.85,140.41c0,4.65.29,9.35-.47,13.95-8.17.29-16.36-.36-24.5-.24-1.78-9.63.3-19.77-.28-29.55.4-.31.17-.88.42-1.28,7.61.91,15.31-1.17,22.87.22,3.18-.01,1.11,13.66,1.97,16.91Z"/>
    <path class="cls-9" d="M106.01,145.35c8.65-9.65-4.26-21.97-13.89-15.3-9.27,9.07,4.36,24.46,13.89,15.3ZM112.23,124.06c.7,8.91-.5,17.92-.42,26.85.33,4.99-3.95,2.14-7.1,2.97-25.05-1.23-17.09,5.75-17.8-29.41,1.54-.67-.37-2.08,3.39-1.06,6.07,2.09,18.44-2.6,21.92.65Z"/>
    <path class="cls-9" d="M153.34,141.99c3.24-8.58-9.3-17.42-15.55-10.44-8.53,13.13,10.44,22.76,15.55,10.44ZM157.59,150.26c.96,4.35-2.61,4.97-6.09,4.29-3.4-.29-6.79-.72-10.21-.92-2.78-.27-5.93.62-8.54-.28-2.32-9.66.84-20.55-.86-29.99,0-.06,0-.11.02-.17,8.3-.68,16.96.06,25.27.65-.35,8.79-.45,17.66.41,26.43Z"/>
    <path class="cls-9" d="M56.62,194.53c12.7-8.74-3.91-24.24-12.26-12.17-5.36,8.11,4.2,17.94,12.26,12.17ZM63.85,173.11c3.79-.33,4.54.1,4.28,3.99-.18,7.35-.06,14.7-.05,22.06.03,1.62-.06,4.23-2.33,3.76-8.06.17-16.47-1.95-24.31-.35,0-9.93.23-19.92.57-29.84,7.28.89,14.58.28,21.83.39Z"/>
    <path class="cls-9" d="M58.32,182.43c6.55,8.9-10.4,18.18-13.73,7.46,1.77-.23,4.91-.14,4.11-2.78.58-2.96-2.48-2.19-4.29-1.54.28-1.33,1.02-2.53,1.8-3.63.41.02.63-.37.88-.64.49.34,1.15-.21.92-.76,3.27-1.46,8.27-1.67,10.32,1.89Z"/>
    <path class="cls-9" d="M59.51,131.82c7.77,15.45-18.25,16.49-13.77,1.28.18.07.37.11.56.12,1.32.87,3.59,3.01,3.84.15,1.41-2.12.44-2.47-1.3-3.69,3.78-2.22,7.94-1.3,10.67,2.14Z"/>
    <path class="cls-9" d="M107.22,137.51c.33,14.95-21.4,8.99-16.21-3.73,1.04.16.88-1.16,1.43-1.68.29.01.53-.28.47-.56,3.19-3.26,10.37-1.61,12.88,1.96-2.14,1.13-5.07,2.38-2.77,5.02.93.68,2.52-1.08,4.19-1.01Z"/>
    <path class="cls-9" d="M151.11,134.54c.88,1.66,1.34,3.49,1.2,5.37-1.7-.93-3.97-2.58-4.68.31-1.31,2,2.25,2.45,3.19,3.64-1.57,2.43-4.37,2.29-6.91,2.19-7.33-.35-8.82-9.78-4.64-14.58.87.41,1.28-.98,2.2-.88,3.37-.47,7.77.92,9.63,3.94Z"/>
    <path class="cls-3" d="M140.54,226c3.86,1.09,1.41,7.41.69,10.07-.97,3.44-1.13,7.15-3.19,10.22-6.18,6.09-8.83,15.16-14.39,21.51-3.81-1.9-4.96-9.97-8.48-13.27-5.4-6.52-11.53-13.63-12.06-22.47.97-.8-.51-2.04.42-3.02,6.85-2.51,13.98-2.91,21.23-2.7,5.25.14,10.63-1.61,15.8-.35Z"/>
    <path class="cls-3" d="M50.56,274.68c-3.17,9.77-9.24,20.52-8.22,31.36-11.71-.23-22.7-4.05-33.17-9.01-.8-5.7-.66-11.33.02-17.04,1.3,2.18,2.91,10.77,5.87,9.97,3.95-2.22,13.22-2.35,15.52,2.12,6.66,9.85,4.98-25.37,5.45-28.42,4.19-.19,11.5,7.98,14.54,11.02Z"/>
    <path class="cls-3" d="M234.65,282.58c.38,7.1-.56,14.18-.79,21.27-9.82,4.23-20.4,6.16-31.08,5.98.09-.52.16-1.04.26-1.56h0c5.66-15.51-6.83-17.39,8.31-21.6,8.14-2.74,14.83-8.82,22.59-12.06,1.18,2.38.58,5.37.7,7.97Z"/>
    <path class="cls-12" d="M45.87,322.15c.17,1.42.29,2.84.51,4.25-12.16-.32-24.22,1.47-36.38,1.53-1.26-10.28.76-20.59-.83-30.9,10.47,4.97,21.46,8.79,33.17,9.01,1.03,5.4,2.15,10.79,3.53,16.11Z"/>
    <path class="cls-14" d="M49.18,337.21c3.77,6.39-9.87,8.94-13.52,12.44-6.12,5.16-13.81,8.12-19.35,13.95-1.36,2.05-2.39,4.22-4.69,5.43-.36-.12-.75.07-1.13,0-3.51-13.07,2.04-27.6-.49-41.11,12.16-.06,24.22-1.85,36.38-1.53.87,3.64,2,7.17,2.8,10.82Z"/>
    <path class="cls-14" d="M173.64,240.16s.04.08.05.13c-3.51-.11-7.02-.29-10.51-.68-4.55-2.84-10.38-3.12-15.52-4.45.25-2.76,2.21-5.42,2.5-7.9,1.64-2.27,3.53-4.83,6.27-5.82,12.15-5.41,13.13,11.26,17.2,18.72Z"/>
    <path class="cls-14" d="M234.09,335.51c-.36,11.74.16,24.02-2.57,35.39-2.74-2.26-2.57-6.58-4.76-9.42-4.34-6.97-13.37-3.16-19.54-6-4-5.1-5.03-12.39-6.88-18.56-.64-3.14,2.89-5.24,3.16-8.29,10.22,2.18,20.46,4.29,30.58,6.88Z"/>
    <path class="cls-16" d="M139.41,304.82s-.03,0-.04,0c.01,0,.03,0,.04,0Z"/>
    <path class="cls-16" d="M153.52,300.29s-.05.03-.07.05c.02-.02.05-.03.07-.05Z"/>
    <path class="cls-16" d="M168.7,278.2s0,.02-.01.04c0-.01,0-.02.01-.04Z"/>
    <path class="cls-16" d="M64.12,308.08s.02,0,.03,0c-.02,0-.04,0-.06,0,.01,0,.02,0,.03,0Z"/>
    <path class="cls-16" d="M54.56,306.66s-.01,0-.02,0c.02,0,.03,0,.05,0-.01,0-.02,0-.03,0Z"/>
    <path class="cls-16" d="M48.61,305.83s-.02,0-.03,0c.01,0,.02,0,.03,0,0,0,0,0,0,0Z"/>
    <path class="cls-16" d="M96.62,305.17s0,.1,0,.14c-10.91.05-21.68,1.4-32.47,2.77,0,0,.01,0,.02,0-.03,0-.07,0-.1,0,0,0,0,0,.01,0-4.89.26-9.86.16-14.67-.81.03,0,.05.01.08.02-.8-.16-1.59-.33-2.38-.52-.09-.45-.15-.89-.2-1.35h0c0-5.79,4.06-10.88,5.28-16.5,3.59-5.75,2.08-14.77,8.53-18.37,4.44-3.75,10.17-2.92,15.52-2.3,19.85-2.07,20.36,22.69,20.36,36.92Z"/>
    <path class="cls-16" d="M169.62,272.24c.11.1.23.2.34.3-2.61,16.99-15.81,33.97-34.46,32.34-.05-.42-.1-.84-.15-1.25h0c-3.39-12.64,8.83-21.71,14.35-31.9.22-.4.45-.9.33-1.35,5.83-4.58,13.49-4.12,18.74,1.14.29.23.58.47.86.72Z"/>
    <path class="cls-16" d="M170.68,260.57c.15,1.37.22,2.76.16,4.13-5.48-5.26-13.3-3.52-19.7-1.08-3.42.99-1.5-10.03-2.22-12.39,0,.05,0,.1,0,.15-.05-4.24-.99-8.39-1.37-12.61-.02-.23-.03-.46-.04-.69-.02-.48-.03-.95-.02-1.43h0c0-.51,0-1.02.15-1.51,17.93,1.99,20.88,8.43,23.02,25.42Z"/>
    <path class="cls-21" d="M106.3,257.45c-.4-2.82.26-7.12-2.96-8.29-6.56-.65-13.73-.72-20.19.75-4.57.65-1.81,6.05-.69,8.67.33,2.51.41,3.29,3.22,3.27.08.41.6.69.95.42,3.95.75,8.2-.31,11.99.2,2.71.86,5.84,1.95,6.83-1.82.93-.76.94-2.07.85-3.22ZM111.15,257.84c7.41,10.01.46,6.81-6.79,8.87-14.49,2.71-5.32.61-16.32-2.95-11.33-1.39-25.71-5.51-33.69,5.31-2.49-7.07-8.15-14.6-8.27-21.84,22.14-13.25,16.07-6.53,3.37-27.49,9.11.51,18.02,3.17,26.95,4,5.04,6.54,14.07,5.14,21.37,6.05-.05,11.06,7.87,19.24,13.39,28.05Z"/>
    <path class="cls-12" d="M93.12,260.25c.51.27,1.03.5,1.55.72-2.1.03-4.2.16-6.3.13-.75-1.19-2.75-.68-3.97-1.08-.24-2.84-2.26-5.11-2.01-8.07,2.38-.99,4.95-1.24,7.5-1.38-4.6,1.07-3.56,11.29,1.33,9.95.65.1,1.52.57,1.89-.26Z"/>
    <path class="cls-12" d="M103.07,250.86c1.31.52,1.03,2.36,1.24,3.53-1.55-.93-3.33-1.31-5.13-1.55-.25-.94-.8-1.84-1.67-2.3,1.93-.17,3.97-.38,5.56.32Z"/>
    <path class="cls-12" d="M145.71,267.96c-2.16,3.85-4.16,7.75-6.73,11.37-.05-.04-.1-.08-.16-.1-.12-.74.06-1.49.03-2.23,3.23-.25,3.56-5.73,1.47-7.6,0,0,.02.02.03.02-.13-.14-.27-.26-.41-.38.01,0,.02-.02.04-.02-7.73-6.82-15.71,5.28-8.58,9.63-.46,1.61-.51,3.27-.75,4.92-2.24-1.22-6.98-3.48-6.14-6.03,3.36-5.53,6.78-11.09,9.9-16.8.38-.64,1.71.75,2.24.93,3.22,1.63,6.62,3.67,9.07,6.3Z"/>
    <path class="cls-19" d="M112.21,358.79c1.39,3.11,1.15,7.87-2.77,8.83-8.98,2.03-18.3,2.99-27.5,3-15.24.18-30.65.89-45.81.88.13-.28.12-.63-.04-.89,1.44-1.95,2.77-4.31,2.01-6.8,14.78-.74,28.9-5.17,43.36-7.93,9.49-1.99,19.23-.69,28.84-1.34.63,1.42,1.27,2.83,1.91,4.25Z"/>
    <path class="cls-19" d="M205.82,370.81c.04.09.07.17.11.26-5.54,1.39-11.5-1.11-17.14-1.23-11.44.51-22.91,1.22-34.38,1.55.05.05.09.1.13.16,0,0,0,0,0,0-6.67-.37-15.14,1.31-20.82-2.55.02,0,.05,0,.07,0-.16-.71.05-1.54-.29-2.22.31-4.01,2.46-7.67,2.57-11.78,23.19,1.88,46.64,2.05,69.14,8.68,0-.03.01-.06.02-.09-.48,2.38-.28,4.97.59,7.2Z"/>
    <path class="cls-19" d="M163.31,28.52c.13.66.28,1.31.44,1.96-5.25-.73-10.52-1.95-15.85-1.39-.89-2.21-.17-5.03-1.39-6.99.04,0,.09,0,.13-.01t0,0c1.91.2,3.83-.29,5.76-.21.33,1.29.71,2.57,1.26,3.79,1.32,2.95,4.07.34,3.23-2.01h0c-.03-.39-.08-.77-.11-1.15,2.11-.08,4.19.49,6.29.35-.13,1.89.09,3.78.25,5.66Z"/>
    <path class="cls-19" d="M140.88,22.52c-1.43,1.26-2.46,3.15-2.76,4.99-.9.04-1.8.18-2.69.3-.11-1.64-.34-3.38.15-4.98,1.76-.13,3.54-.25,5.3-.3Z"/>
    <path class="cls-20" d="M196.95,185.29c.53,1.19.49,2.5.31,3.77-1.09-1.2-2.09-1.14-2.71.42-1.5,2.67-.73,2.7,1.68,3.86-4.92,10.72-22.24-5.69-10.79-11.12.25.07.53-.12.57-.38.62-.64,1.72-.24,2-1,3.56-.58,7.36,1.15,8.94,4.46Z"/>
    <path class="cls-20" d="M196.87,195.11c8.42-14.78-13.71-22.71-16.6-7.07.17,7.19,11.85,14.22,16.6,7.07ZM203.73,203.73c.2,1.02-.6.95-1.36,1.09-8.05-.77-16.18-.11-24.24-.63.11-6.53-1.9-13.07-1.16-19.6-.17-3.53,1.31-7.37.38-10.77,8.36-.92,16.85-.58,25.23-.19.44.04.89.1.9.64-.31,9.83-.41,19.63.25,29.46Z"/>
    <path class="cls-20" d="M196.77,138.15c.43,6.45-4.01,12.6-10.48,8.03.88-1.11,1.92-2,2.8-3.11.58-1.14-.94-1.32-1.28-2.29-1.37-1.46-3.09,1.7-4.26,2.42-2.84-3.14-1.35-7.57,1.22-10.37,1.27.94,1.6-1.87,3.1-1.73,3.84.23,8.69,2.69,8.89,7.05Z"/>
    <path class="cls-20" d="M197.2,143.67c1.33-3.79,1.52-9.14-2.43-11.4-2.65-1.48-6.75-4.12-9.33-1.29-13.25,8.03,5.99,27.52,11.76,12.69ZM202.07,127.14c-.06,8.9.25,17.91-.79,26.77-.23.15-.41.36-.53.61-6.98.15-14.04.09-21.05.3-2.62.02-2.54-.8-2.55-3.08-.36-8.88-2.23-17.86-.38-26.68.59-.33.29-1.19.44-1.75,8.2.59,16.61.8,24.67.63.25,1.04.16,2.15.19,3.21Z"/>
    <path class="cls-8" d="M110.3,354.54c-9.61.65-19.35-.65-28.84,1.34-14.46,2.76-28.58,7.19-43.36,7.93-1.08-2.49-3.27-4.6-5.42-6.25,8.07-5.48,18.21-6.75,26.38-12.02,12.78-4.35,26.23-11.32,40.06-10.57,9.6-1.01,6.11,12.13,11.18,19.56Z"/>
    <path class="cls-8" d="M207.02,359.82c.11,1.06-1.9,2.48-1.81,3.88-22.5-6.64-45.95-6.8-69.14-8.68.06-.49.11-.98.17-1.48h0c.63-5.81,3.4-11.16,4.13-16.95,8.45,9.89,17.69,3.34,28.61,6.62,10.24,1.88,17.41,10.87,27.76,11.8,5.74-.12,3.55,3.52,10.27,4.81Z"/>
    <path class="cls-8" d="M192.95,284.39c-.41.54.36,1.35-.03,1.95-10.07-3.82-13.97-16.04-21.92-21.54-.05-.03-.1-.06-.16-.1-.37-8.65-1.67-18.44-7.66-25.11,3.49.39,7,.57,10.51.68,6.93,14.56,11.15,30.11,19.27,44.11Z"/>
    <path class="cls-17" d="M163.07,17.51c.04,1.77-.1,3.57-.01,5.35-2.1.13-4.18-.43-6.29-.35-.03-2.46-.43-5.73,1.45-7.59,2.08-.47,5.2-.26,4.85,2.6Z"/>
    <path class="cls-17" d="M234.06,331.63c.02,1.29.03,2.59.03,3.88-10.13-2.59-20.36-4.71-30.58-6.88,1.49-6.24-1.5-12.53-.73-18.79,10.68.18,21.26-1.75,31.08-5.98-.7,9.25.43,18.5.2,27.78Z"/>
    <path class="cls-10" d="M199.11,350c0,.17-.04.3-.15.39-10.74-.45-17.59-11.06-28.42-12.15-5.79-.9-11.66-1.19-17.51-1.44-14.57-3.05-15.48-19.85-17.53-31.91,18.66,1.62,31.85-15.35,34.46-32.34,5.72,5.21,9.27,12.74,16.85,15.73,4.26,2.61,9.13,4.92,12.11,9.06,1.57,3.1-.13,6.97-.39,10.25-1.05,6.48-.02,13.04-.97,19.52-1.59,6.28-3.12,12.29-.11,18.49-.15.68.29,1.36.58,1.97.26.63.11,1.72.95,1.89.07.18.12.36.13.55Z"/>
    <path class="cls-10" d="M96.45,316.45c.18,3.82,1.2,7.55,1.11,11.38-6.19,1.88-13.48,1.71-19.84,3.92-4.04,1.1-7.98,2.52-11.9,4.01-3.24.99-9.46,6.43-10.73.79,1.01-.74-.09-2.04-.14-3.02-3.29-8.69-5.11-17.88-7.83-26.75.79.2,1.58.36,2.38.52-.03,0-.05-.01-.08-.02,15.7,2.87,31.39-2.52,47.21-1.96,0-.05,0-.1,0-.14.22,3.79-.16,7.49-.17,11.28Z"/>
    <path class="cls-10" d="M165.39,36.66c-2.27-1.42-3.1,1.52-3.73,3.12-.25-.57-1-1.03-1.53-.54-.13-.54-.17-1.09-.25-1.63-.03,0-.06-.01-.08-.02-1.32-8.48-4.98-4.66-6.8,1.01h0c-.06-2.43-1.82-2.3-2.67-.33-.14-.64-.58-.9-.96-.87,1.89-.9,4.12-5.72.73-5.77-.02-.08-.04-.16-.05-.23-.47.35-1.02.65-1.6.78-.12-1.04-.33-2.06-.55-3.08,5.33-.56,10.6.66,15.85,1.39.08.31.16.63.24.94h0c.45,1.75.96,3.47,1.4,5.23Z"/>
    <path class="cls-10" d="M150.3,33.09c-.06,3.56-4.95,4.78-7.87,4.79-5,.03-6.51-5.17-6.92-9.28h0c-.03-.26-.06-.53-.09-.79.89-.12,1.79-.26,2.69-.3-.47,6.73,7.24,8.27,12.18,5.58Z"/>
    <path class="cls-7" d="M25.82,50.07c.15-.77-1.03-1.23-1.37-.5.19-2.18-.24-7.23-2.93-7.04-3.69-4.77-12.7-3.51-13.88,2.58-1.55,4.69,1.48,10.54,6.83,10.22-.29.36-.01.97.45,1.41-5.61.01-3.33-2.19-5.4-2.9-2.51,6.75,18.3,5.72,16.31-3.78ZM32.03,36.02c.14,10.43-.46,20.87.02,31.3-8.55-.19-17.15-.85-25.67-.51-.81-10.39-.35-20.75-.02-31.13,8.53.66,17.15,1.85,25.67.34Z"/>
    <path class="cls-7" d="M26.78,96.46c.23-2.64-1.05-5.73-3.17-7.26-2.73-8.31-15.52-1.89-14.42,5.28,1,8.55,15.96,4.58,14.81-3.04.19.25.38.51.53.78-.65,3.42-1.49,8.76-6.38,8.22-9.15,2.09-12.25-8.91-5.82-14.38.58-.74-.58-1.63-1.15-.89-.46.62-1.05,1.11-1.54,1.71-9.6,13.65,11.75,22.03,15.76,9.36-.24,4.53-4.17,8.47-8.61,6.99-1.2.99.65,1.68,1.48,1.83,4.79.52,8.07-4.29,8.49-8.61ZM32.77,101.86c.02,2.66.66,5.3.61,7.96-8.94-.45-18.23.23-26.98-1-.31-8.95.55-17.86.74-26.8.49-.35,0-1.1.08-1.6,8.34.05,16.61-.65,24.93-.89.39,7.43.63,14.88.62,22.33Z"/>
    <path class="cls-7" d="M15.68,87.68c4.85-3.36,8.62,3.49,5.63,7.35-4.39,5.15-14.66,2.11-9.2-5.14.98.16.99-1.07,2.15-1.11.37-.03.73.15,1.08.23.87.25,1.22-1.13.33-1.33Z"/>
    <path class="cls-7" d="M21.39,46.98c.1,3.29-3.12,6.02-6.11,6.75-6.79,1.16-8.68-9.06-3.27-11.79.58.82,1.52-.18,2.2-.39.99-.26,2.46.94,3.08-.23,2.57,1.05,4.01,2.83,4.1,5.66Z"/>
    <path class="cls-7" d="M22.92,46.47c.72,3.8-.8,8.72-5.18,9.19-2.05.1-1.14.33-2.18-.38,3.95-.77,7.76-4.63,7.35-8.81Z"/>
    <path class="cls-7" d="M24.13,51.25c.2,1.49-.51,2.88-1.74,3.66.79-1.06,1.39-2.32,1.74-3.66Z"/>
    <path class="cls-1" d="M135.05,325.7c2.3,12.26-6.67,22.99-5.95,35.26-.59,3.78,1.37,10.69-4.34,10.51-1.64.03-3.57-.04-4.7-1.39.77-1.48-1.12-2.48-1.45-3.79-.45-7.58-4.17-14.05-6.54-21.11-2.93-6.35.45-12.63-7.84-15.04-2.97-7.01-1.08-16.88-.46-24.42-2.56-10.86-.88-22.47-6.33-32.6-.32-.67.2-.55.65-.7,5-1.37,10.21-.54,15.29-1.47,2.34-.16,5.16-1.47,7.1.42,2.08,1.71-2.51,4.86-2.27,8.13-.83,6.44,6,8.38,10.01,11.6,3.07,6.08.62,13.76,2.63,20.3.98,4.88,3.17,9.45,4.2,14.3Z"/>
    <path class="cls-11" d="M14.12,198.22c-.63,3.75.23,8.23.45,12.14,1.01,2.01,3.75.82,5.43,1.74,1.27.2,3.49.31,3.48-1.48.65-6.91.07-13.94-.31-20.87-1.6-17.95-.75-35.98-1.31-53.98.66-3.11-1.43-6.65-4.86-4.82-1.06.54-4.11-1.34-3.74.48-.52.14-.8.76.03,1.12,1.11,21.45.28,44.1.82,65.67ZM30.84,212.77c0,2.01.66,4.27.33,6.16-7.58-1.1-15.27-1.18-22.92-.82-2.1.41-1.55-2.33-1.73-3.68-.13-16.56-.24-33.18,1.38-49.68.59-13.92-.47-27.84-.43-41.74.05-.76.69-.6,1.23-.47,7.03,1.53,14.06-.14,21.1-.73-.31,30.31.33,60.63,1.04,90.94Z"/>
    <path class="cls-11" d="M229.2,135.73c-.41-1.85,1.53-5.37-1.22-5.2-1.88.09-7.44-1.42-6.69,1.74-2.06,20.02-.8,40.13-1.6,60.24.11,3.4-.87,20.13,2.93,20.17,2.14-.08,4.3-.46,6.43-.48,1.36.03,1.18-1.54,1.19-2.5-.58-19.89,1.92-40.64-.93-60.13-.29-3.26-.52-10.24-.26-10.3M234.91,142.64c.13,26.28.88,52.7-.17,78.92-7.27-1.01-14.85-.52-22.02-1.77,1.99-31.96-.61-64.17.52-96.17.53-.46.17-1.26.38-1.86,6.98.35,14.05.67,21.02.2.57,6.87.12,13.79.28,20.67Z"/>
    <path class="cls-24" d="M22.39,202.79c.08,2.67.02,5.34-.31,7.98-2.03.09-4.23-.42-6.2-.8-.65-3.67-.09-7.62-.97-11.3,6.44.4,6.29-.39,6.03-6.23-.5-2.54.62-9.15-1.65-10.43-.35-2.1-2.56-.96-3.97-1.34-.5-16.2.62-32.5-1-48.65,2.09.85,4.16-1.07,5.91.49.84,14.58.6,29.39.58,44.02-1.14.21-7,1.06-4.7,2.92.89.07,1.61-.8,2.45-1.03.54-.06,1.6-.04,2.37-.26.72,7.71,1.17,15.44,1.42,23.18-1.46-.51-9.26.68-5.99,2.86.26.09.56-.01.74-.2,0,0,0,0,0,0,.13-.13.21-.33.2-.52,1.64-.61,3.39-.8,5.11-.69Z"/>
    <path class="cls-24" d="M229.05,170.95c-.4,13.21-.08,26.43-.36,39.64-2.12.14-4.31.62-6.42.46-2.49-18.84.21-38-.99-56.95,2.41.47,4.9.31,7.28.44.26,5.47.42,10.93.49,16.4Z"/>
    <path class="cls-24" d="M228.35,150.59c.04.88.09,1.75.14,2.63-2.4.09-4.81-.46-7.2-.47-.58-6.77.62-13.35,1.3-20.05.15-.19.21-.46.08-.77,1.75-.1,3.48-.05,5.22.14-.35,1.2-.07,2.35-.28,3.57-3.73-.3-4.14,3.24-3.66,6.12.67,3.39-1.1,9.98,4.46,8.52-.04.09-.06.19-.05.31Z"/>
    <path class="cls-25" d="M20.11,183.77c0-.22-.34-.22-.33,0,0,.22.34.22.33,0ZM21.85,192.82c0,1.53-.05,3.06.02,4.59-.58.48-1.49.12-2.19.31-4.02-.58-4.79,1.24-4.64-3.67.29-3.16-1.95-9.21.33-11.52,1.52-.17,3.09.52,4.62.09,0,.08,0,.15,0,.23-.39-.09-.31.56.05.39.11.59.41,1.04,1.18.69.87,2.84.24,5.95.62,8.88Z"/>
    <path class="cls-25" d="M227.65,137.21c.06,3.74.21,7.49-.27,11.21-1.43.24-3,.7-4.41.41.26-5.08-3.98-13.78,4.68-11.62Z"/>
    <path class="cls-6" d="M36.9,2.65c-2.38-2.42,9.81-.59,11.24-1.16.71-.3,1.17.7.43.97-3.85.36-7.8.05-11.67.19Z"/>
    <path class="cls-6" d="M45.59,8.6c-4.02-.2-8.05.02-12.07-.11-2.39,0-.92-2.81-.97-4.26.06-.51.78-.66,1.03-.22,5.48-1.27,11.28-.39,16.86-1.01,2.44-.53,2.1,2.15,1.77,3.73,1.06,2.69-5.07,1.61-6.62,1.87Z"/>
    <path class="cls-5" d="M206.43,363.77c-1.65-.72-.48-3.48,1.18-2.72,1.69.76.55,3.51-1.18,2.72Z"/>
    <path class="cls-5" d="M205.1,365.67c-22.74-6.46-46.55-8.77-69.84-10.12-6.74-7.87,81.84,5.99,69.84,10.12Z"/>
    <path class="cls-5" d="M37.39,364.52c-3.4-3.34,12.65-3.52,14.74-4.73,17.57-3.73,35.18-6.42,53.21-5.97,1.72.44,6.32-1.05,6.07,1.58-.62,1.29-3.5.71-4.75.83-10.5.24-21.14.57-31.56,1.73-12.47,1.97-25.22,6.14-37.7,6.56Z"/>
    <path class="cls-5" d="M8.97,327.91c2.26-4.33,23.53-1.03,29.25-1.88,1.62-.02,12.73-1.43,7.9,1.82-3.69.18-7.37.63-11.07.58-7.95-.02-16-.45-23.88.49-.94.28-2.03.15-2.2-1.01Z"/>
    <path class="cls-5" d="M41.06,307.03c-2.64.98-39.38-7.69-31.6-10.96,6.41,2.82,12.92,5.36,19.79,6.96,1.58.57,20.87,2.14,11.81,4Z"/>
    <path class="cls-5" d="M56.04,308.87c-1.61-.19-14.15-.89-8.68-3.35,9.49,1.94,18.95.53,28.47-.36,6.58-.12,13.2.4,19.73-.81,1.55-.66,3.58.75,1.6,1.86-13.6,1.73-27.44,1.68-41.12,2.67Z"/>
    <path class="cls-5" d="M135.56,306.62c-1.8-1.85,1.1-2.59,2.6-2.61,17.47-.55,28.26-16.06,31.75-31.68.9-.78,2.28.37,1.68,1.38-2.51,17.68-17.52,33.73-36.04,32.91Z"/>
    <path class="cls-5" d="M170.63,265.39c-1.47-.29-.62-1.86-.67-2.86.99-15.77-6.18-25.51-22.55-25.18-3.23-.23-1.36-3.21,1.21-2.39,11.1.48,20.56,4.68,22.84,16.51.23,3.04,2.52,12.76-.83,13.91Z"/>
    <path class="cls-5" d="M170.16,242.3c-1.56-.54-8.27-.19-6.66-2.84,3.37-.4,8.11,1.1,11.75.46,1.08-.1,1.76,1.29,1.01,2.08-1.73.94-4.14.27-6.09.31Z"/>
    <path class="cls-5" d="M203.41,310.01c-6.46-3.31,9.17-2.7,10.86-3.18,6.74-.12,13.23-1.66,19.48-4.13,8.66,4.46-27.84,8.12-30.34,7.31Z"/>
    <path class="cls-5" d="M234.25,336.48c-9.51-3.54-19.74-4.78-29.68-6.64-2.77-.08-2.2-2.53-.65-2.33,2.64.75,37.32,5.44,30.33,8.97Z"/>
    <path class="cls-5" d="M134.74,29.01c-.03-.6.91-.64.93-.04.03.6-.91.64-.93.04Z"/>
    <path class="cls-5" d="M134.64,29.36c-3.09-1.46,1.88-2.69,3.28-2.11,1.28.29.97,2.24-.34,2.11-.98-.15-1.96-.04-2.94,0Z"/>
    <path class="cls-5" d="M163.2,31.78c-1.3-.51-23.07-.32-16.08-2.95,1.82.09,20.18-.11,16.08,2.95Z"/>
    <path class="cls-5" d="M135.21,23.74c-1.4.23-1.77-1.72-.34-1.91,2.63-.17,5.41-.26,7.99.08,1.44,2.55-6.27,1.6-7.77,1.83,0,0,.13,0,.13,0Z"/>
    <path class="cls-5" d="M144.93,22.77c-.23-.26-.25-.66-.09-.96,0,0,0,0,0,0,1.08-1.59,13.23.51,6.11,1.16.02,0,.03,0,.05,0-1.97-.07-4.32.27-6.07-.2Z"/>
    <path class="cls-5" d="M163.01,23.47c-2.35-.52-5.59.35-7.51-.92-1.02-2.12,11.44-.52,7.51.92Z"/>
    <path class="cls-15" d="M30.77,220.26c-7.2-1.23-14.52-1.08-21.79-.89-3.64.73-3.68-2.01-3.75-4.8-.04-16.34-.37-32.75,1.35-49.02,1-14.53-1.15-29.3-.05-43.69,1.79-1.84,8.79.85,12-.04,3.84-.52,7.67-1.13,11.54-1.39,2.7.11,2.09,2.18.56,1.5.66,30.95.41,62.1,1.73,93.05-.07,1.78,1.35,5.47-1.58,5.28ZM31.17,218.93c-1.18-32.3-1.6-64.77-1.37-97.11-7.04.59-14.07,2.26-21.1.73-.53-.13-1.18-.29-1.23.47-.03,13.91,1.03,27.82.43,41.74-1.62,16.5-1.52,33.12-1.39,49.68.18,1.34-.36,4.09,1.73,3.68,7.64-.36,15.34-.29,22.92.82Z"/>
    <path class="cls-15" d="M13.97,181.4c-.42-16.31.39-32.57-.67-48.85-.61-.27-.62-.68-.37-.93,3.22-1.88,2.11,22.89,2.2,25.66-.68,2.14,1.74,28.25-1.16,24.12Z"/>
    <path class="cls-15" d="M20,212.11c-1.68-.93-4.42.26-5.43-1.74.1-1.06-2.03-15.24.4-11.57.77,3.67.3,7.54.92,11.18,1.98.38,4.17.89,6.2.8.89-19.75-2.35-39.43-1.16-59.2-.62-6.32-.04-12.81-.69-19.06-1.4-1.5-2.68.04-4.34-.32-.82-.1-1.68-.01-2.39-.53-.67-.36-.07-1.44.6-1.03.85.46,1.96.36,2.91.33,3.44-1.79,5.52,1.68,4.86,4.82.17,10.68.24,21.34.52,32.02-2.33,6.36,6.37,47.76-2.38,44.31Z"/>
    <path class="cls-15" d="M17.46,182.64c0-.27.43-.27.42,0,0,.27-.43.27-.42,0Z"/>
    <path class="cls-15" d="M17.5,183.34c0-.22.34-.22.33,0,0,.22-.34.22-.33,0Z"/>
    <path class="cls-15" d="M18.39,199.06c-6.75,1.35-4.43-6.17-5.24-10.36-.38-2.95-1.04-8.75,3.66-7.63,1.59.42,4.29-.86,4.75,1.36,2.27,1.28,1.16,7.89,1.65,10.43-.2,4.85,1.44,6.69-4.82,6.2ZM19.69,197.72c.7-.19,1.61.17,2.19-.31-.26-4.45.29-9.12-.65-13.48-1.04.48-1.23-.51-1.24-1.31-7.3-.54-5.56.97-5.23,7.22-.03,1.41.18,2.8.27,4.2-.15,4.9.62,3.09,4.64,3.67Z"/>
    <path class="cls-15" d="M65.45,204.35c-6.37-.44-12.74-.48-19.1-1.09-2.9-.73-6.77,3.06-6.31-2.26.23-9.54.34-19.08.84-28.6-1.09-2.6,8.32-.08,9.95-.56,5.38.37,10.81-.83,16.13-.06,3.28.44,2.59,4.25,2.49,6.65.1,6.35-.21,12.66.06,19.01-.02,2.99.26,7.51-4.05,6.9ZM65.75,202.91c3.67.2,2-5.47,2.34-7.79.07-32.87,3.23-18.74-26.07-22.4-.34,9.92-.56,19.91-.57,29.84,7.84-1.6,16.24.53,24.31.35Z"/>
    <path class="cls-15" d="M50.38,196.06c-13.58-2.22-6.97-22.29,5.88-17.32,9.27,4.39,3.8,18.84-5.88,17.32ZM50.45,194.65c13.82.29,11.1-19.96-2.45-14.11.24.55-.43,1.1-.92.76-.24.26-.47.66-.88.64-3.67,4.12-1.96,12.59,4.24,12.72Z"/>
    <path class="cls-15" d="M43.34,189.5c.1-1.71,2.94-.78,4.09-1.45-.04-.58-.11-1.17-.1-1.75-1,.02-1.94.22-2.87.58-.79.23-1.14-1.01-.34-1.23,1.29-.27,3.67-1.49,4.53-.07-.13,1.18.75,3.01-.6,3.68-1.34.2-3.74,1.35-4.7.24Z"/>
    <path class="cls-15" d="M53.83,145.55c-7.46.45-13.01-8.48-8.21-14.68.38-1.01,1.29-1.97,2.16-2.64.11-.49.86-.54.99-.04,12.98-7,19.9,16.73,5.05,17.36ZM52.95,144.06c15.69-.44,5.37-24.12-6.4-12.54-3.75,5.06.29,12.48,6.4,12.54Z"/>
    <path class="cls-15" d="M47.99,134.31c-.58-.34-1.15-.68-1.68-1.09-1.31.19-1.87-1.88-.3-1.59,1.05.26,1.85.97,2.77,1.5.15-.48.37-.94.63-1.38-3.96-2.55-2.74-4.35.75-1.06,1.46.47.34,1.79,0,2.68-.22,1.49-.9,2-2.16.94Z"/>
    <path class="cls-15" d="M59.63,156.02c-3.93-.21-7.88-.6-11.82-.46-4.59.3-8.64,1.02-7.93-5-.44-8.7.46-17.39.41-26.09-.11-2.27,1.19-2.95,3.29-2.77,6.31,2.06,21.16-3.55,24.25,2.76.15,9.96,1.14,20.02.03,29.96-.34,2.64-6.13,1.09-8.22,1.6ZM60.14,154.55c2.08-.11,4.17-.17,6.24-.19,1.26-9.42-.06-18.96.13-28.41-.13-4.91-9.54-2.51-12.86-2.63-3.87.95-7.79-.41-11.64-.03-.25.4-.02.97-.42,1.28.59,9.78-1.5,19.93.28,29.55,6.07.09,12.18-.09,18.26.43Z"/>
    <path class="cls-15" d="M109.38,155.39c-6.24-.24-12.51-.25-18.78-.3-2.16.22-5.58.21-5.32-2.81-.18-2.48-.13-4.92-.23-7.4.27-3.01-.41-23.05,1.8-22.8,2.78-1.41,6.18.83,9.24.26,5.59,1.05,17.98-5.22,17.92,4.07.14,7.72-.92,15.42-.56,23.16-.38,3.01.18,6.36-4.07,5.82ZM110.47,153.89c2.7-.95,1-9.12,1.5-11.8-.93-4.26,3.44-18.58-1.98-19.13-6.52-.18-13.12,1.82-19.68.45-3.76-1.02-1.85.39-3.39,1.06.88,36.42-8.73,27.94,23.55,29.42Z"/>
    <path class="cls-15" d="M98.59,148.11c-3.91-.29-6.75-3.37-8.82-6.42-2.18-4.79.7-13.96,6.95-13.23,14.45-2.3,16.51,19.97,1.87,19.65ZM98.85,146.58c7.04.6,11.03-8.77,6.37-13.81-2.76-2.91-9.34-4.34-12.3-1.23.06.28-.18.57-.47.56-.56.52-.39,1.84-1.43,1.68-2.67,5.63,1.88,12.24,7.84,12.8Z"/>
    <path class="cls-15" d="M103.03,138.52c-1.24-1.71-1.23-2.95.82-3.9.8-.43,1.51-1.01,2.39-1.29.78-.33,1.29.88.51,1.2-1.12.47-2.2,1.14-3.15,1.89.04.24.17.44.27.66,1.18-.62,2.84-1.42,4.12-.79.45.42.11,1.26-.51,1.23-1.76-.28-3.47,1.7-4.45.99Z"/>
    <path class="cls-15" d="M153.91,156.2c-29.02-3.48-22.93,6.02-22.72-28.64-1.05-.28-.31-1.66-.64-2.44-.65-3.84,1.4-3.68,4.48-3.57,7.61.13,15.32.04,22.83,1.06.69.26.79,1.14.71,1.76-.34,6.83-.34,13.69,0,20.51.25,4.38,2.15,11.74-4.65,11.32ZM154.57,154.8c3.17-.43,3.19-1.76,3.02-4.54-.86-8.76-.76-17.64-.41-26.43-8.31-.59-16.97-1.32-25.27-.65,0,.06-.01.11-.02.17,1.67,8.65-1.19,18.57.51,27.54-.27,3.07,1.14,2.96,3.69,2.78,1.73-.12,3.46.01,5.19-.05,4.44.26,8.84.89,13.28,1.18Z"/>
    <path class="cls-15" d="M145.88,147.43c-10.8,1.31-14.01-14.37-4.76-18.15,12.64-2.71,18.5,17.02,4.76,18.15ZM146.49,146.11c5.62-.1,7.17-7.46,4.62-11.56-1.86-3.02-6.26-4.41-9.63-3.94-.92-.11-1.33,1.29-2.2.88-5.04,6.33-1.63,15.78,7.22,14.62Z"/>
    <path class="cls-15" d="M150.89,143.93c-.93-1.24-4.57-1.68-3.25-3.7.35-.66.67-1.86,1.61-1.75,1.32.4,2.58,1.13,3.72,1.85.35.56-.6,1.02-.89.48-1.01-.3-1.83-1.02-2.87-1.29-.34.44-.48,1-.76,1.48,1.05.78,2.36,1.13,3.3,2.08.56.56-.3,1.42-.86.86Z"/>
    <path class="cls-15" d="M181.16,156.12c-3.03-.04-5.31.11-5.24-3.68-.37-9.74-2.39-19.8.06-29.29.1-1.11,1.17-1.19,2.06-1.03,7.85.26,15.72,1.23,23.5.28,3.93,1.64.96,11.56,1.7,15.33-.52,5.57.95,12.28-1.34,17.3-.6,1.2-2.09.77-3.16.72-5.85.44-11.73-.09-17.59.37ZM179.7,154.82c7.02-.21,14.08-.15,21.05-.3.12-.25.3-.46.53-.61.98-9.91,1.02-20.06.6-29.98-8.06.17-16.47-.03-24.67-.63-.15.56.15,1.42-.44,1.75-1.86,8.82.02,17.8.38,26.68.02,2.28-.07,3.11,2.55,3.08Z"/>
    <path class="cls-15" d="M190.64,148.9c-9.1-.18-13.55-13.13-5.21-17.92,3.38-3.18,9.65.66,11.79,3.87,2.07,5.01.2,14.48-6.58,14.05ZM191.3,147.64c6.07-.49,7.55-11.93,2.3-14.59-1.78-.81-3.73-2.12-5.72-1.95-1.5-.14-1.82,2.66-3.1,1.73-5.94,5.33-.95,15.12,6.52,14.81Z"/>
    <path class="cls-15" d="M185.3,146.35c-.81-1.34,1.73-2.58,2.38-3.65-.3-.24-.52-.57-.74-.88-.85.27-4.01,4.26-3.55,1.55,1.21-.77,3-4.06,4.43-2.6.34.97,1.86,1.15,1.28,2.29-.99.77-2.58,3.79-3.79,3.28Z"/>
    <path class="cls-15" d="M201.84,206.18c-8.07-.94-16.35.2-24.37-.88-1.63-2.27-.37-5.89-.97-8.62-1.19-6.14-1.12-12.31-.17-18.47-.92-.71-.16-2.36-.4-3.42-.44-2.4,1.13-2.5,3.05-2.39,7.88-.98,15.9-.37,23.82-.12,4.45-.23.59,18.12,1.84,22.12-.53,3.55,3.13,12.23-2.79,11.78ZM202.37,204.82c.76-.14,1.56-.06,1.36-1.09-.66-9.83-.56-19.62-.25-29.46-2.54-2.02-7.13-.39-10.36-.76-5.3-.6-10.51-.28-15.77.31.93,3.4-.55,7.24-.38,10.77-.74,6.53,1.28,13.07,1.16,19.6,8.06.52,16.19-.13,24.24.63Z"/>
    <path class="cls-15" d="M190.57,198.07c-11.6-1.38-14.56-17.26-1.25-18.54,11.55-1.3,12.64,18.93,1.25,18.54ZM191.43,196.82c8.63-.85,8.15-17.88-3.43-15.99-.28.76-1.38.37-2,1-.04.26-.32.45-.57.38-8.32,4.08-1.24,14.92,6,14.61Z"/>
    <path class="cls-15" d="M196.87,190.45c0-.21.33-.21.33,0,0,.21-.33.21-.33,0Z"/>
    <path class="cls-15" d="M195.84,193.25c-2.34-1.47-2.63-1.08-1.3-3.76.81-2.47,2.86-.58,3.86.62,0,0,0,0,0,0-.16,1.4-1.87-.13-2.4-.54-.32.53-.56,1.11-.8,1.68.51.49,1.51.54,1.69,1.3.09.56-.57.99-1.05.7Z"/>
    <path class="cls-15" d="M234.55,223.14c-6.6-.71-13.28-.87-19.9-1.39-4.06.16-3.64-2.18-2.98-5.26,1.07-31.68-1.48-64.71.65-95.71,4.39-1.56,10.63.55,15.48-.2,2.72.68,8.69-2.16,8.51,2.32.4,7.63.03,15.27.24,22.91.66,18.49-.22,36.99.04,55.47-.11,3.9,2.11,21.6-2.05,21.86ZM234.73,221.57c1.05-33.11.37-66.45-.1-99.59-6.97.46-14.04.14-21.02-.2-.21.6.16,1.4-.38,1.86-1.13,32,1.48,64.2-.52,96.17,7.17,1.25,14.74.76,22.02,1.77Z"/>
    <path class="cls-15" d="M222.61,212.67c-3.82-.04-2.81-16.85-2.93-20.17.97-20.27-.65-40.57.98-60.76,3.27-3.71.51,11.11.63,12.45.8,22.22-1.26,44.73.98,66.86,2.1.16,4.3-.32,6.42-.46,0-17.73.67-35.48-.02-53.2.65.36-2.5-31.82.81-26.01,1.32,23.83.97,54.69.77,78.32-.01.95.16,2.52-1.19,2.5-2.13.02-4.29.39-6.43.48Z"/>
    <path class="cls-15" d="M228.26,136.78c-1.28-.43-.4-3.56-.37-4.71-1.74-.19-3.47-.24-5.22-.14.41.95-1.01,1.55-1.33.55-.16-.63-.47-1.53.31-1.86,2.59-.1,9.38-1.71,7.56,2.84-.07.88.42,3.42-.95,3.32Z"/>
    <path class="cls-15" d="M222.78,150.3c-2.66-1.44-1.08-5.94-1.84-8.53-1.1-6.11,2.2-6.63,7.34-5.84,2.12.52.55,9.53.75,11.75.24,3.19-4.08,2.63-6.24,2.63ZM223.51,148.96c1.3-.16,2.6-.21,3.87-.55.47-3.72.33-7.47.27-11.21-8.69-2.14-4.4,6.48-4.68,11.62.17.07.35.16.54.14Z"/>
    <path class="cls-15" d="M225.72,154.58c-1.41-.65-4.46.53-4.92-1.26.37-1.35,4.1-.11,5.25-.06.92-.03,3.58-.6,3.02,1.07-.82.32-2.32.11-3.35.25Z"/>
    <path class="cls-15" d="M16.11,179.44c-2.57-1.63,4.75-3.5,5.57-2.66.77,1.69-2.12,1.5-3.13,1.62-.84.24-1.55,1.1-2.45,1.03Z"/>
    <path class="cls-15" d="M16.35,204.19c-3.27-2.17,4.49-3.35,5.96-2.87.95.24.56,1.74-.39,1.48-1.57-.25-3.14.2-4.63.66.01.19-.07.39-.2.52,0,0,0,0,0,0-.18.19-.48.29-.74.2Z"/>
    <path class="cls-15" d="M31.95,68.95c-5.84-.03-11.66-.39-17.49-.73-2.36-.23-7.61,1.09-9.23-.29-1.34-8.31-1.26-17.43-.47-25.96-.69-.56-.04-2.73-.12-3.59.31-1.3-.61-3.4-.02-4.14-.3-1.06,1.31-1.31,1.5-.26,34.86,4.61,26.81-10.9,27.35,27.85-.39,2.09,1.78,7.14-1.52,7.12ZM32.05,67.32c-.48-10.43.12-20.87-.02-31.3-8.51,1.51-17.14.31-25.67-.34-.33,10.39-.79,20.74.02,31.13,8.52-.34,17.11.33,25.67.51Z"/>
    <path class="cls-15" d="M14.7,55.32c-9.84.81-9.84-16.24-.02-15.47,11.17-1.34,10.38,15.02.02,15.47ZM15.28,53.73c6.21-1.05,8.74-10.09,2.01-12.41-.62,1.17-2.09-.03-3.08.23-.68.21-1.62,1.21-2.2.39-5.41,2.73-3.52,12.95,3.27,11.79Z"/>
    <path class="cls-15" d="M16.09,57.29c-1.16.06-2.77-2.12-.89-2.26,6.23,3.52,10.45-7.33,6.22-11.58-.39-.45.06-1.21.64-1.1,5.34,4.63,1.67,15.73-5.98,14.94Z"/>
    <path class="cls-15" d="M13.54,58.11c-1.51-.41-3.49-.72-4.12-2.37-.17-.59-.79-1.59.08-1.89,1.19-.16.74,1.67,1.64,2.08,1.85,1.01,3.93.93,5.94.59,2.42-.21,5.21-.86,6.64-3,.87-1.22-.06-2.99.87-4.16.5-.42,1.35.06,1.23.71.74,6.87-6.9,8.37-12.28,8.04Z"/>
    <path class="cls-15" d="M30.19,111.43c-32.31-1.44-25.41,5.29-24.45-27.34,0,.03,0,.07,0,.1.12-1.28.05-2.58.27-3.84-2.82-2.95,10.27-1.48,11.85-1.59,4.84-.03,9.6-1.32,14.44-.87,2.47.39,1.36,4.07,1.65,5.83.58,7.47.09,14.99.77,22.43.69,4.96.83,5.68-4.53,5.28ZM32.05,109.85c.44,0,.89-.01,1.33-.03-.9-10.05-.59-20.2-1.23-30.28-8.31.24-16.59.95-24.93.89-.08.5.41,1.24-.08,1.6-.19,8.94-1.05,17.85-.74,26.8,8.31,1.28,17.17.4,25.65,1.03Z"/>
    <path class="cls-15" d="M14.14,99.29c-7.97-1.38-5.46-10.8.72-13.08,11.83-5.27,12.69,14.42-.72,13.08ZM14.8,97.73c10.77.19,9.04-14.19.88-10.06.88.2.54,1.57-.33,1.33-.36-.08-.71-.26-1.08-.23-1.16.04-1.17,1.27-2.15,1.11-2.65,3.38-1.83,7.25,2.69,7.85Z"/>
    <path class="cls-15" d="M14.72,102.24c-14.77-2.97-2.73-21.88-2.39-16.17-8.89,8.64.75,19.46,10.21,12.55,1.07-1.36,1.41-3.15,1.68-4.82.02-.61-.28-1.44.53-1.66,2.63-.28-.01,6.96-1.16,7.76-2.32,2.44-5.76,2.48-8.87,2.34Z"/>
    <path class="cls-15" d="M18.29,105.07c-.84-.15-2.68-.84-1.48-1.83,1.39-.1,3.02.94,4.36-.18,4.64-2.32,5.71-9.26,1.9-12.83-.51-.64.51-1.43,1-.77,5.45,4.91,1.95,16.14-5.78,15.62Z"/>
    <path class="cls-15" d="M169.62,102.67c-15.76-1.3-31.42-2.01-47.19-.36-16.11-1.25-32.13-1.83-48.29-1.41-15.82,1.86-10.62-1-11.13-14.89-.46-12.22.77-24.34,1.48-36.44-.45-.76.75-1.52,1.21-.71.04,16.72-1.99,33.89-1,50.8,26.83-1.91,53.48,1.99,80.29-.22,12.31.21,24.56,2.58,36.89.74,10.06-.89,20.19-.52,30.24-.24,3.63,1.21.87-11.66,1.97-14.29,3-3.59.92,7.23,1.52,8.58-.32,2.43,1.01,6.57-2.04,7.55-14.64-1.05-29.31-.03-43.95.89Z"/>
    <path class="cls-15" d="M213.79,61.47c-.23-.49-.08-1.08-.27-1.6h0c-.02-.96.11-1.92.11-2.89,0,0,0,0,0,.01-.03-3.1.09-6.23.18-9.3-.89-.52-2.04-.21-3.03-.24-12.96,1.91-25.97,2.79-39.1,2.46-19.63,1.23-39.48-.27-59.12-1.29-15.78.37-31.62.27-47.4.36.13,1,.46,3.53-1.36,2.44-.58-1.21-.88-3.44.68-4.07,3.53-.44,7.2-.08,10.77-.35,13.21.93,26.43-.52,39.62.01,20.18,1.23,40.53,2.25,60.73,1.15,7.93.14,16.01.33,23.83-1.07,3.55.24,15.54-3.75,16.06.81-.74,1.98.7,14.83-1.7,13.55Z"/>
    <path class="cls-15" d="M213.51,59.79s0,.02,0,.02c0,0,0-.02,0-.02Z"/>
    <path class="cls-15" d="M92.59,75.61c-8.71-1.44-17.69.42-26.43-.28-2.12-1.21-.56-5.26-.81-7.32.16-2.15-.33-4.65.41-6.63-.44-1.51,1.72-1.07,2.61-1.18,9.04-.77,18.35-1.15,27.25.5,1.5,1.33.09,6.68.1,8.73-.43,2.25.49,6.83-3.14,6.19ZM93.22,73.96c.12-.02.23-.08.34-.13.36-3.9.98-7.85.96-11.77-3.55-.13-7.09-.53-10.63-.87.04,0,.08,0,.12,0-5.63-.32-11.18.58-16.8.63.05,3.97-.41,8.01-.31,11.94,8.73.18,17.64-1.15,26.32.2Z"/>
    <path class="cls-15" d="M103.43,92.11c-3.74-.9-1.35-10.66-2.02-13.95.4-7.26-.4-14.92,1.46-21.92-4.62-3.18,9.54-1.56,10.99-1.7,2.96.4,12.76-1.99,13.5,1.36-2.84,44.83,11.42,33.65-23.93,36.21ZM104.3,90.43c7.08-1.21,14.23-.63,21.36-.26.59-11.32-.92-22.72-.03-34.05-7.14-.16-14.32.15-21.47-.05.43.33.3,1.09-.22,1.27-1.09,9.63-.88,19.44-.76,29.15.13,1.09-.74,4.33,1.11,3.95Z"/>
    <path class="cls-15" d="M162.6,88.57c-33.26-1.95-27.61,8.13-27.16-27.44-.34-.21-.32-.77.03-.95-.03-3.05,17.3-.85,20.32-1.12,3.2.64,10.56-2.39,9.94,3.02-.02,7.24-.63,14.45.09,21.67.13,2.89.65,5.23-3.22,4.81ZM162.96,86.85c.38,0,.76,0,1.13-.04-.39-8.68-.24-17.38-.15-26.09-9.08.21-18.22-.64-27.32-.05,1.34,35.1-7.6,23.85,26.33,26.17Z"/>
    <path class="cls-15" d="M178.12,62.88c-6.42-1.19-3.64-7.72,1.39-8.25.58-1.17,1.78.32,2.72.16,9.23,1.77,2.35,9.39-4.1,8.1ZM178.8,61.28c2.83.45,9.56-2.3,4.41-4.85-.77,1.66-2.93-.72-4.3.06-3.06.61-4,4.86-.11,4.79Z"/>
    <path class="cls-15" d="M180.14,91.9c-12.52.08-4.3-12.36,4.25-8.16,7.48,2.28,1.33,9.27-4.25,8.16ZM181.03,90.36c4.4.14,8.08-4.22,2.02-5.46-1.49.49-3.43-.78-5.04.09-5.28,3.75-1.81,5.46,3.02,5.37Z"/>
    <path class="cls-15" d="M170.68,92.95c-.35-.32.08-.98.44-.51.57.39.01.83-.44.51Z"/>
    <path class="cls-15" d="M168.09,93.19c-1.39-.56.26-3.64,1.98-2.02.92-1.83,2.03-.39.73.83.76-.31,1.74.59.67.94-1.13,0-2.27.14-3.38.26ZM168.71,92.11c.24-.03.48-.05.72-.06-.12-.12-.27-.2-.43-.27-.11.09-.22.2-.29.33Z"/>
    <path class="cls-15" d="M170.14,90.26c-.67,0-3.09-.7-1.42-1.22.59.07,1.16.4,1.75.29,1.07-1.57,1.47,1.31-.33.93Z"/>
    <path class="cls-15" d="M169.35,89.67c-.02-.2-.06-.4-.09-.6-.11-.66.88-.83,1-.18.41.75-.46,1.8-.91.78Z"/>
    <path class="cls-15" d="M168,89.15c-.16-.52-.41-1.58.38-1.66,1.12.03.74,3.01-.38,1.66Z"/>
    <path class="cls-15" d="M168.73,87.57c-1.31-.75-.55-2.76.46-1.05,2.46-2.44,2.86,3.09,1.08.55-.57.34-.75,1.03-1.53.51Z"/>
    <path class="cls-15" d="M170.34,85.7c-2.35.02-2.37-1.38.07-.86.23-2.11,2.01,1.04-.07.86Z"/>
    <path class="cls-15" d="M169.14,85.41c-.12-.35-.4-.69-.28-1.06,1.13-1.55,1.89,2.5.28,1.06Z"/>
    <path class="cls-15" d="M168.09,85.49c-.36-.43-.97-1.44-.2-1.76.84-.16.57.7,1,1.1.44.51-.38,1.18-.79.66Z"/>
    <path class="cls-15" d="M167.67,82.66c-.18-.54-.42-2.34.52-2.21.67.19.15.89.26,1.33.5.71-.23,1.93-.78.88Z"/>
    <path class="cls-15" d="M167.82,81.76c-.02-.76,2.74-.85,2.71-.11,0,.74-2.65.83-2.71.11Z"/>
    <path class="cls-15" d="M170.03,65.79c-1.07.33-2.34-1.03-.81-1.34.83.1,1.66,0,2.49-.05.45-.12,1.03-.07,1.12.48-.02,1.29-1.94.72-2.8.9Z"/>
    <path class="cls-15" d="M170.24,65.26c-.55-.37-.22-1.15-.92-1.63-.5.39.22,1.51-.66,1.59-1.71-.81.58-4.18,1.84-1.95,1.65-1.73,3.69,1.45,2.2,1.92-.85.14-.55-.88-1.06-1.2-.29,0-.45.3-.58.53.19.49-.36,1.01-.83.74Z"/>
    <path class="cls-15" d="M171.08,62.7c-1.19-.17-2.36-1.04-1.76-2.35.61-.74,1.91-.11,2.69.08,1.4.76.57,2.56-.93,2.27ZM171.51,61.78c.2,0,.32-.2.2-.37,0,0,.03.01.03.01-.39-.28-.91-.25-1.37-.32,0,.12.02.24.04.35.33.25.69.39,1.1.32Z"/>
    <path class="cls-15" d="M171.35,60.18c-.88-.04-2.1-.52-2.14-1.53-1.41-1.4,1.61-2.35,2.62-1.48,1.39.51,1.27,3.34-.49,3.01ZM171.42,58.96c0-.12.01-.25.03-.37-.23-.41-.92-.5-1.34-.33,0,0,0,0,0,0,.42.48.6.73,1.31.7Z"/>
    <path class="cls-15" d="M169.77,55.82c-1.94-.08-.8-1.61.62-1.31.63.05,1.33-.25,1.92.07.57.33.12,1.21-.48.96-.67.22-1.37.22-2.06.28Z"/>
    <path class="cls-15" d="M168.88,57.19c-.96-.44-.25-2.04-.41-2.92-.3-.53.4-1.08.84-.65.35.57.64,3.69-.43,3.57Z"/>
    <path class="cls-15" d="M220.88,85.96c-1.77-1.28-1.03-1.14-3.28-1.12-16.77-1.34-12.18,3.08-13.42-17.3,0,0,0,.02,0,.03,0-.02,0-.04,0-.06,0,0,0,.01,0,.02,0-.02,0-.03,0-.05,0,0,0,.01,0,.02,0-.02,0-.05,0-.07,0,0,0,0,0,0,0-.11-.01-.22-.02-.33,0,0,0,.02,0,.03-.02-.76-.01-1.53-.2-2.28,0,0,0,0,0,0,0,0,0-.01,0-.02,0,0,0,0,0,.01-.03-.17-.05-.35-.06-.53,0,0,0,0,0,.01,0-.03,0-.06,0-.1,0,.02,0,.03,0,.05-.31-1.67-.2-4.69,2.25-3.84,4.23-.1,8.48.35,12.66.38,5.45-7.41,2.07,11.12,2.52,13.61-1.09,2.21,1.85,12.15-.46,11.53ZM220.32,83.84s0,0,0,0c-1.21-7.53.49-15.08.06-22.65-1.32,1.79-3.01.72-4.87.92-3.37-.28-6.77-.18-10.15-.42-.58,7.08.43,14.33.87,21.43,4.67.05,9.55-.23,14.09.72Z"/>
    <path class="cls-15" d="M203.91,64.28s0,.02,0,.03c0,0,0-.02,0-.03Z"/>
    <path class="cls-15" d="M203.76,63.17s0,.04,0,.07c0-.02,0-.04,0-.07Z"/>
    <path class="cls-15" d="M104.98,42.89c-9.86-1-8.11-12.52-4.83-18.97-.21.04-.42,0-.62.08-4.54,11.86-16.93,24.31-12.26,1.74-8.44,1.87-10.7-4.53-6-10.67,1.71.08-.15,2.04-.2,2.93-1.51,3.37-1.43,6.22,2.93,6.61,4.21.01,5.65-1.46,4.29,4.08-3.64,18.47,7.91.42,10.17-5.72,7-2.93-.32,7.6.37,10.54-.67,8.07,8.42,10.52,13.03,4.39,3.67-3.89,3.04-4.38,5.5.64,1.89-2.64,5.33.98,7.94-.26,4.19-.81,3.55-4.41,6.42,2.11.77-5.94-.66-12.59-3.89-17.6-5.12.63-.87,7.79-3.68,10.76-4.37,3.32-6.1-5.76-6.2-8.81-1.13,1.07-2.12.6-3.18-.23-1.92,2.86-6.15,1.74-7.56-1.09-.48-.95.93-1.52,1.32-.56,4.74,5.29,4.22-2.16,8.03,1.06,3.4-3.15,2.77,2.24,3.27,4.33.26,1.77,2.53,7,3.78,3.24.65-3.66-1.27-10.63,4.67-10.02,5.01,1.99,7.88,31.67.61,16.57-2.53,2.97-6.8,1.61-10.02.88-1.92,3.14-3.18-.31-4.04-2.18-2.48,2.96-5.65,6.38-9.84,6.17Z"/>
    <path class="cls-15" d="M107.15,23.59c-.3-1.52-.41-3.09-.86-4.58-3.38,2.29-2.57-.31-2.97-2.82-2.14-1.03-24.46,2.1-20.94-1.05,7.17.22,14.42-.97,21.54-.17,1.14.66.77,2.31.85,3.43,2.55-1.73,2.91.34,3.05,2.51-.09.79,1.04,2.88-.05,3.15-.29.04-.58-.17-.62-.47Z"/>
    <path class="cls-15" d="M106.27,36.95c-3.11-.23-2.44-10.42.53-9.04,3.48.04,3.11,9.5-.53,9.04ZM106.77,35.58c1.19-1.7,1.24-4.46.27-6.26-.59.06-.51.94-1.33.81-.65,1.76-.24,3.81.59,5.45.16.02.31,0,.47,0Z"/>
    <path class="cls-15" d="M142.54,39.36c-13.13-.24-10.93-29.27,2.91-23.59,1.01.25,2.21,2.92.57,2.97-1.1-.31-.31-1.49-1.81-1.85-.36-.19-.65-.53-1.08-.54-9.56-.59-10.02,16.65-3.66,20.59,3.19,2.22,10.52.49,10.84-3.84-8.75,4.89-17.24-4.55-8.62-11.15,7.07-3.36,5.37,6.12,6.76,10.23,7.31-2.53,2.03,8.11-5.9,7.19ZM144.93,32.95c.7-.03,1.38-.18,2.05-.39-.35-3.09-1.42-6.05-1.35-9.19-2.9-2.06-5.97,2.04-6.14,4.77.16,2.63,2.71,5.23,5.44,4.81Z"/>
    <path class="cls-15" d="M152.31,42.63c-.69-.96-.56-2.47-.75-3.62-3.08,3.38-3.58-4.24-1.25-.75.86-2,2.62-2.09,2.67.34,2.82-8.09,5.99-8.02,7.14.63.53-.48,1.28-.03,1.53.54.63-1.6,1.47-4.54,3.73-3.12-5.12-11.95,1.73-23.93-7.17-21.75-2.5,2.76-1.17,7.13-1.29,10.51-3.92,6.02-4.88-7.76-6.48-9.88-1.15-.08-2.3-.12-3.46-.11,0,.87.33,4.07-1.25,2.63.28-1.2-.82-3.73.93-4.02,7.85-1.57,5.7,6.82,8.6,11.46.25-5.85-1.26-15.92,8.32-11.11,2.19,4.18.19,9.49,1.21,14.04.41,1.96,4.96,16.27-.34,9.34-1.36.19-1.37,5.64-3.7,3.24-2.75,1.85-2.16-5.67-3.62-7.06-1.18,1.3-2.02,2.92-2.62,4.57-.66,1.13-.11,5.05-2.19,4.09Z"/>
    <path class="cls-15" d="M190.83,62.24c-.65-1.36-.71-3.85-.21-5.25,1.64-.36,3.41-.92,5.15-.91,1.92-.52,1.28,3.17,1.7,4.36,0,.92-.82,1-1.53.97-1.6.4-3.47,1.22-5.11.82ZM191.73,61.07c1.48-.16,2.9-.71,4.35-1.01-.13-.92-.22-1.85-.42-2.75-1.41-.06-2.64.63-4.04.73.12,1.01,0,2.03.11,3.04Z"/>
    <path class="cls-15" d="M53.51,271.13c-13.48-31.13-13.48-20.23,5.79-34.22-3.59-5.81-8.82-11.8-11.56-17.55-1.11-3.25,19.65,1.28,21.89,1.85,7.43,1.58,5.62-1.21,11.39,4.49,2.78,1.18,5.81,1.4,8.76,1.91,3.11.97,10.16-1.79,9.82,3.42-1.89,11.35,23.13,32.05,14.42,35.98-3.3.84-6.82.37-10.09,1.52-4.23.65-9.09,2.64-12.19-1.38-7.78-3.75-17.01-3.01-25.47-3.54-3.41.06-6.07,2.53-8.62,4.5-1.25.74-2.66,3.75-4.13,3.03ZM54.34,269.08c7.99-10.82,22.36-6.7,33.69-5.31,11,3.56,1.83,5.66,16.32,2.95,3.05-1.53,7.11.06,9.83-1.92.84-2.45-2.01-4.9-3.04-6.95-5.51-8.81-13.43-16.99-13.39-28.05-7.3-.91-16.33.49-21.37-6.05-8.92-.83-17.84-3.49-26.95-4,12.67,20.92,18.79,14.26-3.37,27.49.12,7.25,5.78,14.77,8.26,21.84Z"/>
    <path class="cls-15" d="M123.22,269.47c-2.68-.05-3.63-4.1-4.75-6.06-5.18-11.18-17.2-19.14-16.89-32.53-.84-.07-.83-1.18-.09-1.43,3.52-5.71,17.57-4.48,23.83-4.85,5.86.55,18.21-4.46,19.03,4.5-.37,5.42-2.15,10.84-3.71,16.02-2.02,3.68-5.04,6.71-7.17,10.39-3.5,3.56-5.16,13.2-10.24,13.96ZM123.65,267.81c5.57-6.35,8.21-15.42,14.39-21.51,2.06-3.07,2.22-6.79,3.19-10.23.72-2.66,3.17-8.98-.69-10.07-5.16-1.27-10.55.48-15.8.34-7.25-.2-14.38.19-21.23,2.71-.93.98.56,2.22-.42,3.02.54,8.84,6.66,15.95,12.06,22.47,3.53,3.31,4.66,11.34,8.48,13.27Z"/>
    <path class="cls-15" d="M171.89,267.77c-13.27-14.18-25.54,9.9-24.56-12.27.43-9.47-4.18-19.57,1.53-28.2.5-.85,1.84-.09,1.33.78-4.68,7.19-1.51,15.49-1.26,23.33,0-.05,0-.1,0-.15,1.3,13.55-3.31,13.98,10.09,10.16,4.05-.59,8.29.08,11.33,3.01,1.07.63,2.16,1.3,2.94,2.28.69.9-.7,1.99-1.39,1.08Z"/>
    <path class="cls-15" d="M193.46,285.7c-8.63-16.48-14.75-34.09-22.01-51.26-2.35-4.31-3.02-9.98-6.87-13.25-5.53-2.47-11.71,1.45-14.55,6.19-3-.5,4.15-7.3,5.66-7.41,5.92-2.88,12.58-.6,14.11,6.11,3.13,7.28,5.91,14.68,9.24,21.88,5.09,12.57,9.61,25.2,16.14,37.12.57,1.38-1.43,2.23-1.71.61Z"/>
    <path class="cls-15" d="M192.17,287.91c-9.71-4.23-14.37-14.59-21.22-21.83-.8-.46-.08-1.73.73-1.25,7.18,6.84,11.57,17.36,21.24,21.51.45-.69-.64-1.66.31-2.18,2.4-.84,1.97,5.05-1.07,3.74Z"/>
    <path class="cls-15" d="M198.34,348.84c-3.01-7.96-3.36-13.66-.78-21.75.95-6.48-.08-13.04.97-19.52,3.63-11.63-2.91-14.1-11.72-19.31-12.08-4.6-17.51-26.05-32.93-20.07-1.64.4-4.34,3.63-5.75,2.23-.41-1.26,3.06-2.12,3.86-3.06,12.6-7.33,21.94,7.2,29.28,15.3,4.11,3.44,9.21,5.33,13.53,8.44,11.83,6.76,3.18,17.93,4.91,29.06.99,7.35-4.17,14.31-1.67,21.39.3,1.61,3.85,9.96.29,7.27Z"/>
    <path class="cls-15" d="M198.88,352.12c-10.1.2-16.24-9.74-25.84-11.35-9.02-3.38-19.97.54-27.89-5.77-9.76-7.08-9.51-21.06-11.6-31.96-2.87-9.85,5.04-17.68,10.21-25.26,1.83-2.58,3.52-6.04,5.64-8,2.21,1.04-2.71,5.78-3.36,7.3-3.77,6.35-9.5,12.05-11.39,19.28,1.58,12.36,1.54,26.84,10.26,36.56,7.38,5.85,17,3.51,25.64,5.31,10.83,1.09,17.67,11.7,28.42,12.15.71-.53-1.39-3.15-1.48-4.2-.15-1.97,1.8-1.24,1.99.4,1.1,1.71,2.62,5.23-.59,5.53Z"/>
    <path class="cls-15" d="M231.4,372.63c-3.89-1.33-3.5-6.39-5.58-9.34-4.02-8.89-17.05-.98-21.49-8.73-1.95-6.08-7.05-14.9-5.08-21.07,1.92-2.76,3.33-5.91,2.99-9.37-.18-4.68-1.62-9.32-1.19-14.01.4-4.22,2.34-8.29,2.04-12.52-1.09-3.61-2.8-9.34,2.41-10.38.84-1.14,2.94-1.15,4.25-1.86-.42.11-.72-.48-.21-.56.73.1,1.43.05,2.12-.08,21.92-9.29,26.72-24.73,24.42,10.09-1.89,23.35,1.36,46.9-1.79,70.21-.71,2.44.41,7.14-2.9,7.62ZM231.52,370.9c3.77-19.29,2.57-39.74,2.01-59.43-.06-12.18,2.67-24.89.42-36.86-6.87,2.91-12.99,7.96-19.9,11.05-3.47,2.08-11.79,1.75-10.44,7.45,2.45,5.47.14,10.98-.8,16.5-.89,6.3,2.19,12.61.72,18.89-3.08,7.92-4.59,5.73-1.45,14.99,5.29,21.43,9.92,7.94,22.94,16.06,3.81,2.7,3.24,8.47,6.5,11.34Z"/>
    <path class="cls-15" d="M56.8,340.84c-4.27-.72-4.06-11.21-6.45-15.04-4.27-18.23-8.38-18.56-.08-36.77,3.72-6.97,2.57-17.28,10.86-20.89,4.31-3.26,9.91-2.27,14.91-1.75,6.73-.99,12.48,2.27,17.02,6.99,7.78,15.41,3.96,33.26,6.01,49.74.06,2.25,1.25,5.43-1.22,6.75-6.43,1.08-13.09,1.64-19.42,3.5-7.44,1.35-14.34,6.24-21.63,7.47ZM57.39,339.16c6.87-2.12,13.24-5.82,20.33-7.41,6.36-2.21,13.65-2.04,19.84-3.92-3.73-17.92,6.96-60.92-21.3-59.58-7.61-1.54-18.27-.11-20.2,8.84-1.88,9.39-6.88,17.9-9.18,27.07,1.76,9.93,4.89,19.79,8.07,29.37.05.98,1.16,2.28.15,3.02.49,1.07.75,2.83,2.3,2.61Z"/>
    <path class="cls-15" d="M10.24,370.85c-.65-.21-1.89-.32-1.62-1.29-2.47-7.57-.27-16.32-.28-24.25,1.22-8.38-.32-16.67-.82-25.03,1.92-14.74-2.22-29.47.11-44.16,2.04-4.34,5.48,10.76,6.98,12.07,3.39-2.24,7.51-1.52,11.31-.93,3.18.22,5.33,1.74,6.75,4.5.75-6.8,1.58-13.6,1.3-20.42.98-2.79-1.42-9.23,2.32-9.66,5.39.79,13.11,8.42,16.21,12.85-2.74,8.5-6.88,17.02-8.4,26.07.15,10.31,3.25,20.72,5.61,30.7,0,3.39,2.67,6.69,1.86,9.93-2.82,4.51-8.57,5.71-12.75,8.61-6.89,5.1-14.67,8.92-21.01,14.69-1.81,2.66-3.89,6.43-7.56,6.33ZM10.85,369.04c.25-.02.52-.1.77,0,3.93-2.8,5.62-7.66,10.01-10.12,8.82-5.02,16.72-11.51,25.88-15.96,2.72-2.26,3.09-2.36,1.66-5.73-2.1-7.37-3.37-14.88-5.04-22.37-5.01-13.77,1.72-27.6,6.43-40.16-3.02-3.05-10.4-11.23-14.54-11.02-.46,2.94,1.2,38.3-5.45,28.42-2.31-4.47-11.55-4.35-15.52-2.13-2.99.78-4.56-7.79-5.87-9.97-1.36,9.12.25,18.15.7,27.29-.28,9.57-.47,19.02.77,28.57.41,10.86-3.23,22.78-.16,33.19.12.02.24.01.36,0Z"/>
    <path class="cls-15" d="M38.01,373.65c-9.71-.51,3.38-7.47-3.54-11.92-1.11-2.15-5.74-3.25-2.69-5.82,6.16-3.8,13.12-6.22,19.96-8.5,13.5-7.09,28.41-12.31,43.64-14.6,7.42-.18,12.91,1.43,12.84,10.05,1.16,8.82,14.6,24.79-1.06,27.24-22.81,4.12-46.15,1.9-69.13,3.55ZM39.32,371.81c19.35-1.75,38.95.25,58.24-2.29,18.59-1.13,17.75-4.92,10.5-20.3-2.23-4.45-.6-10.83-5.08-13.88-5.55-.93-11.2-.78-16.62.97-11.12,3.44-22.63,6.2-32.62,12.26-7.12,2.66-14.68,4.79-21.07,8.98,4.49,2.95,7.88,8.47,3.41,13.05.17.26.18.61.04.89,1.02.32,2.12.29,3.18.3Z"/>
    <path class="cls-15" d="M123.94,373.29c-3.07.1-5.59-1.42-6.37-4.47-.37-1.04-1.82-1.98-1.03-3.14-.48-9.04-6.24-16.52-7.78-25.33-1.02-6.9.21-5.63-6.07-9.04-2.85-5.15-1.79-14.03-1.54-19.93,1.72-5.34-.54-10.38-.96-15.7-.01-28.46-18.09-24.26,18.86-27.09,11.59,4.37-8.87,11.66,8.27,19.59,2.93,1.2,4.22,4.38,4.09,7.38-.64,22.06,11.89,30.67,1.38,53.09-4.05,7.14,2.68,25.53-8.85,24.65ZM124.75,371.47c5.71.18,3.75-6.73,4.34-10.51-.72-12.26,8.25-23,5.95-35.26-3.27-9.84-5.78-19.73-5.52-30.2.56-5.94-6.57-6.66-9.67-10.27-5.17-6.64,2.83-11.06.62-13.86-1.94-1.89-4.77-.58-7.1-.42-21.51,2.78-15.72-3.84-11.95,14.83.41,4.64.33,9.34,1.19,13.93,3.01,9.44-2.6,21.29,1.61,30.42,8.29,2.4,4.92,8.72,7.84,15.04,2.37,7.05,6.09,13.54,6.54,21.11.33,1.31,2.22,2.3,1.45,3.79,1.13,1.35,3.06,1.42,4.7,1.39Z"/>
    <path class="cls-15" d="M139.43,373.69c1.19-.03,2.37-.13,3.56-.1-1.19.05-2.38.09-3.58.1,0,0,0,0,.01,0Z"/>
    <path class="cls-15" d="M136.72,373.66c.22.01.45,0,.66.04-.22,0-.44,0-.66-.04Z"/>
    <path class="cls-15" d="M193.78,372.2c-13.12-1.34-26.47,1-39.66.98.08-.13.13-.29.12-.46.46-.27.56-.95.17-1.33,11.47-.33,22.94-1.04,34.38-1.55,5.64.12,11.6,2.62,17.14,1.23-1.81-3.95-.92-7.93,1.08-11.25-6.67-1.27-4.58-4.95-10.27-4.81-10.35-.93-17.52-9.92-27.76-11.8-10.91-3.28-20.17,3.27-28.61-6.62-1.63,7.74-4.22,15.19-5.13,23.08-.51,3.1-2.61,6.12-1.45,9.34-.26-.01-.52,0-.78.05-.44-.12-.6-.62-1.01-.78.98-10.12,3.83-20.26,6.44-30.19.87-8.58,7.28,3.22,11.39,2.67,2.46.16,4.88-.55,7.34-.47,13.63-1.08,24.44,6.98,36,12.42,5.45,1.15,6.97-.46,10.86,4.27,1.69.91,5.24.71,4.77,3.46-.7,1.85-2.21,2.48-1.99,4.76-.12,1.54-.04,3.02.41,4.49,2.11,6.28-10.25,2.55-13.43,2.5Z"/>
    <path class="cls-15" d="M134.23,287c-.19-.09-.37-.2-.55-.3.84-.11,1.67.14,2.52.07-.57.48-1.28.58-1.97.23Z"/>
    <path class="cls-15" d="M131.5,285.73c-3.92-1.9-11.5-5.06-7.8-10.46,3.32-4.42,5.68-9.5,8.55-14.22,1.07-2.38,2.29-2.92,4.51-1.33,3.58,2.27,8.59,4.19,10.67,8.01-1.78,5.38-5.63,10.07-8.42,15.02,0,0,0-.01,0-.02,0,0,0,0,0,0-.11-.96-.2-1.93-.36-2.89,2.63-3.82,4.83-7.84,7.05-11.89-2.46-2.63-5.86-4.67-9.07-6.3-.53-.17-1.86-1.57-2.24-.93-3.13,5.71-6.54,11.27-9.9,16.8-.91,2.77,4.74,5.19,6.65,6.32.45-.36.93-.16,1.39.1-.05.69-.19,1.39-.11,2.08-.29-.13-.6-.24-.93-.31Z"/>
    <path class="cls-15" d="M138.14,283.88s-.01-.1-.02-.15c.09.01.19,0,.28-.01-.08.12-.16.24-.25.36,0-.07-.01-.13-.02-.2Z"/>
    <path class="cls-15" d="M131.31,278.6c-2.35-1.05-1.93-4.18-2.07-6.32-.08-5.51,7.43-6.66,10.73-3.26-.08.05-.16.11-.22.18-.25-.1-.54-.1-.8-.01-.47-.2-1.12-.32-1.48.14-4.96-2.23-7.7,1.86-6.49,6.5.11.75.29,1.3,1.06,1.58.81.49-.02,1.67-.72,1.19Z"/>
    <path class="cls-15" d="M131.92,287.99c-3.23-.01.4-17,2-14.46,0,0,0,0,0,0-.04.6-.04,1.26-.32,1.81-.55,3.47-1.57,7.15-1.18,10.63.55,1.39,3.14.57,4.42.77-.02,0-.04,0-.06,0,1.5-.02,1.48-1.92,1.34-3.02.54.08,1.02-.45.9-.98v.04s0-.03,0-.05c0,0,0,0,0,0v-.02s0,0,0,.01c-.71-1.35.26-8.66-1.54-7.67-.07-.33-.35-.6-.68-.66,2.59-3.99,1.58,5.24,2.39,6.42,1.46,5.37-2.45,7.68-7.28,7.16Z"/>
    <path class="cls-15" d="M138.51,276.22s0,.01,0,.02c0,0,0-.01,0-.02Z"/>
    <path class="cls-15" d="M133.57,275.36c-1.48-.47-.28-2.71.86-2.99,1.39-.83,4.45,1.07,3.62,2.61-.19-.07-.4-.03-.57.09-.08-.37-.43-.67-.82-.67-.63-.8-1.6-1.24-2.39-.37-.05.51.02,1.33-.7,1.33Z"/>
    <path class="cls-15" d="M138.53,276.44c0-.08,0-.16-.01-.24,0,.01,0,.02,0,.03-.04-.32.02-.66-.11-.95.07-.05.15-.09.23-.13-.02.5.08,1.05.47,1.39-.2.03-.41,0-.58-.1Z"/>
    <path class="cls-15" d="M132.32,287.6c-1.35-.37-.89-2.12.72-1.79,1.36.13,2.7.54,3.88-.34.29-3.67.65-7.5.15-11.08.36-1.3,1.85-.13,1.56.77.18,5.41,2.42,14.74-6.3,12.45Z"/>
    <path class="cls-15" d="M138.38,285.05c-1.36-1.09-.47-3.71-.57-5.31,2.14-2.44.96,3.26,1.15,4.3.46.4,0,1.21-.58,1.02Z"/>
    <path class="cls-15" d="M90.71,262.53c-1.36-.06-2.74-.07-4.08-.26-.35.27-.87-.01-.95-.42-2.81.02-2.89-.76-3.22-3.27-.83-1.9-1.53-2.85-1.65-5.04-1.5-5.67,9.93-4.47,13.44-4.6,3,.24,6.17-.79,9.09.21,2.95.87,2.36,4.34,2.78,6.74.66,2.68.08,5.56-3.19,5.61.55-.49.82-1.22,1.04-1.9,1.61-.46.2-3.9.34-5.2-.22-1.17.07-3.02-1.24-3.54-6.55-.7-14.26-.88-20.68,1.09-.25,2.96,1.77,5.23,2.01,8.07,1.22.4,3.22-.11,3.97,1.08,2.92.06,5.89-.18,8.76-.29h-.03c1.27.3,2.59.33,3.8.88-3.38.48-6.75,1.04-10.19.84Z"/>
    <path class="cls-15" d="M89.93,260.76c-2.59-.78-3.18-4.45-2.87-6.79.86-5.26,11.6-6.24,12.26-.41-.69,1.96-1.85.27-2.05-.97-4.62-3.57-11.54.57-7.6,6.46.31.35.68.37,1.08.17,1.23-.15,1.34,1.7-.82,1.54Z"/>
    <path class="cls-15" d="M91.99,260.67c-.95-.04-3.75-1.1-2.07-2.11.77-.06,1.36.76,2.18.63,1.03.02.91,1.61-.11,1.48Z"/>
    <path class="cls-15" d="M101.77,263.38c-2.91-.95-5.9-1.71-8.65-3.12-1.54,1.73-2.93-1.73-3.59-2.85-1.18-2.73.78-5.1,3.86-4.47,4.05-.35,7.95-.32,11.58,1.68-.03-.01-.06-.02-.09-.03,3.42.88.22,10.15-3.11,8.79ZM99.04,261.13c3.82,1.64,4.81.15,5.47-3.53.12-.42.19-.85.09-1.3-4.14-2.3-8.83-1.98-13.4-1.57-.64,1.09-.19,2.41.57,3.27.03-.02.07-.03.11-.04,1.73.96,3.36,2.25,5.27,2.84-.01,0-.02,0-.03,0,.63.25,1.32.14,1.94.33Z"/>
    <path class="cls-15" d="M130.84,278.09c-2.72-.82-2.41-5.09-1.32-7.15.67-.9,1.7-3.42,3.06-2.54.34.36.26.95-.15,1.23-1.83,1.78-2.96,4.75-1.5,7.08.98.05.88,1.48-.09,1.38Z"/>
    <path class="cls-15" d="M138.37,276.5c-.2-.49.12-1.01.6-1.16,1.37-.91,1.35-3.23.54-4.51-.42-.91-1.61-1-2.04-1.84-.16-.82.8-1.08,1.31-.53.62.13,1.14.49,1.57.95-.01-.01-.02-.02-.04-.03,2.41,1.48,1.19,9.31-1.95,7.12Z"/>
    <path class="cls-15" d="M2.27,12.91c0-.21.33-.21.33,0,0,.21-.33.21-.33,0Z"/>
    <path class="cls-15" d="M5.07,372.18c.05.79-1.09,1.27-1.62.67-.54-.73-.22-1.78-.43-2.62-1.27-19.37-.45-38.76-.13-58.15-1.07-34.83-.65-69.79-1.74-104.6.04-30.6,2.61-61.2,1.28-91.79.73-21.58-2.96-43.09-1.38-64.71-.14-11.33-2.34-22.72.07-33.96.39-2.06.5-4.24,1.23-6.2,2.63-2.03.46,3.94.52,4.93-2.5,11.48-.59,23.05-.15,34.63-1.12,27.43,2.28,54.71,1.93,82.15-1.72,50.64-1.41,101.15-.47,151.79.92,29.32-.9,58.61.89,87.86Z"/>
    <path class="cls-15" d="M236.37,9.38c-10.99-.19-23.23-2.45-34.68-1.12-18.54,1.73-37.04-.4-55.52,1.1-21.28-.91-42.49.29-63.75.83-26.22.15-52.5-1.32-78.57.38-1.48,1.71-2.69-1.39-.56-1.8,9.09-.62,18.06-1.72,27.21-.55,27.14-.74,54.42.84,81.5-.8,29.46-1.06,58.85.5,88.31-.85,9.13-1.31,18.13.23,27.21.81,2.46-.02,9.39-.35,8.85,2Z"/>
    <path class="cls-15" d="M240.87,305.87c-1.26,21.73-2.81,43.5-2.82,65.26.12-1.4.68-.82.53.05-.29.62-.45,1.2-.75,1.77-.88.51-1.3-.62-1.22-1.39-1.19-28.68,3.53-57.38,1.83-86.08-2.18-61.49,2.12-123.08-1.91-184.48-.52-16.55.63-33.02.56-49.55-1.76-12.98-.91-25.94-2.54-38.9-.05-.94.02-1.96-.53-2.77-.59-.34-1.45-.63-1.14-1.5,4.82-3.18,3.36,9.62,4.17,12.07,1.26,11.25.49,22.7,2.05,34.02-.49,20.17-1.65,40.39.22,60.52,2.33,63.62-1.19,127.33,1.55,190.98Z"/>
    <path class="cls-15" d="M237.83,372.95c.21,5.4-15.1.65-19,1.99-34.9,2.75-69.84,1.57-104.78.35-35.85-.4-71.63,4.46-107.3-.86-3.34-1.08-3.96-5.72.22-1.56,35.64,4.93,71.35.15,107.13.52,23.87.99,47.66,1.49,71.51,1.17,16.82.34,33.52-2.5,50.34-1.06-.72-2.85,2.28-4.05,1.88-.55Z"/>
    <path class="cls-15" d="M151.74,373.54c-4.81-.92-19.3,1.39-19.63-5.31-.65-1.99,1.64-2.34,1.55-.77.05.51.12,1.04.06,1.58,1.98,1.93,5.78,2.14,8.5,2.32,5.47.21,10.94.44,16.39.04.61-.1,1.34.15,1.37.85-.96,2.15-6.12.76-8.33,1.29,0,0,.09,0,.09,0Z"/>
    <path class="cls-15" d="M214.54,87.26c-.16-.16-.19-.39-.18-.61-.6-.46-.65-2.92.3-3.03,1.47-1.79,1.5,5.07-.12,3.65Z"/>
    <path class="cls-15" d="M203.88,75.86c-.03-1.29-1.21-18.68,1.39-14.36-1.71,1.42,1.77,17.9-1.39,14.36Z"/>
    <path class="cls-15" d="M205.46,84.23c-2.24-1.3-1.61-8.06-1.15-10.5.36-.59,1.24-.08.91.53-.36,2.37.06,4.84.33,7.21.29.37.13.88.22,1.32.85.43.71,1.53-.31,1.44Z"/>
    <path class="cls-15" d="M31.45,8.61c-2.44-9.23,7.52-5.13,12.96-6.22,4.71.73,10.38-2.88,9.39,4.55-.09,1.05-1.39,1.95-1.91.67.25-1.22.24-2.45.03-3.72-6.3.75-12.88-.43-19.09.71-.28.96.37,4.91-1.37,4.02Z"/>
    <path class="cls-15" d="M35.37,3.08c-1.73-3.33,2.02-2.74,4.21-2.65,3.44.26,7.46-1.35,10.53.39,1.28,1.47-1.19,3.37-1.36,1.1-4.04-.52-8.24.58-12.33-.07.23.89-.22,1.74-1.05,1.23Z"/>
  </g>
</svg>