<?xml version="1.0" encoding="UTF-8"?>
<svg id="Laag_2" data-name="Laag 2" xmlns="http://www.w3.org/2000/svg" viewBox="0 0 27.06 16.2">
  <defs>
    <style>
      .cls-1 {
        fill: #afafaf;
      }

      .cls-1, .cls-2, .cls-3 {
        stroke: #000;
        stroke-miterlimit: 10;
      }

      .cls-2 {
        fill: #991915;
      }

      .cls-2, .cls-3 {
        stroke-width: 2px;
      }

      .cls-3 {
        fill: #595959;
      }
    </style>
  </defs>
  <g id="Laaggroep">
    <g id="Laaggroep-2" data-name="Laaggroep">
      <g id="LABELS">
        <path class="cls-2" d="M4.38,1.64c6.34-.63,12.73-.8,19.1-.51.27.01.55.03.8.13.77.31,1,1.28,1.11,2.1.43,3.13.65,6.29.67,9.45,0,.26,0,.52-.12.75-.25.49-.91.59-1.46.62-7.04.44-14.1.78-21.15,1-.23,0-.48,0-.66-.14-.15-.12-.22-.3-.27-.48-.26-.84-.35-1.71-.45-2.58-.31-2.81-.63-5.61-.94-8.42-.17-1.52,2.26-1.83,3.37-1.94Z"/>
        <path class="cls-3" d="M13.97,2.4c.51.02,1.01.2,1.42.5.32.24.59.55.84.87.53.65,1.05,1.33,1.42,2.08s.58,1.61.46,2.44c-.15,1.11-.86,2.06-1.59,2.92-.33.38-.67.76-1.05,1.09-1.51,1.26-3.74,1.58-5.54.79-.33-.15-.66-.33-.9-.6-.2-.23-.33-.51-.49-.76-.24-.38-.53-.73-.79-1.1-.68-.98-1.05-2.18-1.01-3.38s.51-2.37,1.34-3.24c.81-.85,1.92-1.36,3.06-1.61s2.32-.25,3.49-.19c.16,0,.38.1.34.25"/>
        <path class="cls-1" d="M15.25,6.43c.52,1.02.43,2.33-.26,3.24s-1.98,1.34-3.06.96c-.51-.18-.94-.5-1.35-.85-.56-.48-1.11-1.04-1.29-1.76-.18-.72.04-1.5.47-2.1,1.43-1.99,4.4-1.64,5.49.51Z"/>
      </g>
    </g>
  </g>
</svg>